SplineFontDB: 3.0
FontName: PortLligatSans-Regular
FullName: Port Lligat Sans
FamilyName: Port Lligat Sans
Weight: Book
Copyright: Copyright (c) 2011, Tipo (http://www.tipo.net.ar), with Reserved Font Name "Port Lligat Sans"
Version: 1.002
ItalicAngle: 0
UnderlinePosition: -50
UnderlineWidth: 50
Ascent: 800
Descent: 200
sfntRevision: 0x00010083
LayerCount: 2
Layer: 0 1 "Back"  1
Layer: 1 1 "Fore"  0
XUID: [1021 467 22810600 5409023]
FSType: 0
OS2Version: 2
OS2_WeightWidthSlopeOnly: 0
OS2_UseTypoMetrics: 1
CreationTime: 1327249502
ModificationTime: 1327249979
PfmFamily: 17
TTFWeight: 400
TTFWidth: 5
LineGap: 0
VLineGap: 0
Panose: 2 0 0 0 0 0 0 0 0 0
OS2TypoAscent: 60
OS2TypoAOffset: 1
OS2TypoDescent: -11
OS2TypoDOffset: 1
OS2TypoLinegap: 0
OS2WinAscent: 0
OS2WinAOffset: 1
OS2WinDescent: 0
OS2WinDOffset: 1
HheadAscent: 0
HheadAOffset: 1
HheadDescent: 0
HheadDOffset: 1
OS2SubXSize: 700
OS2SubYSize: 650
OS2SubXOff: 0
OS2SubYOff: 140
OS2SupXSize: 700
OS2SupYSize: 650
OS2SupXOff: 0
OS2SupYOff: 477
OS2StrikeYSize: 50
OS2StrikeYPos: 250
OS2Vendor: 'pyrs'
OS2CodePages: 20000001.00000000
OS2UnicodeRanges: 800000af.4000204b.00000000.00000000
Lookup: 258 0 0 "'kern' Horizontal Kerning in Latin lookup 0"  {"'kern' Horizontal Kerning in Latin lookup 0 subtable"  } ['kern' ('DFLT' <'dflt' > 'latn' <'dflt' > ) ]
DEI: 91125
TtTable: prep
PUSHW_1
 511
SCANCTRL
PUSHB_1
 4
SCANTYPE
EndTTInstrs
ShortTable: maxp 16
  1
  0
  266
  89
  7
  0
  0
  2
  0
  1
  1
  0
  64
  0
  0
  0
EndShort
LangName: 1033 "" "" "" "Tipo: Port Lligat Sans: 2011" "" "Version 1.002" "" "Port Lligat Sans is a trademark of Tipo." "Tipo" "Dario Muhafara, Eduardo Rodriguez Tunni" "" "http://www.tipo.net.ar" "http://www.tipo.net.ar" "This Font Software is licensed under the SIL Open Font License, Version 1.1. This license is available with a FAQ at: http://scripts.sil.org/OFL" "http://scripts.sil.org/OFL" 
GaspTable: 1 65535 15 1
Encoding: UnicodeBmp
UnicodeInterp: none
NameList: Adobe Glyph List

StartChar: exclam
Encoding: 33 33 7
Width: 270
GlyphClass: 2
Flags: W
LayerCount: 2
Fore
SplineSet
121 375 m 0,0,1
 121 559 121 559 95 663 c 1,2,3
 125 674 125 674 153 674 c 128,-1,4
 181 674 181 674 205 668 c 1,5,6
 185 479 185 479 185 245 c 0,7,8
 185 212 185 212 187 180 c 1,9,10
 168 174 168 174 153 174 c 128,-1,11
 138 174 138 174 119 180 c 1,12,13
 121 286 121 286 121 375 c 0,0,1
220 55 m 0,14,15
 220 25 220 25 202 5 c 128,-1,16
 184 -15 184 -15 147 -15 c 0,17,18
 90 -15 90 -15 90 43 c 0,19,20
 90 115 90 115 163 115 c 0,21,22
 220 115 220 115 220 55 c 0,14,15
EndSplineSet
EndChar

StartChar: quotedbl
Encoding: 34 34 8
Width: 351
GlyphClass: 2
Flags: W
LayerCount: 2
Fore
SplineSet
60 677 m 1,0,1
 83 682 83 682 112.5 682 c 128,-1,2
 142 682 142 682 151 679 c 1,3,4
 140 558 140 558 140 447 c 1,5,6
 122 441 122 441 104.5 441 c 128,-1,7
 87 441 87 441 75 444 c 1,8,9
 75 575 75 575 60 677 c 1,0,1
200 677 m 1,10,11
 223 682 223 682 252.5 682 c 128,-1,12
 282 682 282 682 291 679 c 1,13,14
 280 558 280 558 280 447 c 1,15,16
 262 441 262 441 244.5 441 c 128,-1,17
 227 441 227 441 215 444 c 1,18,19
 215 575 215 575 200 677 c 1,10,11
EndSplineSet
EndChar

StartChar: numbersign
Encoding: 35 35 9
Width: 763
GlyphClass: 2
Flags: W
LayerCount: 2
Fore
SplineSet
475 -46 m 0,0,1
 436 -46 436 -46 407 -27 c 1,2,3
 431 63 431 63 451 153 c 1,4,5
 409 154 409 154 357.5 154 c 128,-1,6
 306 154 306 154 246 152 c 1,7,8
 237 97 237 97 217 -44 c 1,9,10
 199 -46 199 -46 195 -46 c 0,11,12
 156 -46 156 -46 127 -27 c 1,13,14
 145 41 145 41 170 149 c 1,15,16
 88 146 88 146 55 140 c 1,17,18
 50 155 50 155 50 179 c 128,-1,19
 50 203 50 203 61 228 c 1,20,21
 111 223 111 223 186 221 c 1,22,23
 210 341 210 341 224 418 c 1,24,25
 139 415 139 415 107 409 c 1,26,27
 102 424 102 424 102 448 c 128,-1,28
 102 472 102 472 113 497 c 1,29,30
 164 492 164 492 237 490 c 1,31,32
 253 587 253 587 267 687 c 1,33,34
 275 688 275 688 301 688 c 128,-1,35
 327 688 327 688 356 670 c 1,36,37
 333 585 333 585 311 488 c 1,38,-1
 447 488 l 2,39,40
 487 488 487 488 517 489 c 1,41,42
 534 590 534 590 547 687 c 1,43,44
 555 688 555 688 581 688 c 128,-1,45
 607 688 607 688 636 670 c 1,46,47
 619 609 619 609 592 492 c 1,48,49
 689 498 689 498 708 502 c 1,50,51
 713 487 713 487 713 463 c 128,-1,52
 713 439 713 439 702 414 c 1,53,54
 633 419 633 419 576 420 c 1,55,56
 553 307 553 307 538 223 c 1,57,58
 637 229 637 229 656 233 c 1,59,60
 661 218 661 218 661 194 c 128,-1,61
 661 170 661 170 650 145 c 1,62,63
 583 150 583 150 526 151 c 1,64,65
 517 96 517 96 497 -44 c 1,66,67
 479 -46 479 -46 475 -46 c 0,0,1
395 219 m 2,68,69
 436 219 436 219 466 220 c 1,70,71
 488 323 488 323 505 422 c 1,72,73
 462 423 462 423 410 423 c 128,-1,74
 358 423 358 423 296 421 c 1,75,76
 276 327 276 327 257 219 c 1,77,-1
 395 219 l 2,68,69
EndSplineSet
EndChar

StartChar: dollar
Encoding: 36 36 10
Width: 550
GlyphClass: 2
Flags: W
LayerCount: 2
Fore
SplineSet
314 746 m 1,0,1
 306 664 306 664 305 653 c 1,2,3
 388 645 388 645 427.5 597 c 128,-1,4
 467 549 467 549 467 478 c 0,5,6
 467 466 467 466 464 453 c 1,7,8
 438 444 438 444 412 444 c 128,-1,9
 386 444 386 444 374 446 c 1,10,11
 375 454 375 454 375 467 c 0,12,13
 375 513 375 513 355 546 c 128,-1,14
 335 579 335 579 300 590 c 1,15,16
 293 490 293 490 290 362 c 1,17,18
 327 343 327 343 344 333.5 c 128,-1,19
 361 324 361 324 391.5 301.5 c 128,-1,20
 422 279 422 279 437 260 c 0,21,22
 477 208 477 208 477 140 c 128,-1,23
 477 72 477 72 423.5 28.5 c 128,-1,24
 370 -15 370 -15 292 -15 c 2,25,-1
 287 -15 l 1,26,27
 289 -66 289 -66 291 -79 c 1,28,29
 268 -92 268 -92 247.5 -92 c 128,-1,30
 227 -92 227 -92 214 -89 c 1,31,-1
 221 -9 l 1,32,33
 128 6 128 6 70 61 c 1,34,35
 74 85 74 85 86.5 105 c 128,-1,36
 99 125 99 125 110 132 c 1,37,-1
 120 140 l 1,38,39
 162 81 162 81 225 59 c 1,40,41
 232 169 232 169 237 295 c 1,42,43
 190 320 190 320 161 341 c 128,-1,44
 132 362 132 362 107.5 401.5 c 128,-1,45
 83 441 83 441 83 498 c 128,-1,46
 83 555 83 555 121.5 600 c 128,-1,47
 160 645 160 645 240 653 c 1,48,-1
 237 736 l 1,49,50
 256 749 256 749 277 749 c 128,-1,51
 298 749 298 749 314 746 c 1,0,1
287 65 m 2,52,-1
 287 49 l 1,53,54
 341 50 341 50 366.5 78 c 128,-1,55
 392 106 392 106 392 144.5 c 128,-1,56
 392 183 392 183 365.5 211.5 c 128,-1,57
 339 240 339 240 288 268 c 1,58,59
 287 200 287 200 287 65 c 2,52,-1
242 542 m 2,60,-1
 242 594 l 1,61,62
 169 580 169 580 169 500 c 0,63,64
 169 440 169 440 240 392 c 1,65,66
 242 444 242 444 242 542 c 2,60,-1
EndSplineSet
EndChar

StartChar: percent
Encoding: 37 37 11
Width: 889
GlyphClass: 2
Flags: W
LayerCount: 2
Fore
SplineSet
335 -46 m 0,0,1
 301 -46 301 -46 278 -27 c 1,2,3
 402 265 402 265 532 686 c 1,4,5
 548 688 548 688 558 688 c 0,6,7
 586 688 586 688 611 670 c 1,8,9
 490 391 490 391 356 -44 c 1,10,11
 340 -46 340 -46 335 -46 c 0,0,1
839 193 m 128,-1,13
 839 -9 839 -9 692 -9 c 128,-1,14
 545 -9 545 -9 545 193 c 128,-1,15
 545 395 545 395 692 395 c 128,-1,12
 839 395 839 395 839 193 c 128,-1,13
615 193 m 128,-1,17
 615 44 615 44 692.5 44 c 128,-1,18
 770 44 770 44 770 193 c 128,-1,19
 770 342 770 342 692.5 342 c 128,-1,16
 615 342 615 342 615 193 c 128,-1,17
344 451 m 128,-1,21
 344 249 344 249 197 249 c 128,-1,22
 50 249 50 249 50 451 c 128,-1,23
 50 653 50 653 197 653 c 128,-1,20
 344 653 344 653 344 451 c 128,-1,21
120 451 m 128,-1,25
 120 302 120 302 197.5 302 c 128,-1,26
 275 302 275 302 275 451 c 128,-1,27
 275 600 275 600 197.5 600 c 128,-1,24
 120 600 120 600 120 451 c 128,-1,25
EndSplineSet
EndChar

StartChar: ampersand
Encoding: 38 38 12
Width: 594
GlyphClass: 2
Flags: W
LayerCount: 2
Fore
SplineSet
127 609 m 128,-1,1
 181 655 181 655 247 655 c 128,-1,2
 313 655 313 655 358.5 623 c 128,-1,3
 404 591 404 591 404 530 c 0,4,5
 404 523 404 523 402 507 c 1,6,7
 376 499 376 499 355.5 499 c 128,-1,8
 335 499 335 499 311 501 c 1,9,10
 312 508 312 508 312 520 c 0,11,12
 312 554 312 554 295 576.5 c 128,-1,13
 278 599 278 599 241 599 c 128,-1,14
 204 599 204 599 180 559 c 128,-1,15
 156 519 156 519 156 477 c 0,16,17
 156 403 156 403 198 377.5 c 128,-1,18
 240 352 240 352 342 352 c 0,19,20
 375 352 375 352 393 353 c 1,21,-1
 388 426 l 1,22,23
 413 434 413 434 440.5 434 c 128,-1,24
 468 434 468 434 486 430 c 1,25,-1
 477 352 l 1,26,27
 498 353 498 353 568 357 c 1,28,29
 574 343 574 343 574 328 c 128,-1,30
 574 313 574 313 570 291 c 1,31,32
 532 292 532 292 473 296 c 1,33,34
 471 277 471 277 471 238 c 2,35,-1
 471 51 l 1,36,37
 402 -15 402 -15 281.5 -15 c 128,-1,38
 161 -15 161 -15 105.5 36.5 c 128,-1,39
 50 88 50 88 50 173 c 0,40,41
 50 289 50 289 163 332 c 1,42,43
 73 369 73 369 73 480 c 0,44,0
 73 563 73 563 127 609 c 128,-1,1
395 93 m 1,45,-1
 397 275 l 1,46,-1
 397 295 l 1,47,48
 333 297 333 297 311 297 c 0,49,50
 214 297 214 297 175.5 272 c 128,-1,51
 137 247 137 247 137 173 c 0,52,53
 137 120 137 120 172 84.5 c 128,-1,54
 207 49 207 49 276 49 c 128,-1,55
 345 49 345 49 395 93 c 1,45,-1
EndSplineSet
EndChar

StartChar: quotesingle
Encoding: 39 39 13
Width: 211
GlyphClass: 2
Flags: W
LayerCount: 2
Fore
SplineSet
60 677 m 1,0,1
 83 682 83 682 112.5 682 c 128,-1,2
 142 682 142 682 151 679 c 1,3,4
 140 558 140 558 140 447 c 1,5,6
 122 441 122 441 104.5 441 c 128,-1,7
 87 441 87 441 75 444 c 1,8,9
 75 575 75 575 60 677 c 1,0,1
EndSplineSet
EndChar

StartChar: parenleft
Encoding: 40 40 14
Width: 309
GlyphClass: 2
Flags: W
LayerCount: 2
Fore
SplineSet
147 329 m 128,-1,1
 147 114 147 114 279 -60 c 1,2,3
 235 -74 235 -74 214 -74 c 128,-1,4
 193 -74 193 -74 186 -73 c 1,5,6
 65 107 65 107 65 329.5 c 128,-1,7
 65 552 65 552 186 732 c 1,8,9
 193 733 193 733 214 733 c 128,-1,10
 235 733 235 733 279 719 c 1,11,0
 147 544 147 544 147 329 c 128,-1,1
EndSplineSet
EndChar

StartChar: parenright
Encoding: 41 41 15
Width: 309
GlyphClass: 2
Flags: W
LayerCount: 2
Fore
SplineSet
30 719 m 1,0,1
 74 733 74 733 95 733 c 128,-1,2
 116 733 116 733 123 732 c 1,3,4
 244 552 244 552 244 329.5 c 128,-1,5
 244 107 244 107 123 -73 c 1,6,7
 116 -74 116 -74 95 -74 c 128,-1,8
 74 -74 74 -74 30 -60 c 1,9,10
 162 114 162 114 162 329 c 128,-1,11
 162 544 162 544 30 719 c 1,0,1
EndSplineSet
EndChar

StartChar: asterisk
Encoding: 42 42 16
Width: 398
GlyphClass: 2
Flags: W
LayerCount: 2
Fore
SplineSet
158 670 m 1,0,1
 179 675 179 675 203.5 675 c 128,-1,2
 228 675 228 675 237 670 c 1,3,4
 230 615 230 615 228 555 c 1,5,6
 283 575 283 575 335 601 c 1,7,8
 339 594 339 594 348 572.5 c 128,-1,9
 357 551 357 551 358 525 c 1,10,11
 300 518 300 518 241 499 c 1,12,13
 280 448 280 448 321 410 c 1,14,15
 278 367 278 367 257 363 c 1,16,17
 221 432 221 432 196 465 c 1,18,19
 168 426 168 426 138 365 c 1,20,21
 110 377 110 377 93 389.5 c 128,-1,22
 76 402 76 402 73 409 c 1,23,24
 119 457 119 457 150 500 c 1,25,26
 98 517 98 517 38 525 c 1,27,28
 39 551 39 551 48.5 574 c 128,-1,29
 58 597 58 597 61 601 c 1,30,31
 115 573 115 573 171 554 c 1,32,33
 170 602 170 602 158 670 c 1,0,1
EndSplineSet
EndChar

StartChar: plus
Encoding: 43 43 17
Width: 601
GlyphClass: 2
Flags: W
LayerCount: 2
Fore
SplineSet
259 534 m 1,0,1
 281 541 281 541 307 541 c 128,-1,2
 333 541 333 541 347 538 c 1,3,4
 342 521 342 521 337.5 457.5 c 128,-1,5
 333 394 333 394 333 360 c 1,6,7
 367 360 367 360 430.5 364.5 c 128,-1,8
 494 369 494 369 511 374 c 1,9,10
 514 360 514 360 514 334 c 128,-1,11
 514 308 514 308 507 286 c 1,12,13
 431 293 431 293 333 295 c 1,14,15
 333 187 333 187 342 121 c 1,16,17
 320 114 320 114 294 114 c 128,-1,18
 268 114 268 114 254 117 c 1,19,20
 265 161 265 161 268 295 c 1,21,22
 134 292 134 292 90 281 c 1,23,24
 87 295 87 295 87 321 c 128,-1,25
 87 347 87 347 94 369 c 1,26,27
 160 360 160 360 268 360 c 1,28,29
 266 458 266 458 259 534 c 1,0,1
EndSplineSet
EndChar

StartChar: comma
Encoding: 44 44 18
Width: 261
GlyphClass: 2
Flags: W
LayerCount: 2
Fore
SplineSet
75 -152 m 1,0,1
 70 -137 70 -137 70 -127.5 c 128,-1,2
 70 -118 70 -118 73 -103 c 1,3,4
 140 -103 140 -103 140 -34 c 0,5,6
 140 -9 140 -9 114 -6 c 0,7,8
 76 -3 76 -3 76 43 c 0,9,10
 76 78 76 78 92.5 96.5 c 128,-1,11
 109 115 109 115 152 115 c 0,12,13
 211 115 211 115 211 35 c 128,-1,14
 211 -45 211 -45 179 -98.5 c 128,-1,15
 147 -152 147 -152 75 -152 c 1,0,1
EndSplineSet
EndChar

StartChar: hyphen
Encoding: 45 45 19
Width: 354
GlyphClass: 2
Flags: W
LayerCount: 2
Fore
SplineSet
66 196 m 1,0,1
 60 210 60 210 60 227 c 128,-1,2
 60 244 60 244 66 268 c 1,3,4
 255 281 255 281 288 289 c 1,5,6
 294 275 294 275 294 258 c 128,-1,7
 294 241 294 241 288 217 c 1,8,9
 99 204 99 204 66 196 c 1,0,1
EndSplineSet
EndChar

StartChar: period
Encoding: 46 46 20
Width: 270
GlyphClass: 2
Flags: W
LayerCount: 2
Fore
SplineSet
220 55 m 0,0,1
 220 25 220 25 202 5 c 128,-1,2
 184 -15 184 -15 147 -15 c 0,3,4
 90 -15 90 -15 90 43 c 0,5,6
 90 115 90 115 163 115 c 0,7,8
 220 115 220 115 220 55 c 0,0,1
EndSplineSet
EndChar

StartChar: slash
Encoding: 47 47 21
Width: 566
GlyphClass: 2
Flags: W
LayerCount: 2
Fore
SplineSet
162 -46 m 0,0,1
 123 -46 123 -46 96 -27 c 1,2,3
 246 275 246 275 393 686 c 1,4,5
 411 688 411 688 433.5 688 c 128,-1,6
 456 688 456 688 485 670 c 1,7,8
 337 378 337 378 187 -44 c 1,9,10
 169 -46 169 -46 162 -46 c 0,0,1
EndSplineSet
EndChar

StartChar: zero
Encoding: 48 48 22
Width: 587
GlyphClass: 2
Flags: W
LayerCount: 2
Fore
SplineSet
527 320 m 128,-1,1
 527 -15 527 -15 293.5 -15 c 128,-1,2
 60 -15 60 -15 60 320 c 128,-1,3
 60 655 60 655 293.5 655 c 128,-1,0
 527 655 527 655 527 320 c 128,-1,1
145 320 m 128,-1,5
 145 50 145 50 293.5 50 c 128,-1,6
 442 50 442 50 442 320 c 128,-1,7
 442 590 442 590 293.5 590 c 128,-1,4
 145 590 145 590 145 320 c 128,-1,5
EndSplineSet
EndChar

StartChar: one
Encoding: 49 49 23
Width: 375
GlyphClass: 2
Flags: W
LayerCount: 2
Fore
SplineSet
217 648 m 1,0,1
 226 649 226 649 239 649 c 128,-1,2
 252 649 252 649 263 648 c 128,-1,3
 274 647 274 647 282 647 c 1,4,5
 268 539 268 539 268 297.5 c 128,-1,6
 268 56 268 56 285 2 c 1,7,8
 252 -8 252 -8 224 -8 c 128,-1,9
 196 -8 196 -8 179 -6 c 1,10,11
 193 111 193 111 193 299 c 128,-1,12
 193 487 193 487 187 553 c 1,13,14
 75 479 75 479 56 460 c 1,15,16
 17 503 17 503 10 540 c 1,17,18
 74 566 74 566 217 648 c 1,0,1
EndSplineSet
EndChar

StartChar: two
Encoding: 50 50 24
Width: 538
GlyphClass: 2
Flags: W
LayerCount: 2
Fore
SplineSet
115 607 m 128,-1,1
 166 655 166 655 257.5 655 c 128,-1,2
 349 655 349 655 407 609.5 c 128,-1,3
 465 564 465 564 465 480 c 0,4,5
 465 431 465 431 431.5 373.5 c 128,-1,6
 398 316 398 316 356 272 c 0,7,8
 210 119 210 119 174 69 c 1,9,10
 207 68 207 68 264.5 68 c 128,-1,11
 322 68 322 68 391.5 72.5 c 128,-1,12
 461 77 461 77 479 82 c 1,13,14
 483 64 483 64 483 42 c 128,-1,15
 483 20 483 20 475 -6 c 1,16,17
 401 3 401 3 318 3 c 128,-1,18
 235 3 235 3 154 -2 c 128,-1,19
 73 -7 73 -7 54 -11 c 1,20,21
 50 1 50 1 50 24 c 1,22,23
 95 105 95 105 208 221 c 0,24,25
 250 264 250 264 290 308 c 0,26,27
 377 404 377 404 377 477 c 0,28,29
 377 521 377 521 350 558.5 c 128,-1,30
 323 596 323 596 269 596 c 128,-1,31
 215 596 215 596 180.5 562 c 128,-1,32
 146 528 146 528 146 472 c 0,33,34
 146 459 146 459 147 451 c 1,35,36
 137 449 137 449 110.5 449 c 128,-1,37
 84 449 84 449 67 458 c 1,38,39
 64 470 64 470 64 483 c 0,40,0
 64 559 64 559 115 607 c 128,-1,1
EndSplineSet
EndChar

StartChar: three
Encoding: 51 51 25
Width: 529
GlyphClass: 2
Flags: W
LayerCount: 2
Fore
SplineSet
240 49 m 0,0,1
 317 49 317 49 354.5 84.5 c 128,-1,2
 392 120 392 120 392 173 c 0,3,4
 392 267 392 267 310 296 c 1,5,6
 254 292 254 292 226 292 c 128,-1,7
 198 292 198 292 175 295 c 1,8,9
 170 312 170 312 170 330 c 128,-1,10
 170 348 170 348 180 365 c 1,11,12
 203 358 203 358 258 358 c 128,-1,13
 313 358 313 358 343 392.5 c 128,-1,14
 373 427 373 427 373 473.5 c 128,-1,15
 373 520 373 520 344 558 c 128,-1,16
 315 596 315 596 260.5 596 c 128,-1,17
 206 596 206 596 171.5 562 c 128,-1,18
 137 528 137 528 137 472 c 0,19,20
 137 459 137 459 138 451 c 1,21,22
 128 449 128 449 101.5 449 c 128,-1,23
 75 449 75 449 58 458 c 1,24,25
 55 470 55 470 55 483 c 0,26,27
 55 559 55 559 106 607 c 128,-1,28
 157 655 157 655 248.5 655 c 128,-1,29
 340 655 340 655 398 609.5 c 128,-1,30
 456 564 456 564 456 480 c 0,31,32
 456 369 456 369 366 332 c 1,33,34
 479 289 479 289 479 173 c 0,35,36
 479 88 479 88 421 36.5 c 128,-1,37
 363 -15 363 -15 236.5 -15 c 128,-1,38
 110 -15 110 -15 38 51 c 1,39,40
 42 75 42 75 53 94.5 c 128,-1,41
 64 114 64 114 74 122 c 2,42,-1
 83 130 l 1,43,44
 109 91 109 91 152.5 70 c 128,-1,45
 196 49 196 49 240 49 c 0,0,1
EndSplineSet
EndChar

StartChar: four
Encoding: 52 52 26
Width: 511
GlyphClass: 2
Flags: W
LayerCount: 2
Fore
SplineSet
264 639 m 1,0,1
 294 649 294 649 326 649 c 128,-1,2
 358 649 358 649 410 645 c 1,3,4
 396 534 396 534 396 395 c 128,-1,5
 396 256 396 256 397 214 c 1,6,7
 447 218 447 218 457 221 c 1,8,9
 461 203 461 203 461 181 c 128,-1,10
 461 159 461 159 453 133 c 1,11,12
 435 136 435 136 400 138 c 1,13,14
 405 24 405 24 413 2 c 1,15,16
 380 -8 380 -8 352 -8 c 128,-1,17
 324 -8 324 -8 307 -6 c 1,18,19
 315 65 315 65 318 141 c 1,20,21
 287 142 287 142 176 142 c 128,-1,22
 65 142 65 142 13 136 c 1,23,24
 10 145 10 145 10 172 c 1,25,26
 23 195 23 195 59.5 256.5 c 128,-1,27
 96 318 96 318 108.5 340 c 128,-1,28
 121 362 121 362 148.5 410.5 c 128,-1,29
 176 459 176 459 191 488 c 0,30,31
 237 576 237 576 264 639 c 1,0,1
118 208 m 1,32,33
 156 207 156 207 205 207 c 128,-1,34
 254 207 254 207 320 209 c 1,35,36
 321 243 321 243 321 373.5 c 128,-1,37
 321 504 321 504 313 579 c 1,38,39
 247 481 247 481 118 208 c 1,32,33
EndSplineSet
EndChar

StartChar: five
Encoding: 53 53 27
Width: 531
GlyphClass: 2
Flags: W
LayerCount: 2
Fore
SplineSet
170 386 m 1,0,1
 220 395 220 395 266.5 395 c 128,-1,2
 313 395 313 395 359.5 376.5 c 128,-1,3
 406 358 406 358 432 327 c 0,4,5
 481 267 481 267 481 182 c 128,-1,6
 481 97 481 97 422.5 41 c 128,-1,7
 364 -15 364 -15 238 -15 c 128,-1,8
 112 -15 112 -15 40 51 c 1,9,10
 44 75 44 75 55 94.5 c 128,-1,11
 66 114 66 114 76 122 c 2,12,-1
 85 130 l 1,13,14
 111 91 111 91 154.5 70 c 128,-1,15
 198 49 198 49 242 49 c 0,16,17
 318 49 318 49 356 89 c 128,-1,18
 394 129 394 129 394 185.5 c 128,-1,19
 394 242 394 242 360.5 287 c 128,-1,20
 327 332 327 332 247.5 332 c 128,-1,21
 168 332 168 332 124 302 c 1,22,23
 96 302 96 302 80 308 c 1,24,25
 93 345 93 345 100 437.5 c 128,-1,26
 107 530 107 530 107 580.5 c 128,-1,27
 107 631 107 631 106 646 c 1,28,29
 197 639 197 639 285.5 639 c 128,-1,30
 374 639 374 639 459 648 c 1,31,32
 463 630 463 630 463 608 c 128,-1,33
 463 586 463 586 455 560 c 1,34,35
 438 565 438 565 376.5 569.5 c 128,-1,36
 315 574 315 574 279 573.5 c 128,-1,37
 243 573 243 573 188 573 c 1,38,39
 172 472 172 472 170 386 c 1,0,1
EndSplineSet
EndChar

StartChar: six
Encoding: 54 54 28
Width: 549
GlyphClass: 2
Flags: W
LayerCount: 2
Fore
SplineSet
284 655 m 0,0,1
 377 655 377 655 423 609 c 128,-1,2
 469 563 469 563 471 491 c 0,3,4
 471 480 471 480 468 467 c 1,5,6
 442 459 442 459 417 459 c 128,-1,7
 392 459 392 459 381 461 c 1,8,9
 382 468 382 468 382 480 c 0,10,11
 382 533 382 533 355.5 564 c 128,-1,12
 329 595 329 595 281 595 c 0,13,14
 220 595 220 595 181.5 523 c 128,-1,15
 143 451 143 451 143 327 c 1,16,17
 197 398 197 398 302 398 c 0,18,19
 381 398 381 398 437.5 344 c 128,-1,20
 494 290 494 290 494 197.5 c 128,-1,21
 494 105 494 105 431.5 45 c 128,-1,22
 369 -15 369 -15 275 -15 c 0,23,24
 155 -15 155 -15 107.5 61.5 c 128,-1,25
 60 138 60 138 60 299 c 0,26,27
 60 485 60 485 119 574 c 0,28,29
 142 608 142 608 184.5 631.5 c 128,-1,30
 227 655 227 655 284 655 c 0,0,1
367.5 86 m 128,-1,32
 409 122 409 122 409 192.5 c 128,-1,33
 409 263 409 263 375 300 c 128,-1,34
 341 337 341 337 285.5 337 c 128,-1,35
 230 337 230 337 188.5 297.5 c 128,-1,36
 147 258 147 258 147 189 c 128,-1,37
 147 120 147 120 182.5 85 c 128,-1,38
 218 50 218 50 272 50 c 128,-1,31
 326 50 326 50 367.5 86 c 128,-1,32
EndSplineSet
EndChar

StartChar: seven
Encoding: 55 55 29
Width: 446
GlyphClass: 2
Flags: W
LayerCount: 2
Fore
SplineSet
302 573 m 1,0,1
 277 574 277 574 228.5 574 c 128,-1,2
 180 574 180 574 109 569.5 c 128,-1,3
 38 565 38 565 20 560 c 1,4,5
 16 578 16 578 16 600 c 128,-1,6
 16 622 16 622 24 648 c 1,7,8
 98 639 98 639 181.5 639 c 128,-1,9
 265 639 265 639 336 643.5 c 128,-1,10
 407 648 407 648 425 653 c 1,11,12
 429 635 429 635 429 618 c 1,13,14
 349 471 349 471 280.5 294 c 128,-1,15
 212 117 212 117 197 2 c 1,16,17
 168 -8 168 -8 143.5 -8 c 128,-1,18
 119 -8 119 -8 95 -4 c 1,19,20
 154 192 154 192 302 573 c 1,0,1
EndSplineSet
EndChar

StartChar: eight
Encoding: 56 56 30
Width: 565
GlyphClass: 2
Flags: W
LayerCount: 2
Fore
SplineSet
187 333 m 1,0,1
 78 396 78 396 78 491 c 0,2,3
 78 562 78 562 128.5 608.5 c 128,-1,4
 179 655 179 655 284 655 c 0,5,6
 489 655 489 655 489 487 c 0,7,8
 489 404 489 404 388 320 c 1,9,10
 505 258 505 258 505 160 c 0,11,12
 505 76 505 76 438 30.5 c 128,-1,13
 371 -15 371 -15 282 -15 c 0,14,15
 172 -15 172 -15 110 36 c 0,16,17
 60 77 60 77 60 157 c 128,-1,18
 60 237 60 237 187 333 c 1,0,1
282 59 m 0,19,20
 346 59 346 59 381.5 92 c 128,-1,21
 417 125 417 125 417 163 c 0,22,23
 417 194 417 194 401 210.5 c 128,-1,24
 385 227 385 227 376 235 c 128,-1,25
 367 243 367 243 346 254 c 2,26,-1
 314 270 l 2,27,28
 304 276 304 276 277.5 288 c 128,-1,29
 251 300 251 300 241 305 c 1,30,31
 148 229 148 229 148 155 c 0,32,33
 148 59 148 59 282 59 c 0,19,20
217 406 m 0,34,35
 246 387 246 387 265.5 377 c 128,-1,36
 285 367 285 367 329 348 c 1,37,38
 370 375 370 375 388 414 c 128,-1,39
 406 453 406 453 406 487 c 0,40,41
 406 596 406 596 285 596 c 0,42,43
 236 596 236 596 200 571 c 128,-1,44
 164 546 164 546 164 494 c 128,-1,45
 164 442 164 442 217 406 c 0,34,35
EndSplineSet
EndChar

StartChar: nine
Encoding: 57 57 31
Width: 549
GlyphClass: 2
Flags: W
LayerCount: 2
Fore
SplineSet
260 -15 m 0,0,1
 164 -15 164 -15 117 31 c 128,-1,2
 70 77 70 77 68 149 c 0,3,4
 68 160 68 160 71 173 c 1,5,6
 97 181 97 181 122 181 c 128,-1,7
 147 181 147 181 158 179 c 1,8,9
 157 172 157 172 157 160 c 0,10,11
 157 107 157 107 184.5 76 c 128,-1,12
 212 45 212 45 262 45 c 0,13,14
 406 45 406 45 406 313 c 1,15,16
 352 242 352 242 247 242 c 0,17,18
 168 242 168 242 111.5 296 c 128,-1,19
 55 350 55 350 55 442.5 c 128,-1,20
 55 535 55 535 117.5 595 c 128,-1,21
 180 655 180 655 274 655 c 0,22,23
 394 655 394 655 441.5 575.5 c 128,-1,24
 489 496 489 496 489 331 c 0,25,26
 489 -15 489 -15 260 -15 c 0,0,1
360.5 339 m 128,-1,28
 402 375 402 375 402 445.5 c 128,-1,29
 402 516 402 516 368 553 c 128,-1,30
 334 590 334 590 278.5 590 c 128,-1,31
 223 590 223 590 181.5 550.5 c 128,-1,32
 140 511 140 511 140 442.5 c 128,-1,33
 140 374 140 374 175 338.5 c 128,-1,34
 210 303 210 303 264.5 303 c 128,-1,27
 319 303 319 303 360.5 339 c 128,-1,28
EndSplineSet
EndChar

StartChar: colon
Encoding: 58 58 32
Width: 264
GlyphClass: 2
Flags: W
LayerCount: 2
Fore
SplineSet
217 55 m 0,0,1
 217 25 217 25 199 5 c 128,-1,2
 181 -15 181 -15 144 -15 c 0,3,4
 87 -15 87 -15 87 43 c 0,5,6
 87 115 87 115 160 115 c 0,7,8
 217 115 217 115 217 55 c 0,0,1
217 418 m 0,9,10
 217 388 217 388 199 368 c 128,-1,11
 181 348 181 348 144 348 c 0,12,13
 87 348 87 348 87 406 c 0,14,15
 87 478 87 478 160 478 c 0,16,17
 217 478 217 478 217 418 c 0,9,10
EndSplineSet
EndChar

StartChar: semicolon
Encoding: 59 59 33
Width: 271
GlyphClass: 2
Flags: W
LayerCount: 2
Fore
SplineSet
217 418 m 0,0,1
 217 388 217 388 199 368 c 128,-1,2
 181 348 181 348 144 348 c 0,3,4
 87 348 87 348 87 406 c 0,5,6
 87 478 87 478 160 478 c 0,7,8
 217 478 217 478 217 418 c 0,0,1
86 -152 m 1,9,10
 81 -137 81 -137 81 -127.5 c 128,-1,11
 81 -118 81 -118 84 -103 c 1,12,13
 151 -103 151 -103 151 -34 c 0,14,15
 151 -9 151 -9 125 -6 c 0,16,17
 87 -3 87 -3 87 43 c 0,18,19
 87 78 87 78 103.5 96.5 c 128,-1,20
 120 115 120 115 163 115 c 0,21,22
 222 115 222 115 222 35 c 128,-1,23
 222 -45 222 -45 190 -98.5 c 128,-1,24
 158 -152 158 -152 86 -152 c 1,9,10
EndSplineSet
EndChar

StartChar: less
Encoding: 60 60 34
Width: 601
GlyphClass: 2
Flags: W
LayerCount: 2
Fore
SplineSet
74 287 m 1,0,1
 67 301 67 301 67 326.5 c 128,-1,2
 67 352 67 352 74 367 c 1,3,4
 198 414 198 414 368 518 c 0,5,6
 426 553 426 553 440 566 c 1,7,8
 449 555 449 555 461.5 530.5 c 128,-1,9
 474 506 474 506 478 486 c 1,10,11
 402 456 402 456 290.5 398 c 128,-1,12
 179 340 179 340 156 327 c 1,13,14
 203 301 203 301 298 251.5 c 128,-1,15
 393 202 393 202 478 168 c 1,16,17
 474 148 474 148 461.5 123.5 c 128,-1,18
 449 99 449 99 440 88 c 1,19,20
 426 101 426 101 368 136 c 0,21,22
 201 238 201 238 74 287 c 1,0,1
EndSplineSet
EndChar

StartChar: equal
Encoding: 61 61 35
Width: 601
GlyphClass: 2
Flags: W
LayerCount: 2
Fore
SplineSet
507 386 m 1,0,1
 415 395 415 395 328.5 395 c 128,-1,2
 242 395 242 395 175 390.5 c 128,-1,3
 108 386 108 386 90 381 c 1,4,5
 87 394 87 394 87 420.5 c 128,-1,6
 87 447 87 447 94 469 c 1,7,8
 163 460 163 460 261 460 c 0,9,10
 461 460 461 460 511 474 c 1,11,12
 514 461 514 461 514 434.5 c 128,-1,13
 514 408 514 408 507 386 c 1,0,1
507 186 m 1,14,15
 415 195 415 195 328.5 195 c 128,-1,16
 242 195 242 195 175 190.5 c 128,-1,17
 108 186 108 186 90 181 c 1,18,19
 87 195 87 195 87 221 c 128,-1,20
 87 247 87 247 94 269 c 1,21,22
 163 260 163 260 261 260 c 0,23,24
 461 260 461 260 511 274 c 1,25,26
 514 261 514 261 514 234.5 c 128,-1,27
 514 208 514 208 507 186 c 1,14,15
EndSplineSet
EndChar

StartChar: greater
Encoding: 62 62 36
Width: 601
GlyphClass: 2
Flags: W
LayerCount: 2
Fore
SplineSet
471 367 m 1,0,1
 478 352 478 352 478 326.5 c 128,-1,2
 478 301 478 301 471 287 c 1,3,4
 344 238 344 238 176 136 c 0,5,6
 119 101 119 101 105 88 c 1,7,8
 96 99 96 99 83.5 123.5 c 128,-1,9
 71 148 71 148 67 168 c 1,10,11
 152 202 152 202 247 251.5 c 128,-1,12
 342 301 342 301 389 327 c 1,13,14
 343 353 343 353 279 385 c 1,15,16
 152 452 152 452 67 486 c 1,17,18
 71 506 71 506 83.5 530.5 c 128,-1,19
 96 555 96 555 105 566 c 1,20,21
 119 553 119 553 176 518 c 0,22,23
 344 416 344 416 471 367 c 1,0,1
EndSplineSet
EndChar

StartChar: question
Encoding: 63 63 37
Width: 459
GlyphClass: 2
Flags: W
LayerCount: 2
Fore
SplineSet
95 639 m 1,0,-1
 96 650 l 1,1,2
 149 673 149 673 227 673 c 128,-1,3
 305 673 305 673 359.5 632.5 c 128,-1,4
 414 592 414 592 414 530 c 0,5,6
 414 494 414 494 396 464 c 128,-1,7
 378 434 378 434 352.5 413.5 c 128,-1,8
 327 393 327 393 302 374 c 0,9,10
 240 328 240 328 240 283 c 128,-1,11
 240 238 240 238 268 206 c 1,12,13
 242 174 242 174 206 171 c 1,14,15
 172 239 172 239 172 289 c 128,-1,16
 172 339 172 339 230 397 c 0,17,18
 238 405 238 405 263.5 428.5 c 128,-1,19
 289 452 289 452 299 464 c 0,20,21
 331 500 331 500 331 535.5 c 128,-1,22
 331 571 331 571 302.5 593 c 128,-1,23
 274 615 274 615 221.5 615 c 128,-1,24
 169 615 169 615 115 575 c 1,25,26
 95 608 95 608 95 639 c 1,0,-1
293 55 m 0,27,28
 293 25 293 25 275 5 c 128,-1,29
 257 -15 257 -15 220 -15 c 0,30,31
 163 -15 163 -15 163 43 c 0,32,33
 163 115 163 115 236 115 c 0,34,35
 293 115 293 115 293 55 c 0,27,28
EndSplineSet
EndChar

StartChar: at
Encoding: 64 64 38
Width: 873
GlyphClass: 2
Flags: W
LayerCount: 2
Fore
SplineSet
557 -34 m 1,0,1
 561 -42 561 -42 561 -66 c 128,-1,2
 561 -90 561 -90 553 -112 c 1,3,4
 481 -137 481 -137 375 -137 c 0,5,6
 227 -137 227 -137 151.5 -59.5 c 128,-1,7
 76 18 76 18 76 170 c 0,8,9
 76 393 76 393 184.5 514 c 128,-1,10
 293 635 293 635 493 635 c 0,11,12
 649 635 649 635 731.5 554.5 c 128,-1,13
 814 474 814 474 814 322 c 0,14,15
 814 204 814 204 744 117 c 128,-1,16
 674 30 674 30 578 30 c 0,17,18
 533 30 533 30 519 97 c 1,19,20
 444 30 444 30 374 30 c 0,21,22
 322 30 322 30 294.5 71.5 c 128,-1,23
 267 113 267 113 267 191 c 0,24,25
 267 318 267 318 320 395.5 c 128,-1,26
 373 473 373 473 460.5 473 c 128,-1,27
 548 473 548 473 631 450 c 1,28,29
 588 268 588 268 588 142 c 0,30,31
 588 91 588 91 617 91 c 0,32,33
 661 91 661 91 698.5 163 c 128,-1,34
 736 235 736 235 736 319 c 0,35,36
 736 450 736 450 675.5 512.5 c 128,-1,37
 615 575 615 575 487 575 c 0,38,39
 327 575 327 575 242.5 471.5 c 128,-1,40
 158 368 158 368 158 173 c 0,41,42
 158 -73 158 -73 364 -73 c 0,43,44
 443 -73 443 -73 557 -34 c 1,0,1
455 423 m 128,-1,46
 406 423 406 423 375 360 c 128,-1,47
 344 297 344 297 344 198 c 128,-1,48
 344 99 344 99 408 99 c 0,49,50
 432 99 432 99 462.5 114 c 128,-1,51
 493 129 493 129 517 153 c 1,52,53
 521 183 521 183 546 402 c 1,54,45
 504 423 504 423 455 423 c 128,-1,46
EndSplineSet
EndChar

StartChar: A
Encoding: 65 65 39
Width: 562
GlyphClass: 2
Flags: W
LayerCount: 2
Fore
SplineSet
396 178 m 1,0,1
 347 181 347 181 273.5 181 c 128,-1,2
 200 181 200 181 149 177 c 1,3,4
 119 53 119 53 105 -10 c 1,5,6
 87 -12 87 -12 69.5 -12 c 128,-1,7
 52 -12 52 -12 14 -2 c 1,8,9
 177 432 177 432 204 639 c 1,10,11
 233 649 233 649 280 649 c 128,-1,12
 327 649 327 649 356 639 c 1,13,14
 383 432 383 432 546 -2 c 1,15,16
 510 -12 510 -12 482.5 -12 c 128,-1,17
 455 -12 455 -12 440 -10 c 1,18,19
 423 65 423 65 396 178 c 1,0,1
166 247 m 1,20,21
 212 246 212 246 263 246 c 128,-1,22
 314 246 314 246 378 248 c 1,23,24
 333 423 333 423 279 578 c 1,25,-1
 273 578 l 1,26,27
 214 430 214 430 166 247 c 1,20,21
EndSplineSet
EndChar

StartChar: B
Encoding: 66 66 40
Width: 575
GlyphClass: 2
Flags: W
LayerCount: 2
Fore
SplineSet
103 13 m 1,0,1
 117 130 117 130 117 330.5 c 128,-1,2
 117 531 117 531 100 627 c 1,3,4
 179 655 179 655 285.5 655 c 128,-1,5
 392 655 392 655 442 607 c 128,-1,6
 492 559 492 559 492 466.5 c 128,-1,7
 492 374 492 374 428 326 c 1,8,9
 535 284 535 284 535 173 c 0,10,11
 535 -15 535 -15 306 -15 c 0,12,13
 185 -15 185 -15 103 13 c 1,0,1
250 372 m 1,14,15
 272 357 272 357 317.5 357 c 128,-1,16
 363 357 363 357 384 388.5 c 128,-1,17
 405 420 405 420 405 472 c 128,-1,18
 405 524 405 524 376.5 561 c 128,-1,19
 348 598 348 598 282 598 c 0,20,21
 245 598 245 598 200 580 c 1,22,23
 192 499 192 499 192 341 c 128,-1,24
 192 183 192 183 200 77 c 1,25,26
 258 54 258 54 307 54 c 0,27,28
 448 54 448 54 448 173 c 0,29,30
 448 274 448 274 355 295 c 1,31,32
 328 290 328 290 298 290 c 128,-1,33
 268 290 268 290 229 305 c 1,34,35
 229 351 229 351 250 372 c 1,14,15
EndSplineSet
EndChar

StartChar: C
Encoding: 67 67 41
Width: 536
GlyphClass: 2
Flags: W
LayerCount: 2
Fore
SplineSet
303 655 m 0,0,1
 403 655 403 655 452 605.5 c 128,-1,2
 501 556 501 556 501 478 c 0,3,4
 501 465 501 465 498 453 c 1,5,6
 481 444 481 444 456.5 444 c 128,-1,7
 432 444 432 444 408 446 c 1,8,9
 409 454 409 454 409 467 c 0,10,11
 409 526 409 526 381 561 c 128,-1,12
 353 596 353 596 303 596 c 0,13,14
 137 596 137 596 137 327.5 c 128,-1,15
 137 59 137 59 303 59 c 0,16,17
 342 59 342 59 384 78 c 128,-1,18
 426 97 426 97 455 130 c 1,19,20
 486 105 486 105 495 51 c 1,21,22
 406 -15 406 -15 303 -15 c 0,23,24
 182 -15 182 -15 122 52 c 0,25,26
 72 107 72 107 60 220 c 0,27,28
 55 266 55 266 55 327 c 0,29,30
 55 655 55 655 303 655 c 0,0,1
EndSplineSet
EndChar

StartChar: D
Encoding: 68 68 42
Width: 607
GlyphClass: 2
Flags: W
LayerCount: 2
Fore
SplineSet
299 655 m 0,0,1
 373 655 373 655 426 627.5 c 128,-1,2
 479 600 479 600 508 552 c 0,3,4
 562 459 562 459 562 325 c 0,5,6
 562 139 562 139 488 56 c 1,7,8
 459 25 459 25 411 5 c 128,-1,9
 363 -15 363 -15 299 -15 c 0,10,11
 178 -15 178 -15 103 13 c 1,12,13
 117 130 117 130 117 330.5 c 128,-1,14
 117 531 117 531 100 627 c 1,15,16
 186 655 186 655 299 655 c 0,0,1
299 56 m 0,17,18
 476 56 476 56 476 325 c 0,19,20
 476 402 476 402 460 460 c 128,-1,21
 444 518 444 518 403 557 c 128,-1,22
 362 596 362 596 304.5 596 c 128,-1,23
 247 596 247 596 199 577 c 1,24,25
 192 497 192 497 192 332.5 c 128,-1,26
 192 168 192 168 200 77 c 1,27,28
 247 56 247 56 299 56 c 0,17,18
EndSplineSet
EndChar

StartChar: E
Encoding: 69 69 43
Width: 519
GlyphClass: 2
Flags: W
LayerCount: 2
Fore
SplineSet
195 76 m 1,0,1
 230 73 230 73 316 73 c 128,-1,2
 402 73 402 73 455 82 c 1,3,4
 463 56 463 56 463 31.5 c 128,-1,5
 463 7 463 7 459 -11 c 1,6,7
 440 -6 440 -6 379 -1.5 c 128,-1,8
 318 3 318 3 242 3 c 128,-1,9
 166 3 166 3 99 -4 c 1,10,11
 113 134 113 134 113 331 c 128,-1,12
 113 528 113 528 94 646 c 1,13,14
 161 639 161 639 238 639 c 128,-1,15
 315 639 315 639 375.5 643.5 c 128,-1,16
 436 648 436 648 454 653 c 1,17,18
 458 635 458 635 458 613 c 128,-1,19
 458 591 458 591 450 565 c 1,20,21
 397 574 397 574 313 574 c 128,-1,22
 229 574 229 574 194 571 c 1,23,24
 188 514 188 514 188 365 c 1,25,26
 209 364 209 364 289 364 c 128,-1,27
 369 364 369 364 419 375 c 1,28,29
 424 343 424 343 424 322.5 c 128,-1,30
 424 302 424 302 423 289 c 1,31,32
 376 297 376 297 304 297 c 128,-1,33
 232 297 232 297 188 295 c 1,34,35
 188 164 188 164 195 76 c 1,0,1
EndSplineSet
EndChar

StartChar: F
Encoding: 70 70 44
Width: 477
GlyphClass: 2
Flags: W
LayerCount: 2
Fore
SplineSet
411 283 m 1,0,1
 368 290 368 290 287 290 c 128,-1,2
 206 290 206 290 188 289 c 1,3,4
 190 47 190 47 205 2 c 1,5,6
 172 -8 172 -8 152.5 -8 c 128,-1,7
 133 -8 133 -8 99 -6 c 1,8,9
 113 111 113 111 113 319.5 c 128,-1,10
 113 528 113 528 94 646 c 1,11,12
 161 639 161 639 233 639 c 128,-1,13
 305 639 305 639 365.5 643.5 c 128,-1,14
 426 648 426 648 444 653 c 1,15,16
 448 635 448 635 448 613 c 128,-1,17
 448 591 448 591 440 565 c 1,18,19
 387 574 387 574 308 574 c 128,-1,20
 229 574 229 574 194 571 c 1,21,22
 188 511 188 511 188 351 c 1,23,-1
 232 351 l 2,24,25
 367 351 367 351 407 361 c 1,26,27
 412 333 412 333 412 314 c 128,-1,28
 412 295 412 295 411 283 c 1,0,1
EndSplineSet
EndChar

StartChar: G
Encoding: 71 71 45
Width: 570
GlyphClass: 2
Flags: W
LayerCount: 2
Fore
SplineSet
303 -15 m 0,0,1
 149 -15 149 -15 98 90 c 0,2,3
 73 142 73 142 64 196.5 c 128,-1,4
 55 251 55 251 55 317 c 128,-1,5
 55 383 55 383 62.5 430 c 128,-1,6
 70 477 70 477 88 519.5 c 128,-1,7
 106 562 106 562 134 592 c 0,8,9
 194 655 194 655 298.5 655 c 128,-1,10
 403 655 403 655 452 605.5 c 128,-1,11
 501 556 501 556 501 478 c 0,12,13
 501 466 501 466 498 453 c 1,14,15
 472 444 472 444 446 444 c 128,-1,16
 420 444 420 444 408 446 c 1,17,18
 409 454 409 454 409 467 c 0,19,20
 409 526 409 526 381 561 c 128,-1,21
 353 596 353 596 303 596 c 0,22,23
 217 596 217 596 177 523 c 128,-1,24
 137 450 137 450 137 326 c 0,25,26
 137 133 137 133 218 81 c 0,27,28
 253 59 253 59 303 59 c 0,29,30
 385 59 385 59 440 105 c 1,31,32
 439 185 439 185 433 242 c 1,33,34
 317 240 317 240 272 231 c 1,35,36
 267 263 267 263 267 283.5 c 128,-1,37
 267 304 267 304 268 317 c 1,38,39
 315 309 315 309 394.5 309 c 128,-1,40
 474 309 474 309 515 312 c 1,41,42
 505 212 505 212 505 51 c 1,43,44
 416 -15 416 -15 303 -15 c 0,0,1
EndSplineSet
EndChar

StartChar: H
Encoding: 72 72 46
Width: 647
GlyphClass: 2
Flags: W
LayerCount: 2
Fore
SplineSet
460 281 m 1,0,1
 396 288 396 288 315 288 c 128,-1,2
 234 288 234 288 185 281 c 1,3,4
 187 47 187 47 202 2 c 1,5,6
 169 -8 169 -8 149.5 -8 c 128,-1,7
 130 -8 130 -8 96 -6 c 1,8,9
 110 111 110 111 110 327 c 128,-1,10
 110 543 110 543 93 639 c 1,11,12
 119 649 119 649 145 649 c 128,-1,13
 171 649 171 649 199 647 c 1,14,15
 185 535 185 535 185 359 c 1,16,17
 239 353 239 353 315 353 c 128,-1,18
 391 353 391 353 460 361 c 1,19,20
 458 552 458 552 443 639 c 1,21,22
 469 649 469 649 495 649 c 128,-1,23
 521 649 521 649 549 647 c 1,24,25
 535 536 535 536 535 296 c 128,-1,26
 535 56 535 56 552 2 c 1,27,28
 519 -8 519 -8 499.5 -8 c 128,-1,29
 480 -8 480 -8 446 -6 c 1,30,31
 458 95 458 95 460 281 c 1,0,1
EndSplineSet
EndChar

StartChar: I
Encoding: 73 73 47
Width: 317
GlyphClass: 2
Flags: W
LayerCount: 2
Fore
SplineSet
106 -6 m 1,0,1
 120 111 120 111 120 327 c 128,-1,2
 120 543 120 543 103 639 c 1,3,4
 129 649 129 649 155 649 c 128,-1,5
 181 649 181 649 209 647 c 1,6,7
 195 536 195 536 195 296 c 128,-1,8
 195 56 195 56 212 2 c 1,9,10
 179 -8 179 -8 151 -8 c 128,-1,11
 123 -8 123 -8 106 -6 c 1,0,1
EndSplineSet
EndChar

StartChar: J
Encoding: 74 74 48
Width: 283
GlyphClass: 2
Flags: W
LayerCount: 2
Fore
SplineSet
22 -106 m 0,0,1
 64 -106 64 -106 81 -76 c 0,2,3
 101 -41 101 -41 104 -3 c 0,4,5
 108 46 108 46 108 121 c 0,6,7
 108 543 108 543 91 639 c 1,8,9
 117 649 117 649 143 649 c 128,-1,10
 169 649 169 649 197 647 c 1,11,12
 183 536 183 536 183 102 c 0,13,14
 183 -13 183 -13 170.5 -62.5 c 128,-1,15
 158 -112 158 -112 140 -134 c 0,16,17
 103 -180 103 -180 24 -180 c 0,18,19
 -10 -180 -10 -180 -49 -167.5 c 128,-1,20
 -88 -155 -88 -155 -116 -134 c 1,21,22
 -112 -110 -112 -110 -102 -90 c 128,-1,23
 -92 -70 -92 -70 -84 -62 c 2,24,-1
 -76 -55 l 1,25,26
 -38 -106 -38 -106 22 -106 c 0,0,1
EndSplineSet
EndChar

StartChar: K
Encoding: 75 75 49
Width: 534
GlyphClass: 2
Flags: W
LayerCount: 2
Fore
SplineSet
417 648 m 1,0,1
 424 649 424 649 447 649 c 128,-1,2
 470 649 470 649 503 632 c 1,3,4
 371 464 371 464 290 339 c 1,5,6
 386 185 386 185 530 5 c 1,7,8
 496 -12 496 -12 462.5 -12 c 128,-1,9
 429 -12 429 -12 418 -11 c 1,10,11
 376 64 376 64 301.5 177.5 c 128,-1,12
 227 291 227 291 209 319 c 1,13,14
 228 349 228 349 276 418 c 0,15,16
 379 566 379 566 417 648 c 1,0,1
96 -6 m 1,17,18
 110 111 110 111 110 327 c 128,-1,19
 110 543 110 543 93 639 c 1,20,21
 119 649 119 649 144 649 c 128,-1,22
 169 649 169 649 180 648 c 128,-1,23
 191 647 191 647 199 647 c 1,24,25
 185 536 185 536 185 296 c 128,-1,26
 185 56 185 56 202 2 c 1,27,28
 169 -8 169 -8 141 -8 c 128,-1,29
 113 -8 113 -8 96 -6 c 1,17,18
EndSplineSet
EndChar

StartChar: L
Encoding: 76 76 50
Width: 443
GlyphClass: 2
Flags: W
LayerCount: 2
Fore
SplineSet
97 -4 m 1,0,1
 111 134 111 134 111 338.5 c 128,-1,2
 111 543 111 543 94 639 c 1,3,4
 120 649 120 649 146 649 c 128,-1,5
 172 649 172 649 200 647 c 1,6,7
 186 536 186 536 186 348.5 c 128,-1,8
 186 161 186 161 193 76 c 1,9,10
 228 73 228 73 299 73 c 128,-1,11
 370 73 370 73 423 82 c 1,12,13
 431 56 431 56 431 31.5 c 128,-1,14
 431 7 431 7 427 -11 c 1,15,16
 408 -6 408 -6 347 -1.5 c 128,-1,17
 286 3 286 3 225 3 c 128,-1,18
 164 3 164 3 97 -4 c 1,0,1
EndSplineSet
EndChar

StartChar: M
Encoding: 77 77 51
Width: 768
GlyphClass: 2
Flags: W
LayerCount: 2
Fore
SplineSet
96 -6 m 1,0,1
 110 111 110 111 110 327 c 128,-1,2
 110 543 110 543 93 639 c 1,3,4
 119 649 119 649 137.5 649 c 128,-1,5
 156 649 156 649 184 647 c 1,6,7
 201 555 201 555 386 210 c 1,8,9
 537 505 537 505 563 639 c 1,10,11
 589 649 589 649 615 649 c 128,-1,12
 641 649 641 649 669 647 c 1,13,14
 655 536 655 536 655 296 c 128,-1,15
 655 56 655 56 672 2 c 1,16,17
 639 -8 639 -8 619.5 -8 c 128,-1,18
 600 -8 600 -8 566 -6 c 1,19,20
 580 111 580 111 580 266 c 128,-1,21
 580 421 580 421 578 466 c 1,22,23
 447 201 447 201 413 117 c 1,24,25
 386 109 386 109 370 109 c 128,-1,26
 354 109 354 109 340 110 c 1,27,28
 311 184 311 184 276.5 248 c 128,-1,29
 242 312 242 312 211.5 367 c 128,-1,30
 181 422 181 422 170 443 c 1,31,-1
 170 338 l 2,32,33
 170 56 170 56 187 2 c 1,34,35
 157 -8 157 -8 143.5 -8 c 128,-1,36
 130 -8 130 -8 96 -6 c 1,0,1
EndSplineSet
EndChar

StartChar: N
Encoding: 78 78 52
Width: 650
GlyphClass: 2
Flags: W
LayerCount: 2
Fore
SplineSet
97 -6 m 1,0,1
 111 111 111 111 111 327 c 128,-1,2
 111 543 111 543 94 639 c 1,3,4
 120 649 120 649 138.5 649 c 128,-1,5
 157 649 157 649 185 647 c 1,6,7
 204 575 204 575 294.5 428.5 c 128,-1,8
 385 282 385 282 483 145 c 1,9,10
 486 229 486 229 486 307 c 0,11,12
 486 543 486 543 469 639 c 1,13,14
 495 649 495 649 513.5 649 c 128,-1,15
 532 649 532 649 560 647 c 1,16,17
 546 536 546 536 546 296 c 128,-1,18
 546 56 546 56 563 2 c 1,19,20
 533 -8 533 -8 519.5 -8 c 128,-1,21
 506 -8 506 -8 472 -6 c 1,22,23
 465 25 465 25 413 106.5 c 128,-1,24
 361 188 361 188 283.5 301 c 128,-1,25
 206 414 206 414 172 470 c 1,26,27
 171 427 171 427 171 338 c 0,28,29
 171 56 171 56 188 2 c 1,30,31
 158 -8 158 -8 144.5 -8 c 128,-1,32
 131 -8 131 -8 97 -6 c 1,0,1
EndSplineSet
EndChar

StartChar: O
Encoding: 79 79 53
Width: 601
GlyphClass: 2
Flags: W
LayerCount: 2
Fore
SplineSet
55 327 m 0,0,1
 55 655 55 655 300.5 655 c 128,-1,2
 546 655 546 655 546 327 c 0,3,4
 546 267 546 267 541.5 222 c 128,-1,5
 537 177 537 177 521.5 130 c 128,-1,6
 506 83 506 83 480 53 c 128,-1,7
 454 23 454 23 408.5 4 c 128,-1,8
 363 -15 363 -15 300.5 -15 c 128,-1,9
 238 -15 238 -15 192.5 4 c 128,-1,10
 147 23 147 23 121 53 c 128,-1,11
 95 83 95 83 79.5 130 c 128,-1,12
 64 177 64 177 59.5 222 c 128,-1,13
 55 267 55 267 55 327 c 0,0,1
216 81 m 0,14,15
 250 59 250 59 300.5 59 c 128,-1,16
 351 59 351 59 385.5 81 c 128,-1,17
 420 103 420 103 437 144 c 0,18,19
 467 215 467 215 467 326 c 0,20,21
 467 596 467 596 300.5 596 c 128,-1,22
 134 596 134 596 134 326 c 0,23,24
 134 133 134 133 216 81 c 0,14,15
EndSplineSet
EndChar

StartChar: P
Encoding: 80 80 54
Width: 531
GlyphClass: 2
Flags: W
LayerCount: 2
Fore
SplineSet
249 331 m 1,0,1
 278 302 278 302 318.5 302 c 128,-1,2
 359 302 359 302 384 327 c 0,3,4
 424 368 424 368 424 449 c 0,5,6
 424 598 424 598 292 598 c 0,7,8
 250 598 250 598 198 576 c 1,9,10
 191 497 191 497 191 276.5 c 128,-1,11
 191 56 191 56 208 2 c 1,12,13
 175 -8 175 -8 147 -8 c 128,-1,14
 119 -8 119 -8 102 -6 c 1,15,16
 116 111 116 111 116 321 c 128,-1,17
 116 531 116 531 99 627 c 1,18,19
 183 655 183 655 297 655 c 128,-1,20
 411 655 411 655 461 601.5 c 128,-1,21
 511 548 511 548 511 451.5 c 128,-1,22
 511 355 511 355 460.5 295 c 128,-1,23
 410 235 410 235 307 235 c 0,24,25
 267 235 267 235 228 250 c 1,26,27
 228 277 228 277 235 300 c 128,-1,28
 242 323 242 323 249 331 c 1,0,1
EndSplineSet
EndChar

StartChar: Q
Encoding: 81 81 55
Width: 601
GlyphClass: 2
Flags: W
LayerCount: 2
Fore
SplineSet
55 327 m 0,0,1
 55 655 55 655 300.5 655 c 128,-1,2
 546 655 546 655 546 327 c 0,3,4
 546 259 546 259 539.5 209 c 128,-1,5
 533 159 533 159 514 110 c 0,6,7
 477 10 477 10 361 -10 c 1,8,9
 440 -114 440 -114 464 -145 c 1,10,11
 430 -162 430 -162 397 -162 c 128,-1,12
 364 -162 364 -162 353 -161 c 1,13,14
 325 -102 325 -102 266 -13 c 1,15,16
 163 -3 163 -3 112 64 c 0,17,18
 69 122 69 122 59 227 c 0,19,20
 55 270 55 270 55 327 c 0,0,1
216 81 m 0,21,22
 250 59 250 59 300.5 59 c 128,-1,23
 351 59 351 59 385.5 81 c 128,-1,24
 420 103 420 103 437 144 c 0,25,26
 467 215 467 215 467 326 c 0,27,28
 467 596 467 596 300.5 596 c 128,-1,29
 134 596 134 596 134 326 c 0,30,31
 134 133 134 133 216 81 c 0,21,22
EndSplineSet
EndChar

StartChar: R
Encoding: 82 82 56
Width: 564
GlyphClass: 2
Flags: W
LayerCount: 2
Fore
SplineSet
249 349 m 1,0,1
 278 322 278 322 318.5 322 c 128,-1,2
 359 322 359 322 384 346 c 0,3,4
 424 384 424 384 424 459 c 0,5,6
 424 598 424 598 292 598 c 0,7,8
 250 598 250 598 198 578 c 1,9,10
 191 498 191 498 191 277 c 128,-1,11
 191 56 191 56 208 2 c 1,12,13
 175 -8 175 -8 147 -8 c 128,-1,14
 119 -8 119 -8 102 -6 c 1,15,16
 116 111 116 111 116 321 c 128,-1,17
 116 531 116 531 99 627 c 1,18,19
 183 655 183 655 293 655 c 0,20,21
 511 655 511 655 511 459 c 0,22,23
 511 385 511 385 474 332 c 128,-1,24
 437 279 437 279 362 265 c 1,25,26
 468 96 468 96 538 5 c 1,27,28
 504 -12 504 -12 471 -12 c 128,-1,29
 438 -12 438 -12 427 -11 c 1,30,31
 374 101 374 101 271 263 c 1,32,33
 251 266 251 266 228 274 c 1,34,35
 228 299 228 299 235 320.5 c 128,-1,36
 242 342 242 342 249 349 c 1,0,1
EndSplineSet
EndChar

StartChar: S
Encoding: 83 83 57
Width: 477
GlyphClass: 2
Flags: W
LayerCount: 2
Fore
SplineSet
171.5 73.5 m 128,-1,1
 215 49 215 49 266 49 c 128,-1,2
 317 49 317 49 343.5 77 c 128,-1,3
 370 105 370 105 370 145 c 128,-1,4
 370 185 370 185 338 217 c 128,-1,5
 306 249 306 249 260.5 272 c 128,-1,6
 215 295 215 295 170 320.5 c 128,-1,7
 125 346 125 346 93 389 c 128,-1,8
 61 432 61 432 61 497 c 128,-1,9
 61 562 61 562 107.5 608.5 c 128,-1,10
 154 655 154 655 253 655 c 128,-1,11
 352 655 352 655 398.5 606 c 128,-1,12
 445 557 445 557 445 478 c 0,13,14
 445 466 445 466 442 453 c 1,15,16
 416 444 416 444 390 444 c 128,-1,17
 364 444 364 444 352 446 c 1,18,19
 353 454 353 454 353 467 c 0,20,21
 353 525 353 525 322.5 560.5 c 128,-1,22
 292 596 292 596 246 596 c 128,-1,23
 200 596 200 596 173.5 571.5 c 128,-1,24
 147 547 147 547 147 502.5 c 128,-1,25
 147 458 147 458 178.5 425.5 c 128,-1,26
 210 393 210 393 255.5 369 c 128,-1,27
 301 345 301 345 346.5 318.5 c 128,-1,28
 392 292 392 292 423.5 247.5 c 128,-1,29
 455 203 455 203 455 137.5 c 128,-1,30
 455 72 455 72 401.5 28.5 c 128,-1,31
 348 -15 348 -15 270 -15 c 0,32,33
 129 -15 129 -15 48 61 c 1,34,35
 52 85 52 85 64.5 105 c 128,-1,36
 77 125 77 125 88 132 c 1,37,-1
 98 140 l 1,38,0
 128 98 128 98 171.5 73.5 c 128,-1,1
EndSplineSet
EndChar

StartChar: T
Encoding: 84 84 58
Width: 481
GlyphClass: 2
Flags: W
LayerCount: 2
Fore
SplineSet
280 574 m 1,0,1
 275 496 275 496 275 276 c 128,-1,2
 275 56 275 56 292 2 c 1,3,4
 259 -8 259 -8 231 -8 c 128,-1,5
 203 -8 203 -8 186 -6 c 1,6,7
 200 111 200 111 200 300.5 c 128,-1,8
 200 490 200 490 193 574 c 1,9,10
 56 568 56 568 16 560 c 1,11,12
 12 574 12 574 12 598 c 128,-1,13
 12 622 12 622 20 648 c 1,14,15
 94 639 94 639 199 639 c 0,16,17
 411 639 411 639 461 653 c 1,18,19
 465 635 465 635 465 613 c 128,-1,20
 465 591 465 591 457 565 c 1,21,22
 380 572 380 572 280 574 c 1,0,1
EndSplineSet
EndChar

StartChar: U
Encoding: 85 85 59
Width: 644
GlyphClass: 2
Flags: W
LayerCount: 2
Fore
SplineSet
546 277 m 0,0,1
 546 217 546 217 542 176.5 c 128,-1,2
 538 136 538 136 524.5 97 c 128,-1,3
 511 58 511 58 487 35 c 0,4,5
 435 -15 435 -15 325 -15 c 0,6,7
 184 -15 184 -15 140 64 c 1,8,9
 118 106 118 106 110.5 154 c 128,-1,10
 103 202 103 202 103 277 c 0,11,12
 103 543 103 543 86 639 c 1,13,14
 112 649 112 649 138 649 c 128,-1,15
 164 649 164 649 192 647 c 1,16,17
 178 536 178 536 178 276 c 0,18,19
 178 164 178 164 209 111.5 c 128,-1,20
 240 59 240 59 332 59 c 128,-1,21
 424 59 424 59 453.5 111.5 c 128,-1,22
 483 164 483 164 483 276 c 0,23,24
 483 543 483 543 466 639 c 1,25,26
 492 649 492 649 512 649 c 128,-1,27
 532 649 532 649 560 647 c 1,28,29
 546 536 546 536 546 277 c 0,0,1
EndSplineSet
EndChar

StartChar: V
Encoding: 86 86 60
Width: 570
GlyphClass: 2
Flags: W
LayerCount: 2
Fore
SplineSet
337 0 m 1,0,1
 301 -9 301 -9 271.5 -9 c 128,-1,2
 242 -9 242 -9 233 -8 c 1,3,4
 191 142 191 142 128.5 334.5 c 128,-1,5
 66 527 66 527 21 629 c 1,6,7
 63 649 63 649 95 649 c 128,-1,8
 127 649 127 649 138 648 c 1,9,10
 152 541 152 541 197 373 c 128,-1,11
 242 205 242 205 290 87 c 1,12,-1
 296 87 l 1,13,14
 339 193 339 193 386.5 376 c 128,-1,15
 434 559 434 559 438 642 c 1,16,17
 452 645 452 645 466 645 c 0,18,19
 515 645 515 645 547 625 c 1,20,21
 519 557 519 557 440.5 328.5 c 128,-1,22
 362 100 362 100 337 0 c 1,0,1
EndSplineSet
EndChar

StartChar: W
Encoding: 87 87 61
Width: 814
GlyphClass: 2
Flags: W
LayerCount: 2
Fore
SplineSet
307 0 m 1,0,1
 271 -9 271 -9 241.5 -9 c 128,-1,2
 212 -9 212 -9 203 -8 c 1,3,4
 191 34 191 34 154 180 c 0,5,6
 70 519 70 519 21 629 c 1,7,8
 63 649 63 649 95 649 c 128,-1,9
 127 649 127 649 138 648 c 1,10,11
 184 297 184 297 260 87 c 1,12,-1
 266 87 l 1,13,14
 297 163 297 163 325.5 297.5 c 128,-1,15
 354 432 354 432 369 550 c 1,16,17
 399 562 399 562 418.5 562 c 128,-1,18
 438 562 438 562 454 560 c 1,19,20
 499 256 499 256 564 87 c 1,21,-1
 570 87 l 1,22,23
 609 198 609 198 643 373.5 c 128,-1,24
 677 549 677 549 682 642 c 1,25,26
 696 645 696 645 710 645 c 0,27,28
 759 645 759 645 791 625 c 1,29,30
 773 580 773 580 707.5 351 c 128,-1,31
 642 122 642 122 611 0 c 1,32,33
 575 -9 575 -9 545.5 -9 c 128,-1,34
 516 -9 516 -9 507 -8 c 1,35,36
 493 40 493 40 459.5 173 c 128,-1,37
 426 306 426 306 410 367 c 1,38,-1
 405 367 l 1,39,40
 338 124 338 124 307 0 c 1,0,1
EndSplineSet
EndChar

StartChar: X
Encoding: 88 88 62
Width: 537
GlyphClass: 2
Flags: W
LayerCount: 2
Fore
SplineSet
398 648 m 1,0,1
 406 649 406 649 437 649 c 128,-1,2
 468 649 468 649 505 632 c 1,3,4
 390 470 390 470 315 331 c 1,5,6
 415 154 415 154 515 9 c 1,7,8
 486 -8 486 -8 433 -8 c 0,9,10
 413 -8 413 -8 402 -7 c 1,11,12
 325 149 325 149 261 264 c 1,13,14
 171 114 171 114 126 -7 c 1,15,16
 118 -8 118 -8 87 -8 c 128,-1,17
 56 -8 56 -8 19 9 c 1,18,19
 147 190 147 190 223 330 c 1,20,21
 125 501 125 501 37 632 c 1,22,23
 71 649 71 649 104.5 649 c 128,-1,24
 138 649 138 649 149 648 c 1,25,26
 209 524 209 524 280 394 c 1,27,28
 339 489 339 489 398 648 c 1,0,1
EndSplineSet
EndChar

StartChar: Y
Encoding: 89 89 63
Width: 466
GlyphClass: 2
Flags: W
LayerCount: 2
Fore
SplineSet
1 634 m 1,0,1
 41 651 41 651 73.5 651 c 128,-1,2
 106 651 106 651 117 650 c 1,3,4
 123 575 123 575 164 478 c 0,5,6
 180 442 180 442 206.5 383 c 128,-1,7
 233 324 233 324 246 293 c 1,8,-1
 250 293 l 1,9,10
 285 360 285 360 320.5 469.5 c 128,-1,11
 356 579 356 579 360 649 c 1,12,13
 378 651 378 651 387 651 c 0,14,15
 434 651 434 651 465 634 c 1,16,17
 464 631 464 631 431.5 560.5 c 128,-1,18
 399 490 399 490 374 434 c 0,19,20
 299 266 299 266 281 194 c 1,21,22
 286 31 286 31 297 2 c 1,23,24
 264 -8 264 -8 236 -8 c 128,-1,25
 208 -8 208 -8 191 -6 c 1,26,27
 201 76 201 76 204 197 c 1,28,29
 181 270 181 270 136.5 362.5 c 128,-1,30
 92 455 92 455 52.5 532.5 c 128,-1,31
 13 610 13 610 1 634 c 1,0,1
EndSplineSet
EndChar

StartChar: Z
Encoding: 90 90 64
Width: 486
GlyphClass: 2
Flags: W
LayerCount: 2
Fore
SplineSet
270 573 m 2,0,1
 129 573 129 573 54 553 c 1,2,3
 45 583 45 583 45 601 c 128,-1,4
 45 619 45 619 51 646 c 1,5,6
 103 639 103 639 250 639 c 128,-1,7
 397 639 397 639 451 645 c 1,8,9
 456 635 456 635 456 607 c 1,10,11
 413 526 413 526 296 320 c 128,-1,12
 179 114 179 114 158 76 c 1,13,14
 204 73 204 73 298 73 c 128,-1,15
 392 73 392 73 445 82 c 1,16,17
 453 56 453 56 453 31.5 c 128,-1,18
 453 7 453 7 449 -11 c 1,19,20
 431 -6 431 -6 350 -1.5 c 128,-1,21
 269 3 269 3 186.5 3 c 128,-1,22
 104 3 104 3 37 -4 c 1,23,24
 31 11 31 11 30 32 c 1,25,26
 72 98 72 98 187.5 297.5 c 128,-1,27
 303 497 303 497 350 573 c 1,28,-1
 270 573 l 2,0,1
EndSplineSet
EndChar

StartChar: bracketleft
Encoding: 91 91 65
Width: 329
GlyphClass: 2
Flags: W
LayerCount: 2
Fore
SplineSet
301 16 m 1,0,1
 309 -10 309 -10 309 -32 c 128,-1,2
 309 -54 309 -54 305 -72 c 1,3,4
 259 -60 259 -60 191 -60 c 128,-1,5
 123 -60 123 -60 75 -65 c 1,6,7
 91 69 91 69 91 347 c 128,-1,8
 91 625 91 625 75 724 c 1,9,10
 123 719 123 719 191 719 c 128,-1,11
 259 719 259 719 305 731 c 1,12,13
 309 713 309 713 309 691 c 128,-1,14
 309 669 309 669 301 643 c 1,15,16
 254 651 254 651 175 651 c 1,17,18
 169 588 169 588 169 327.5 c 128,-1,19
 169 67 169 67 175 8 c 1,20,21
 254 8 254 8 301 16 c 1,0,1
EndSplineSet
EndChar

StartChar: backslash
Encoding: 92 92 66
Width: 566
GlyphClass: 2
Flags: W
LayerCount: 2
Fore
SplineSet
96 670 m 1,0,1
 125 688 125 688 151.5 688 c 128,-1,2
 178 688 178 688 187 687 c 1,3,4
 333 280 333 280 485 -27 c 1,5,6
 458 -46 458 -46 419 -46 c 0,7,8
 412 -46 412 -46 394 -44 c 1,9,10
 244 378 244 378 96 670 c 1,0,1
EndSplineSet
EndChar

StartChar: bracketright
Encoding: 93 93 67
Width: 329
GlyphClass: 2
Flags: W
LayerCount: 2
Fore
SplineSet
28 643 m 1,0,1
 20 669 20 669 20 691 c 128,-1,2
 20 713 20 713 24 731 c 1,3,4
 70 719 70 719 138 719 c 128,-1,5
 206 719 206 719 254 724 c 1,6,7
 238 590 238 590 238 312 c 128,-1,8
 238 34 238 34 254 -65 c 1,9,10
 206 -60 206 -60 138 -60 c 128,-1,11
 70 -60 70 -60 24 -72 c 1,12,13
 20 -54 20 -54 20 -32 c 128,-1,14
 20 -10 20 -10 28 16 c 1,15,16
 75 8 75 8 154 8 c 1,17,18
 160 71 160 71 160 331.5 c 128,-1,19
 160 592 160 592 154 651 c 1,20,21
 75 651 75 651 28 643 c 1,0,1
EndSplineSet
EndChar

StartChar: asciicircum
Encoding: 94 94 68
Width: 601
GlyphClass: 2
Flags: W
LayerCount: 2
Fore
SplineSet
229 622 m 1,0,1
 241 628 241 628 270.5 628 c 128,-1,2
 300 628 300 628 313 622 c 1,3,4
 336 563 336 563 395 453 c 1,5,6
 444 354 444 354 462 329 c 1,7,8
 455 323 455 323 434 312 c 128,-1,9
 413 301 413 301 398 299 c 1,10,11
 370 367 370 367 343 415 c 1,12,13
 285 524 285 524 271 547 c 1,14,15
 195 418 195 418 144 299 c 1,16,17
 129 301 129 301 108 312 c 128,-1,18
 87 323 87 323 80 329 c 1,19,20
 100 359 100 359 147 453 c 1,21,22
 206 563 206 563 229 622 c 1,0,1
EndSplineSet
EndChar

StartChar: underscore
Encoding: 95 95 69
Width: 502
GlyphClass: 2
Flags: W
LayerCount: 2
Fore
SplineSet
474 -89 m 1,0,1
 376 -80 376 -80 276.5 -80 c 128,-1,2
 177 -80 177 -80 110 -85 c 128,-1,3
 43 -90 43 -90 24 -94 c 1,4,5
 20 -80 20 -80 20 -56 c 128,-1,6
 20 -32 20 -32 28 -6 c 1,7,8
 102 -15 102 -15 203 -15 c 128,-1,9
 304 -15 304 -15 382 -10.5 c 128,-1,10
 460 -6 460 -6 478 -1 c 1,11,12
 482 -19 482 -19 482 -41 c 128,-1,13
 482 -63 482 -63 474 -89 c 1,0,1
EndSplineSet
EndChar

StartChar: grave
Encoding: 96 96 70
Width: 424
GlyphClass: 2
Flags: W
LayerCount: 2
Fore
SplineSet
294 528 m 1,0,1
 170 579 170 579 110 603 c 1,2,3
 111 631 111 631 120 647.5 c 128,-1,4
 129 664 129 664 150 682 c 1,5,6
 196 643 196 643 245.5 610.5 c 128,-1,7
 295 578 295 578 314 565 c 1,8,9
 309 544 309 544 294 528 c 1,0,1
EndSplineSet
EndChar

StartChar: a
Encoding: 97 97 71
Width: 473
GlyphClass: 2
Flags: W
LayerCount: 2
Fore
SplineSet
209 219 m 0,0,1
 173 219 173 219 150.5 199.5 c 128,-1,2
 128 180 128 180 128 139 c 0,3,4
 128 57 128 57 199 57 c 0,5,6
 227 57 227 57 256 71 c 128,-1,7
 285 85 285 85 301 104 c 1,8,9
 306 167 306 167 306 184 c 1,10,11
 265 219 265 219 209 219 c 0,0,1
388 345 m 1,12,-1
 384 201 l 1,13,14
 384 118 384 118 401 3 c 1,15,16
 371 -6 371 -6 349 -6 c 128,-1,17
 327 -6 327 -6 307 -4 c 1,18,-1
 304 44 l 1,19,20
 228 -15 228 -15 169.5 -15 c 128,-1,21
 111 -15 111 -15 80.5 22.5 c 128,-1,22
 50 60 50 60 50 129.5 c 128,-1,23
 50 199 50 199 95.5 235 c 128,-1,24
 141 271 141 271 203 271 c 128,-1,25
 265 271 265 271 310 247 c 1,26,27
 311 267 311 267 311 291 c 128,-1,28
 311 315 311 315 309.5 333 c 128,-1,29
 308 351 308 351 300 375 c 0,30,31
 286 422 286 422 227 422 c 0,32,33
 153 422 153 422 153 341 c 1,34,-1
 154 324 l 1,35,36
 132 322 132 322 113 322 c 128,-1,37
 94 322 94 322 68 330 c 1,38,39
 66 346 66 346 66 353 c 0,40,41
 66 416 66 416 112 447 c 128,-1,42
 158 478 158 478 231.5 478 c 128,-1,43
 305 478 305 478 346.5 444.5 c 128,-1,44
 388 411 388 411 388 345 c 1,12,-1
EndSplineSet
EndChar

StartChar: b
Encoding: 98 98 72
Width: 481
GlyphClass: 2
Flags: W
LayerCount: 2
Fore
SplineSet
57 11 m 1,0,1
 72 147 72 147 72 314.5 c 128,-1,2
 72 482 72 482 68.5 549 c 128,-1,3
 65 616 65 616 54 672 c 1,4,5
 80 682 80 682 106 682 c 128,-1,6
 132 682 132 682 160 680 c 1,7,8
 145 552 145 552 145 410 c 1,9,10
 215 478 215 478 285.5 478 c 128,-1,11
 356 478 356 478 393.5 421 c 128,-1,12
 431 364 431 364 431 258 c 0,13,14
 431 117 431 117 382.5 51 c 128,-1,15
 334 -15 334 -15 230 -15 c 0,16,17
 165 -15 165 -15 57 11 c 1,0,1
346 271 m 0,18,19
 346 414 346 414 261 414 c 0,20,21
 202 414 202 414 145 349 c 1,22,-1
 145 80 l 1,23,24
 192 57 192 57 242 57 c 0,25,26
 346 57 346 57 346 271 c 0,18,19
EndSplineSet
EndChar

StartChar: c
Encoding: 99 99 73
Width: 430
GlyphClass: 2
Flags: W
LayerCount: 2
Fore
SplineSet
229 478 m 0,0,1
 293 478 293 478 338.5 446 c 128,-1,2
 384 414 384 414 384 353 c 0,3,4
 384 346 384 346 382 330 c 1,5,6
 356 322 356 322 337 322 c 128,-1,7
 318 322 318 322 296 324 c 1,8,9
 297 331 297 331 297 343 c 0,10,11
 297 376 297 376 277.5 399 c 128,-1,12
 258 422 258 422 222 422 c 0,13,14
 127 422 127 422 127 239.5 c 128,-1,15
 127 57 127 57 231 57 c 0,16,17
 281 57 281 57 353 119 c 1,18,19
 382 89 382 89 390 40 c 1,20,21
 307 -15 307 -15 224 -15 c 0,22,23
 123 -15 123 -15 84 53.5 c 128,-1,24
 45 122 45 122 45 234.5 c 128,-1,25
 45 347 45 347 88 412.5 c 128,-1,26
 131 478 131 478 229 478 c 0,0,1
EndSplineSet
EndChar

StartChar: d
Encoding: 100 100 74
Width: 499
GlyphClass: 2
Flags: W
LayerCount: 2
Fore
SplineSet
338 390 m 1,0,1
 275 419 275 419 238.5 419 c 128,-1,2
 202 419 202 419 180.5 400 c 128,-1,3
 159 381 159 381 150 348 c 0,4,5
 135 292 135 292 135 220 c 0,6,7
 135 62 135 62 220 62 c 0,8,9
 250 62 250 62 282 79.5 c 128,-1,10
 314 97 314 97 336 122 c 1,11,12
 338 205 338 205 338 390 c 1,0,1
426 680 m 1,13,14
 411 551 411 551 411 369 c 128,-1,15
 411 187 411 187 414 136 c 128,-1,16
 417 85 417 85 429 7 c 1,17,18
 398 -3 398 -3 369 -3 c 128,-1,19
 340 -3 340 -3 331 -2 c 1,20,-1
 333 50 l 1,21,22
 264 -15 264 -15 191 -15 c 0,23,24
 148 -15 148 -15 118.5 8.5 c 128,-1,25
 89 32 89 32 75 71 c 0,26,27
 50 141 50 141 50 225 c 0,28,29
 50 478 50 478 234 478 c 0,30,31
 284 478 284 478 337 454 c 1,32,33
 335 590 335 590 320 672 c 1,34,35
 342 682 342 682 395 682 c 0,36,37
 401 682 401 682 411.5 681 c 128,-1,38
 422 680 422 680 426 680 c 1,13,14
EndSplineSet
EndChar

StartChar: e
Encoding: 101 101 75
Width: 451
GlyphClass: 2
Flags: W
LayerCount: 2
Fore
SplineSet
388 246 m 1,0,1
 313 222 313 222 238.5 222 c 128,-1,2
 164 222 164 222 127 227 c 1,3,4
 127 137 127 137 156 96 c 0,5,6
 183 57 183 57 240 57 c 128,-1,7
 297 57 297 57 364 119 c 1,8,9
 393 89 393 89 401 40 c 1,10,11
 320 -15 320 -15 232 -15 c 0,12,13
 127 -15 127 -15 86 53.5 c 128,-1,14
 45 122 45 122 45 235 c 128,-1,15
 45 348 45 348 90.5 413 c 128,-1,16
 136 478 136 478 239 478 c 0,17,18
 311 478 311 478 354.5 434.5 c 128,-1,19
 398 391 398 391 398.5 331.5 c 128,-1,20
 399 272 399 272 388 246 c 1,0,1
232 422 m 0,21,22
 140 422 140 422 128 285 c 1,23,24
 171 280 171 280 225.5 280 c 128,-1,25
 280 280 280 280 311 290 c 1,26,27
 315 326 315 326 315 327 c 0,28,29
 315 366 315 366 295 394 c 128,-1,30
 275 422 275 422 232 422 c 0,21,22
EndSplineSet
EndChar

StartChar: f
Encoding: 102 102 76
Width: 331
GlyphClass: 2
Flags: W
LayerCount: 2
Fore
SplineSet
100 208 m 2,0,-1
 97 408 l 1,1,2
 57 408 57 408 40 407 c 1,3,4
 34 423 34 423 34 438.5 c 128,-1,5
 34 454 34 454 36 462 c 1,6,-1
 94 462 l 1,7,8
 93 475 93 475 93 502 c 0,9,10
 93 675 93 675 232 675 c 0,11,12
 290 675 290 675 335 644 c 1,13,14
 335 587 335 587 302 561 c 1,15,16
 271 615 271 615 228 615 c 0,17,18
 166 615 166 615 166 496 c 0,19,20
 166 474 166 474 167 463 c 1,21,22
 251 465 251 465 292 469 c 1,23,24
 298 456 298 456 298 440.5 c 128,-1,25
 298 425 298 425 294 403 c 1,26,27
 256 405 256 405 172 407 c 1,28,-1
 172 313 l 1,29,-1
 173 237 l 1,30,31
 173 98 173 98 191 6 c 1,32,33
 157 -4 157 -4 130 -4 c 128,-1,34
 103 -4 103 -4 85 0 c 1,35,36
 100 155 100 155 100 208 c 2,0,-1
EndSplineSet
EndChar

StartChar: g
Encoding: 103 103 77
Width: 466
GlyphClass: 2
Flags: W
LayerCount: 2
Fore
SplineSet
220 478 m 0,0,1
 270 478 270 478 307 462 c 1,2,-1
 307 478 l 2,3,4
 307 518 307 518 323.5 538 c 128,-1,5
 340 558 340 558 381 558 c 0,6,7
 388 558 388 558 406 556 c 1,8,9
 408 540 408 540 408 523.5 c 128,-1,10
 408 507 408 507 402 475 c 1,11,12
 395 476 395 476 380 476 c 128,-1,13
 365 476 365 476 358 466.5 c 128,-1,14
 351 457 351 457 350 435 c 1,15,-1
 346 436 l 1,16,17
 389 393 389 393 389 308 c 0,18,19
 389 230 389 230 358 178 c 0,20,21
 323 120 323 120 220 120 c 0,22,23
 177 120 177 120 150 130 c 1,24,25
 129 93 129 93 119 49 c 1,26,27
 136 46 136 46 155 46 c 128,-1,28
 174 46 174 46 231 53 c 128,-1,29
 288 60 288 60 313 60 c 0,30,31
 365 60 365 60 397 34 c 128,-1,32
 429 8 429 8 429 -46 c 128,-1,33
 429 -100 429 -100 394 -140 c 0,34,35
 333 -210 333 -210 204 -210 c 0,36,37
 117 -210 117 -210 71 -188 c 128,-1,38
 25 -166 25 -166 25 -106 c 0,39,40
 25 -90 25 -90 27 -79 c 1,41,42
 48 -71 48 -71 70.5 -71 c 128,-1,43
 93 -71 93 -71 119 -75 c 1,44,45
 117 -83 117 -83 117 -101.5 c 128,-1,46
 117 -120 117 -120 140 -137.5 c 128,-1,47
 163 -155 163 -155 218 -155 c 128,-1,48
 273 -155 273 -155 312.5 -133 c 128,-1,49
 352 -111 352 -111 352 -67 c 0,50,51
 352 -18 352 -18 299 -18 c 0,52,53
 273 -18 273 -18 217 -24.5 c 128,-1,54
 161 -31 161 -31 128.5 -31 c 128,-1,55
 96 -31 96 -31 74.5 -17.5 c 128,-1,56
 53 -4 53 -4 53 24 c 0,57,58
 53 77 53 77 104 154 c 1,59,60
 51 197 51 197 51 308 c 0,61,62
 51 478 51 478 220 478 c 0,0,1
220 189 m 128,-1,64
 308 189 308 189 308 307 c 128,-1,65
 308 425 308 425 220 425 c 128,-1,66
 132 425 132 425 132 307 c 128,-1,63
 132 189 132 189 220 189 c 128,-1,64
EndSplineSet
EndChar

StartChar: h
Encoding: 104 104 78
Width: 533
GlyphClass: 2
Flags: W
LayerCount: 2
Fore
SplineSet
443 334 m 2,0,-1
 442 253 l 1,1,2
 442 122 442 122 462 9 c 1,3,4
 429 -4 429 -4 397.5 -4 c 128,-1,5
 366 -4 366 -4 354 -2 c 1,6,7
 366 134 366 134 366 238 c 128,-1,8
 366 342 366 342 349.5 378 c 128,-1,9
 333 414 333 414 293 414 c 0,10,11
 239 414 239 414 173 348 c 1,12,13
 173 65 173 65 191 6 c 1,14,15
 158 -4 158 -4 138.5 -4 c 128,-1,16
 119 -4 119 -4 85 -2 c 1,17,18
 100 128 100 128 100 306.5 c 128,-1,19
 100 485 100 485 97 543 c 128,-1,20
 94 601 94 601 82 672 c 1,21,22
 108 682 108 682 134 682 c 128,-1,23
 160 682 160 682 188 680 c 1,24,25
 173 560 173 560 173 407 c 1,26,27
 203 439 203 439 245 458.5 c 128,-1,28
 287 478 287 478 324 478 c 0,29,30
 385 478 385 478 414 443 c 128,-1,31
 443 408 443 408 443 334 c 2,0,-1
EndSplineSet
EndChar

StartChar: i
Encoding: 105 105 79
Width: 263
GlyphClass: 2
Flags: W
LayerCount: 2
Fore
SplineSet
173 256 m 0,0,1
 173 92 173 92 191 6 c 1,2,3
 155 -4 155 -4 126 -4 c 128,-1,4
 97 -4 97 -4 85 -2 c 1,5,6
 100 134 100 134 100 247.5 c 128,-1,7
 100 361 100 361 82 458 c 1,8,9
 116 468 116 468 143 468 c 128,-1,10
 170 468 170 468 188 464 c 1,11,12
 173 309 173 309 173 256 c 0,0,1
192 613 m 0,13,14
 192 551 192 551 128 551 c 0,15,16
 78 551 78 551 78 602 c 0,17,18
 78 665 78 665 142 665 c 0,19,20
 192 665 192 665 192 613 c 0,13,14
EndSplineSet
EndChar

StartChar: j
Encoding: 106 106 80
Width: 254
GlyphClass: 2
Flags: W
LayerCount: 2
Fore
SplineSet
175 256 m 2,0,-1
 178 -13 l 1,1,2
 178 -210 178 -210 43 -210 c 0,3,4
 -15 -210 -15 -210 -60 -178 c 1,5,6
 -60 -121 -60 -121 -27 -95 c 1,7,8
 -16 -111 -16 -111 5 -123.5 c 128,-1,9
 26 -136 26 -136 46 -136 c 0,10,11
 102 -136 102 -136 102 4 c 2,12,-1
 102 227 l 2,13,14
 102 366 102 366 84 458 c 1,15,16
 118 468 118 468 145 468 c 128,-1,17
 172 468 172 468 190 464 c 1,18,19
 175 309 175 309 175 256 c 2,0,-1
194 613 m 0,20,21
 194 551 194 551 130 551 c 0,22,23
 80 551 80 551 80 602 c 0,24,25
 80 665 80 665 144 665 c 0,26,27
 194 665 194 665 194 613 c 0,20,21
EndSplineSet
EndChar

StartChar: k
Encoding: 107 107 81
Width: 476
GlyphClass: 2
Flags: W
LayerCount: 2
Fore
SplineSet
78 -2 m 1,0,1
 93 128 93 128 93 306.5 c 128,-1,2
 93 485 93 485 90 543 c 128,-1,3
 87 601 87 601 75 672 c 1,4,5
 101 682 101 682 127 682 c 128,-1,6
 153 682 153 682 181 680 c 1,7,8
 166 557 166 557 166 312 c 128,-1,9
 166 67 166 67 184 6 c 1,10,11
 151 -4 151 -4 131.5 -4 c 128,-1,12
 112 -4 112 -4 78 -2 c 1,0,1
331 467 m 1,13,14
 340 469 340 469 369.5 469 c 128,-1,15
 399 469 399 469 434 453 c 1,16,17
 420 429 420 429 356 357 c 128,-1,18
 292 285 292 285 268 256 c 1,19,20
 383 91 383 91 456 16 c 1,21,22
 406 -9 406 -9 335 -9 c 1,23,24
 311 56 311 56 280 104 c 128,-1,25
 249 152 249 152 182 227 c 1,26,-1
 185 237 l 1,27,28
 225 285 225 285 274.5 357 c 128,-1,29
 324 429 324 429 331 467 c 1,13,14
EndSplineSet
EndChar

StartChar: l
Encoding: 108 108 82
Width: 253
GlyphClass: 2
Flags: W
LayerCount: 2
Fore
SplineSet
78 -2 m 1,0,1
 93 128 93 128 93 306.5 c 128,-1,2
 93 485 93 485 90 543 c 128,-1,3
 87 601 87 601 75 672 c 1,4,5
 101 682 101 682 127 682 c 128,-1,6
 153 682 153 682 181 680 c 1,7,8
 166 557 166 557 166 312 c 128,-1,9
 166 67 166 67 184 6 c 1,10,11
 151 -4 151 -4 123 -4 c 128,-1,12
 95 -4 95 -4 78 -2 c 1,0,1
EndSplineSet
EndChar

StartChar: m
Encoding: 109 109 83
Width: 763
GlyphClass: 2
Flags: W
LayerCount: 2
Fore
SplineSet
672 335 m 2,0,-1
 671 253 l 1,1,2
 671 124 671 124 691 9 c 1,3,4
 658 -4 658 -4 626.5 -4 c 128,-1,5
 595 -4 595 -4 583 -2 c 1,6,7
 595 131 595 131 595 232.5 c 128,-1,8
 595 334 595 334 582 374 c 128,-1,9
 569 414 569 414 525 414 c 128,-1,10
 481 414 481 414 423 348 c 1,11,-1
 422 253 l 1,12,13
 422 124 422 124 442 9 c 1,14,15
 409 -4 409 -4 377.5 -4 c 128,-1,16
 346 -4 346 -4 334 -2 c 1,17,18
 346 131 346 131 346 232.5 c 128,-1,19
 346 334 346 334 333 374 c 128,-1,20
 320 414 320 414 276 414 c 128,-1,21
 232 414 232 414 175 350 c 1,22,23
 173 319 173 319 173 256 c 0,24,25
 173 92 173 92 191 6 c 1,26,27
 155 -4 155 -4 126 -4 c 128,-1,28
 97 -4 97 -4 85 -2 c 1,29,30
 100 134 100 134 100 236 c 128,-1,31
 100 338 100 338 80 458 c 1,32,33
 120 468 120 468 143 468 c 128,-1,34
 166 468 166 468 179 464 c 1,35,-1
 179 413 l 1,36,37
 207 442 207 442 243.5 460 c 128,-1,38
 280 478 280 478 314 478 c 0,39,40
 397 478 397 478 417 401 c 1,41,42
 447 436 447 436 487.5 457 c 128,-1,43
 528 478 528 478 563 478 c 0,44,45
 620 478 620 478 646 442.5 c 128,-1,46
 672 407 672 407 672 335 c 2,0,-1
EndSplineSet
EndChar

StartChar: n
Encoding: 110 110 84
Width: 533
GlyphClass: 2
Flags: W
LayerCount: 2
Fore
SplineSet
443 334 m 2,0,-1
 442 253 l 1,1,2
 442 124 442 124 462 9 c 1,3,4
 429 -4 429 -4 397.5 -4 c 128,-1,5
 366 -4 366 -4 354 -2 c 1,6,7
 366 131 366 131 366 232.5 c 128,-1,8
 366 334 366 334 351.5 374 c 128,-1,9
 337 414 337 414 288 414 c 128,-1,10
 239 414 239 414 175 350 c 1,11,12
 173 319 173 319 173 256 c 0,13,14
 173 92 173 92 191 6 c 1,15,16
 155 -4 155 -4 126 -4 c 128,-1,17
 97 -4 97 -4 85 -2 c 1,18,19
 100 134 100 134 100 236 c 128,-1,20
 100 338 100 338 80 458 c 1,21,22
 120 468 120 468 143 468 c 128,-1,23
 166 468 166 468 179 464 c 1,24,-1
 179 413 l 1,25,26
 248 478 248 478 317 478 c 128,-1,27
 386 478 386 478 414.5 442.5 c 128,-1,28
 443 407 443 407 443 334 c 2,0,-1
EndSplineSet
EndChar

StartChar: o
Encoding: 111 111 85
Width: 466
GlyphClass: 2
Flags: W
LayerCount: 2
Fore
SplineSet
233 478 m 128,-1,1
 421 478 421 478 421 237 c 0,2,3
 421 126 421 126 386 61 c 0,4,5
 346 -15 346 -15 233 -15 c 128,-1,6
 120 -15 120 -15 80 61 c 0,7,8
 45 126 45 126 45 237 c 0,9,0
 45 478 45 478 233 478 c 128,-1,1
233 57 m 128,-1,11
 339 57 339 57 339 239.5 c 128,-1,12
 339 422 339 422 233 422 c 128,-1,13
 127 422 127 422 127 239.5 c 128,-1,10
 127 57 127 57 233 57 c 128,-1,11
EndSplineSet
EndChar

StartChar: p
Encoding: 112 112 86
Width: 496
GlyphClass: 2
Flags: W
LayerCount: 2
Fore
SplineSet
252 57 m 0,0,1
 361 57 361 57 361 251 c 0,2,3
 361 369 361 369 322 400 c 0,4,5
 304 414 304 414 275 414 c 128,-1,6
 246 414 246 414 214 395 c 128,-1,7
 182 376 182 376 160 349 c 1,8,9
 158 266 158 266 158 80 c 1,10,11
 216 57 216 57 252 57 c 0,0,1
85 177 m 0,12,13
 85 343 85 343 67 456 c 1,14,15
 98 466 98 466 127 466 c 128,-1,16
 156 466 156 466 165 465 c 1,17,-1
 163 413 l 1,18,19
 232 478 232 478 305 478 c 0,20,21
 446 478 446 478 446 238 c 0,22,23
 446 146 446 146 410 71 c 0,24,25
 390 31 390 31 350 8 c 128,-1,26
 310 -15 310 -15 261 -15 c 128,-1,27
 212 -15 212 -15 159 9 c 1,28,29
 163 -138 163 -138 176 -200 c 1,30,31
 154 -210 154 -210 121 -210 c 128,-1,32
 88 -210 88 -210 70 -208 c 1,33,34
 85 -117 85 -117 85 177 c 0,12,13
EndSplineSet
EndChar

StartChar: q
Encoding: 113 113 87
Width: 498
GlyphClass: 2
Flags: W
LayerCount: 2
Fore
SplineSet
424 452 m 1,0,1
 409 323 409 323 409 153 c 128,-1,2
 409 -17 409 -17 412 -74 c 128,-1,3
 415 -131 415 -131 427 -200 c 1,4,5
 401 -210 401 -210 368 -210 c 128,-1,6
 335 -210 335 -210 321 -208 c 1,7,8
 336 -85 336 -85 336 53 c 1,9,10
 265 -15 265 -15 195 -15 c 128,-1,11
 125 -15 125 -15 87.5 42 c 128,-1,12
 50 99 50 99 50 205 c 0,13,14
 50 346 50 346 98.5 412 c 128,-1,15
 147 478 147 478 251 478 c 0,16,17
 316 478 316 478 424 452 c 1,0,1
135 200 m 0,18,19
 135 57 135 57 220 57 c 0,20,21
 278 57 278 57 336 122 c 1,22,-1
 336 399 l 1,23,24
 292 422 292 422 240 422 c 128,-1,25
 188 422 188 422 161.5 369.5 c 128,-1,26
 135 317 135 317 135 200 c 0,18,19
EndSplineSet
EndChar

StartChar: r
Encoding: 114 114 88
Width: 347
GlyphClass: 2
Flags: W
LayerCount: 2
Fore
SplineSet
213 455.5 m 128,-1,1
 244 473 244 473 274 473 c 128,-1,2
 304 473 304 473 323 440 c 128,-1,3
 342 407 342 407 342 360 c 0,4,5
 342 343 342 343 340 331 c 1,6,7
 322 322 322 322 303.5 322 c 128,-1,8
 285 322 285 322 259 326 c 1,9,10
 261 342 261 342 261 347 c 0,11,12
 261 402 261 402 221 402 c 0,13,14
 210 402 210 402 191 388 c 128,-1,15
 172 374 172 374 155 353 c 1,16,17
 153 321 153 321 153 256 c 0,18,19
 153 92 153 92 171 6 c 1,20,21
 135 -4 135 -4 110 -4 c 128,-1,22
 85 -4 85 -4 65 -2 c 1,23,24
 80 134 80 134 80 236 c 128,-1,25
 80 338 80 338 60 458 c 1,26,27
 100 468 100 468 123 468 c 128,-1,28
 146 468 146 468 159 464 c 1,29,-1
 159 412 l 1,30,0
 182 438 182 438 213 455.5 c 128,-1,1
EndSplineSet
EndChar

StartChar: s
Encoding: 115 115 89
Width: 403
GlyphClass: 2
Flags: W
LayerCount: 2
Fore
SplineSet
361 126 m 0,0,1
 361 55 361 55 315 20 c 128,-1,2
 269 -15 269 -15 200 -15 c 0,3,4
 104 -15 104 -15 32 40 c 1,5,6
 36 62 36 62 47.5 83.5 c 128,-1,7
 59 105 59 105 68 116 c 1,8,-1
 78 126 l 1,9,10
 130 52 130 52 202 52 c 0,11,12
 237 52 237 52 259.5 67 c 128,-1,13
 282 82 282 82 282 108.5 c 128,-1,14
 282 135 282 135 257.5 156 c 128,-1,15
 233 177 233 177 198 191.5 c 128,-1,16
 163 206 163 206 128 222.5 c 128,-1,17
 93 239 93 239 68.5 270 c 128,-1,18
 44 301 44 301 44 344 c 0,19,20
 44 406 44 406 84 442 c 128,-1,21
 124 478 124 478 204.5 478 c 128,-1,22
 285 478 285 478 320.5 443 c 128,-1,23
 356 408 356 408 356 333 c 1,24,25
 334 325 334 325 315 325 c 128,-1,26
 296 325 296 325 268 331 c 1,27,28
 270 345 270 345 270 353 c 0,29,30
 270 384 270 384 252 404.5 c 128,-1,31
 234 425 234 425 200.5 425 c 128,-1,32
 167 425 167 425 145 409.5 c 128,-1,33
 123 394 123 394 123 362.5 c 128,-1,34
 123 331 123 331 147.5 308 c 128,-1,35
 172 285 172 285 207 270.5 c 128,-1,36
 242 256 242 256 277 240.5 c 128,-1,37
 312 225 312 225 336.5 196.5 c 128,-1,38
 361 168 361 168 361 126 c 0,0,1
EndSplineSet
EndChar

StartChar: t
Encoding: 116 116 90
Width: 307
GlyphClass: 2
Flags: W
LayerCount: 2
Fore
SplineSet
75 162 m 2,0,1
 75 162 75 162 77 385 c 0,2,3
 77 400 77 400 76 408 c 1,4,5
 34 408 34 408 16 407 c 1,6,7
 10 423 10 423 10 438.5 c 128,-1,8
 10 454 10 454 12 462 c 1,9,-1
 73 462 l 1,10,-1
 68 536 l 1,11,12
 93 544 93 544 120.5 544 c 128,-1,13
 148 544 148 544 166 540 c 1,14,-1
 157 463 l 1,15,16
 212 464 212 464 268 469 c 1,17,18
 274 456 274 456 274 440.5 c 128,-1,19
 274 425 274 425 270 403 c 1,20,21
 233 405 233 405 153 407 c 1,22,23
 151 387 151 387 151 348 c 2,24,-1
 151 145 l 2,25,26
 151 119 151 119 153.5 102.5 c 128,-1,27
 156 86 156 86 166.5 72.5 c 128,-1,28
 177 59 177 59 197 59 c 0,29,30
 241 59 241 59 281 90 c 1,31,32
 302 60 302 60 302 9 c 1,33,34
 247 -15 247 -15 206.5 -15 c 128,-1,35
 166 -15 166 -15 142 -4.5 c 128,-1,36
 118 6 118 6 105 20.5 c 128,-1,37
 92 35 92 35 85 61 c 0,38,39
 75 98 75 98 75 162 c 2,0,1
EndSplineSet
EndChar

StartChar: u
Encoding: 117 117 91
Width: 502
GlyphClass: 2
Flags: W
LayerCount: 2
Fore
SplineSet
82 129 m 2,0,-1
 83 210 l 1,1,2
 83 363 83 363 65 458 c 1,3,4
 88 467 88 467 116 467 c 128,-1,5
 144 467 144 467 171 464 c 1,6,7
 156 327 156 327 156 231 c 128,-1,8
 156 135 156 135 169.5 96 c 128,-1,9
 183 57 183 57 229.5 57 c 128,-1,10
 276 57 276 57 337 118 c 1,11,12
 339 148 339 148 339 207 c 0,13,14
 339 372 339 372 321 458 c 1,15,16
 359 468 359 468 384 468 c 128,-1,17
 409 468 409 468 427 464 c 1,18,19
 412 328 412 328 412 219.5 c 128,-1,20
 412 111 412 111 430 3 c 1,21,22
 400 -6 400 -6 378 -6 c 128,-1,23
 356 -6 356 -6 336 -4 c 1,24,-1
 334 45 l 1,25,26
 260 -15 260 -15 197.5 -15 c 128,-1,27
 135 -15 135 -15 108.5 20.5 c 128,-1,28
 82 56 82 56 82 129 c 2,0,-1
EndSplineSet
EndChar

StartChar: v
Encoding: 118 118 92
Width: 453
GlyphClass: 2
Flags: W
LayerCount: 2
Fore
SplineSet
259 0 m 1,0,1
 233 -7 233 -7 212.5 -7 c 128,-1,2
 192 -7 192 -7 185 -6 c 1,3,4
 159 86 159 86 107.5 221.5 c 128,-1,5
 56 357 56 357 9 452 c 1,6,7
 49 469 49 469 81.5 469 c 128,-1,8
 114 469 114 469 125 468 c 1,9,10
 135 325 135 325 224 111 c 1,11,-1
 228 111 l 1,12,13
 261 174 261 174 292.5 284 c 128,-1,14
 324 394 324 394 328 467 c 1,15,16
 346 469 346 469 355 469 c 0,17,18
 402 469 402 469 433 452 c 1,19,20
 397 372 397 372 337.5 222.5 c 128,-1,21
 278 73 278 73 259 0 c 1,0,1
EndSplineSet
EndChar

StartChar: w
Encoding: 119 119 93
Width: 646
GlyphClass: 2
Flags: W
LayerCount: 2
Fore
SplineSet
517 467 m 1,0,1
 517 467 517 467 553 468 c 0,2,3
 588 468 588 468 622 452 c 1,4,5
 591 376 591 376 535 225 c 128,-1,6
 479 74 479 74 460 0 c 1,7,8
 434 -7 434 -7 413.5 -7 c 128,-1,9
 393 -7 393 -7 386 -6 c 1,10,11
 375 72 375 72 320 281 c 1,12,-1
 316 281 l 1,13,14
 259 109 259 109 234 0 c 1,15,16
 208 -7 208 -7 187.5 -7 c 128,-1,17
 167 -7 167 -7 160 -6 c 1,18,19
 141 85 141 85 97.5 220.5 c 128,-1,20
 54 356 54 356 12 452 c 1,21,22
 52 469 52 469 84.5 469 c 128,-1,23
 117 469 117 469 128 468 c 1,24,25
 135 344 135 344 203 111 c 1,26,-1
 207 111 l 1,27,28
 229 161 229 161 252 253.5 c 128,-1,29
 275 346 275 346 281 410 c 1,30,31
 311 417 311 417 332.5 417 c 128,-1,32
 354 417 354 417 372 414 c 1,33,34
 392 250 392 250 429 111 c 1,35,-1
 433 111 l 1,36,37
 462 173 462 173 488 283 c 128,-1,38
 514 393 514 393 517 467 c 1,0,1
EndSplineSet
EndChar

StartChar: x
Encoding: 120 120 94
Width: 411
GlyphClass: 2
Flags: W
LayerCount: 2
Fore
SplineSet
318 -10 m 0,0,1
 301 -10 301 -10 292 -9 c 1,2,3
 253 84 253 84 200 175 c 1,4,5
 150 89 150 89 135.5 60 c 128,-1,6
 121 31 121 31 117 -8 c 1,7,8
 104 -10 104 -10 88 -10 c 0,9,10
 49 -10 49 -10 15 11 c 1,11,12
 56 77 56 77 169 228 c 1,13,14
 152 254 152 254 104 330 c 128,-1,15
 56 406 56 406 27 448 c 1,16,17
 56 469 56 469 109 469 c 0,18,19
 126 469 126 469 135 468 c 1,20,21
 162 407 162 407 216 297 c 1,22,23
 237 332 237 332 257.5 375.5 c 128,-1,24
 278 419 278 419 282 467 c 1,25,26
 291 469 291 469 320.5 469 c 128,-1,27
 350 469 350 469 385 453 c 1,28,29
 343 381 343 381 248 238 c 1,30,31
 256 226 256 226 311 141.5 c 128,-1,32
 366 57 366 57 400 11 c 1,33,34
 370 -10 370 -10 318 -10 c 0,0,1
EndSplineSet
EndChar

StartChar: y
Encoding: 121 121 95
Width: 441
GlyphClass: 2
Flags: W
LayerCount: 2
Fore
SplineSet
181 -160.5 m 128,-1,1
 141 -210 141 -210 86 -210 c 128,-1,2
 31 -210 31 -210 -17 -178 c 1,3,4
 -13 -120 -13 -120 16 -95 c 1,5,6
 46 -136 46 -136 89 -136 c 0,7,8
 112 -136 112 -136 141 -97 c 128,-1,9
 170 -58 170 -58 188 -6 c 1,10,11
 162 86 162 86 110.5 221.5 c 128,-1,12
 59 357 59 357 12 452 c 1,13,14
 52 469 52 469 84.5 469 c 128,-1,15
 117 469 117 469 128 468 c 1,16,17
 138 325 138 325 227 111 c 1,18,-1
 231 111 l 1,19,20
 264 174 264 174 295.5 284 c 128,-1,21
 327 394 327 394 331 467 c 1,22,23
 349 469 349 469 358 469 c 0,24,25
 405 469 405 469 436 452 c 1,26,27
 411 396 411 396 347 235.5 c 128,-1,28
 283 75 283 75 252 -18 c 128,-1,0
 221 -111 221 -111 181 -160.5 c 128,-1,1
EndSplineSet
EndChar

StartChar: z
Encoding: 122 122 96
Width: 425
GlyphClass: 2
Flags: W
LayerCount: 2
Fore
SplineSet
224 397 m 2,0,1
 135 397 135 397 64 378 c 1,2,3
 55 408 55 408 55 426 c 128,-1,4
 55 444 55 444 61 471 c 1,5,6
 113 464 113 464 222 464 c 128,-1,7
 331 464 331 464 385 470 c 1,8,9
 390 460 390 460 390 432 c 1,10,11
 349 355 349 355 273 240.5 c 128,-1,12
 197 126 197 126 167 74 c 1,13,-1
 211 74 l 1,14,15
 319 76 319 76 377 93 c 1,16,17
 387 62 387 62 387 39 c 128,-1,18
 387 16 387 16 382 -7 c 1,19,20
 296 2 296 2 212 2 c 128,-1,21
 128 2 128 2 47 -4 c 1,22,23
 41 11 41 11 40 32 c 1,24,25
 83 99 83 99 169.5 221.5 c 128,-1,26
 256 344 256 344 292 397 c 1,27,-1
 224 397 l 2,0,1
EndSplineSet
EndChar

StartChar: braceleft
Encoding: 123 123 97
Width: 344
GlyphClass: 2
Flags: W
LayerCount: 2
Fore
SplineSet
178 588 m 1,0,-1
 190 439 l 1,1,2
 190 400 190 400 173 368.5 c 128,-1,3
 156 337 156 337 126 333 c 1,4,-1
 126 327 l 1,5,6
 156 323 156 323 173 291.5 c 128,-1,7
 190 260 190 260 190 221 c 1,8,-1
 178 72 l 1,9,10
 178 34 178 34 189 20 c 128,-1,11
 200 6 200 6 233 6 c 128,-1,12
 266 6 266 6 316 17 c 1,13,14
 324 -9 324 -9 324 -31 c 128,-1,15
 324 -53 324 -53 320 -71 c 1,16,17
 274 -59 274 -59 208.5 -59 c 128,-1,18
 143 -59 143 -59 120.5 -29.5 c 128,-1,19
 98 0 98 0 98 53 c 1,20,-1
 109 205 l 1,21,22
 109 247 109 247 94 272 c 128,-1,23
 79 297 79 297 37 303 c 1,24,25
 30 313 30 313 30 330 c 128,-1,26
 30 347 30 347 37 357 c 1,27,28
 79 363 79 363 94 388 c 128,-1,29
 109 413 109 413 109 455 c 1,30,-1
 98 607 l 1,31,32
 98 660 98 660 120.5 689.5 c 128,-1,33
 143 719 143 719 208.5 719 c 128,-1,34
 274 719 274 719 320 731 c 1,35,36
 324 713 324 713 324 691 c 128,-1,37
 324 669 324 669 316 643 c 1,38,39
 266 654 266 654 233 654 c 128,-1,40
 200 654 200 654 189 640 c 128,-1,41
 178 626 178 626 178 588 c 1,0,-1
EndSplineSet
EndChar

StartChar: bar
Encoding: 124 124 98
Width: 263
GlyphClass: 2
Flags: W
LayerCount: 2
Fore
SplineSet
93 -85 m 1,0,1
 103 56 103 56 103 328 c 128,-1,2
 103 600 103 600 90 717 c 1,3,4
 116 729 116 729 133 729 c 128,-1,5
 150 729 150 729 170 726 c 1,6,7
 160 589 160 589 160 287.5 c 128,-1,8
 160 -14 160 -14 173 -76 c 1,9,10
 144 -88 144 -88 126 -88 c 128,-1,11
 108 -88 108 -88 93 -85 c 1,0,1
EndSplineSet
EndChar

StartChar: braceright
Encoding: 125 125 99
Width: 344
GlyphClass: 2
Flags: W
LayerCount: 2
Fore
SplineSet
166 72 m 1,0,-1
 154 221 l 1,1,2
 154 260 154 260 171 291.5 c 128,-1,3
 188 323 188 323 218 327 c 1,4,-1
 218 333 l 1,5,6
 188 337 188 337 171 368.5 c 128,-1,7
 154 400 154 400 154 439 c 1,8,-1
 166 588 l 1,9,10
 166 626 166 626 155 640 c 128,-1,11
 144 654 144 654 111 654 c 128,-1,12
 78 654 78 654 28 643 c 1,13,14
 20 669 20 669 20 691 c 128,-1,15
 20 713 20 713 24 731 c 1,16,17
 70 719 70 719 135.5 719 c 128,-1,18
 201 719 201 719 223.5 689.5 c 128,-1,19
 246 660 246 660 246 607 c 1,20,-1
 235 455 l 1,21,22
 235 413 235 413 250 388 c 128,-1,23
 265 363 265 363 307 357 c 1,24,25
 314 347 314 347 314 330 c 128,-1,26
 314 313 314 313 307 303 c 1,27,28
 265 297 265 297 250 272 c 128,-1,29
 235 247 235 247 235 205 c 1,30,-1
 246 53 l 1,31,32
 246 0 246 0 223.5 -29.5 c 128,-1,33
 201 -59 201 -59 135.5 -59 c 128,-1,34
 70 -59 70 -59 24 -71 c 1,35,36
 20 -53 20 -53 20 -31 c 128,-1,37
 20 -9 20 -9 28 17 c 1,38,39
 78 6 78 6 111 6 c 128,-1,40
 144 6 144 6 155 20 c 128,-1,41
 166 34 166 34 166 72 c 1,0,-1
EndSplineSet
EndChar

StartChar: asciitilde
Encoding: 126 126 100
Width: 601
GlyphClass: 2
Flags: W
LayerCount: 2
Fore
SplineSet
502 288 m 1,0,1
 477 321 477 321 432 321 c 128,-1,2
 387 321 387 321 301 292.5 c 128,-1,3
 215 264 215 264 167.5 264 c 128,-1,4
 120 264 120 264 84 291 c 1,5,6
 84 330 84 330 98 367 c 1,7,8
 123 334 123 334 168.5 334 c 128,-1,9
 214 334 214 334 300.5 362.5 c 128,-1,10
 387 391 387 391 434.5 391 c 128,-1,11
 482 391 482 391 518 364 c 1,12,13
 518 330 518 330 502 288 c 1,0,1
EndSplineSet
EndChar

StartChar: exclamdown
Encoding: 161 161 101
Width: 270
GlyphClass: 2
Flags: W
LayerCount: 2
Fore
SplineSet
149 88 m 0,0,1
 149 -96 149 -96 175 -200 c 1,2,3
 145 -211 145 -211 117 -211 c 128,-1,4
 89 -211 89 -211 65 -205 c 1,5,6
 85 -16 85 -16 85 218 c 0,7,8
 85 251 85 251 83 283 c 1,9,10
 103 289 103 289 117.5 289 c 128,-1,11
 132 289 132 289 151 283 c 1,12,13
 149 177 149 177 149 88 c 0,0,1
50 408 m 0,14,15
 50 438 50 438 68 458 c 128,-1,16
 86 478 86 478 123 478 c 0,17,18
 180 478 180 478 180 420 c 0,19,20
 180 348 180 348 107 348 c 0,21,22
 50 348 50 348 50 408 c 0,14,15
EndSplineSet
EndChar

StartChar: cent
Encoding: 162 162 102
Width: 470
GlyphClass: 2
Flags: W
LayerCount: 2
Fore
SplineSet
262 213 m 2,0,-1
 262 136 l 1,1,2
 337 139 337 139 393 198 c 1,3,4
 422 168 422 168 430 119 c 1,5,6
 356 64 356 64 265 64 c 1,7,8
 267 15 267 15 270 5 c 1,9,10
 243 -8 243 -8 218.5 -8 c 128,-1,11
 194 -8 194 -8 179 -5 c 1,12,-1
 187 73 l 1,13,14
 40 111 40 111 40 311 c 0,15,16
 40 403 40 403 80 467.5 c 128,-1,17
 120 532 120 532 205 550 c 1,18,19
 202 598 202 598 199 632 c 1,20,21
 221 645 221 645 261 645 c 0,22,23
 270 645 270 645 290 642 c 1,24,25
 287 625 287 625 280 557 c 1,26,27
 340 554 340 554 382 522 c 128,-1,28
 424 490 424 490 424 432 c 0,29,30
 424 425 424 425 422 409 c 1,31,32
 396 401 396 401 374.5 401 c 128,-1,33
 353 401 353 401 331 403 c 1,34,35
 332 410 332 410 332 431.5 c 128,-1,36
 332 453 332 453 318 474.5 c 128,-1,37
 304 496 304 496 274 500 c 1,38,39
 262 375 262 375 262 213 c 2,0,-1
122 311 m 0,40,41
 122 188 122 188 193 150 c 1,42,43
 208 319 208 319 208 455 c 2,44,-1
 208 490 l 1,45,46
 164 471 164 471 143 422.5 c 128,-1,47
 122 374 122 374 122 311 c 0,40,41
EndSplineSet
EndChar

StartChar: sterling
Encoding: 163 163 103
Width: 546
GlyphClass: 2
Flags: W
LayerCount: 2
Fore
SplineSet
136 215 m 0,0,1
 136 245 136 245 133 275 c 1,2,-1
 63 275 l 1,3,4
 55 291 55 291 55 305 c 128,-1,5
 55 319 55 319 58 331 c 1,6,-1
 127 331 l 1,7,8
 112 451 112 451 112 491 c 0,9,10
 112 577 112 577 163 621.5 c 128,-1,11
 214 666 214 666 300 666 c 0,12,13
 483 666 483 666 483 494 c 0,14,15
 483 482 483 482 480 469 c 1,16,17
 458 460 458 460 434 460 c 128,-1,18
 410 460 410 460 400 462 c 1,19,20
 401 470 401 470 401 483 c 0,21,22
 401 544 401 544 378.5 573 c 128,-1,23
 356 602 356 602 300 602 c 128,-1,24
 244 602 244 602 222 568 c 128,-1,25
 200 534 200 534 200 490 c 128,-1,26
 200 446 200 446 209 331 c 1,27,28
 316 333 316 333 391 339 c 1,29,30
 398 325 398 325 398 304.5 c 128,-1,31
 398 284 398 284 394 269 c 1,32,33
 294 274 294 274 213 274 c 1,34,35
 215 238 215 238 215 193 c 128,-1,36
 215 148 215 148 202 67 c 1,37,-1
 297 67 l 2,38,39
 330 67 330 67 401 71.5 c 128,-1,40
 472 76 472 76 490 81 c 1,41,42
 494 63 494 63 494 41 c 128,-1,43
 494 19 494 19 486 -7 c 1,44,45
 412 2 412 2 327.5 2 c 128,-1,46
 243 2 243 2 163 -2.5 c 128,-1,47
 83 -7 83 -7 65 -12 c 1,48,49
 61 6 61 6 61 23 c 1,50,-1
 115 72 l 1,51,52
 136 135 136 135 136 215 c 0,0,1
EndSplineSet
EndChar

StartChar: yen
Encoding: 165 165 104
Width: 494
GlyphClass: 2
Flags: W
LayerCount: 2
Fore
SplineSet
134 401 m 1,0,-1
 17 634 l 1,1,2
 57 651 57 651 89.5 651 c 128,-1,3
 122 651 122 651 133 650 c 1,4,5
 139 575 139 575 180 478 c 0,6,7
 196 442 196 442 222.5 383 c 128,-1,8
 249 324 249 324 262 293 c 1,9,-1
 266 293 l 1,10,11
 301 360 301 360 336.5 469.5 c 128,-1,12
 372 579 372 579 376 649 c 1,13,14
 394 651 394 651 403 651 c 0,15,16
 450 651 450 651 481 634 c 1,17,18
 478 626 478 626 460 586 c 0,19,20
 407 474 407 474 377 405 c 1,21,22
 426 407 426 407 451 409 c 1,23,24
 458 395 458 395 458 374.5 c 128,-1,25
 458 354 458 354 454 339 c 1,26,27
 422 341 422 341 351 343 c 1,28,29
 332 297 332 297 316 253 c 1,30,31
 340 252 340 252 385 252 c 128,-1,32
 430 252 430 252 450 253 c 1,33,34
 458 237 458 237 458 223 c 128,-1,35
 458 209 458 209 455 197 c 1,36,37
 354 197 354 197 298 196 c 1,38,39
 298 70 298 70 313 2 c 1,40,41
 280 -8 280 -8 252 -8 c 128,-1,42
 224 -8 224 -8 207 -6 c 1,43,44
 217 75 217 75 220 195 c 1,45,46
 126 193 126 193 62 189 c 1,47,48
 55 203 55 203 55 223.5 c 128,-1,49
 55 244 55 244 59 259 c 1,50,51
 133 255 133 255 199 254 c 1,52,53
 183 295 183 295 160 345 c 1,54,-1
 63 345 l 1,55,56
 55 361 55 361 55 375 c 128,-1,57
 55 389 55 389 58 401 c 1,58,-1
 134 401 l 1,0,-1
EndSplineSet
EndChar

StartChar: brokenbar
Encoding: 166 166 105
Width: 263
GlyphClass: 2
Flags: W
LayerCount: 2
Fore
SplineSet
173 -76 m 1,0,1
 142 -88 142 -88 125 -88 c 128,-1,2
 108 -88 108 -88 93 -85 c 1,3,4
 103 56 103 56 103 251 c 1,5,6
 130 258 130 258 142 258 c 128,-1,7
 154 258 154 258 160 257 c 1,8,9
 160 -14 160 -14 173 -76 c 1,0,1
90 717 m 1,10,11
 115 729 115 729 135 729 c 128,-1,12
 155 729 155 729 170 726 c 1,13,14
 160 585 160 585 160 390 c 1,15,16
 133 383 133 383 120.5 383 c 128,-1,17
 108 383 108 383 103 384 c 1,18,19
 103 655 103 655 90 717 c 1,10,11
EndSplineSet
EndChar

StartChar: section
Encoding: 167 167 106
Width: 480
GlyphClass: 2
Flags: W
LayerCount: 2
Fore
SplineSet
48 246 m 0,0,1
 48 326 48 326 101 369 c 1,2,3
 48 415 48 415 48 488.5 c 128,-1,4
 48 562 48 562 95 608.5 c 128,-1,5
 142 655 142 655 240.5 655 c 128,-1,6
 339 655 339 655 385.5 606 c 128,-1,7
 432 557 432 557 432 478 c 0,8,9
 432 466 432 466 429 453 c 1,10,11
 404 444 404 444 377.5 444 c 128,-1,12
 351 444 351 444 339 446 c 1,13,14
 340 454 340 454 340 467 c 0,15,16
 340 525 340 525 309.5 560.5 c 128,-1,17
 279 596 279 596 233 596 c 128,-1,18
 187 596 187 596 160.5 571.5 c 128,-1,19
 134 547 134 547 134 505.5 c 128,-1,20
 134 464 134 464 157 438.5 c 128,-1,21
 180 413 180 413 214.5 399 c 128,-1,22
 249 385 249 385 289.5 367.5 c 128,-1,23
 330 350 330 350 364.5 331.5 c 128,-1,24
 399 313 399 313 422 276.5 c 128,-1,25
 445 240 445 240 445 190 c 0,26,27
 445 110 445 110 387 70 c 1,28,29
 445 22 445 22 445 -55 c 0,30,31
 445 -111 445 -111 415.5 -147.5 c 128,-1,32
 386 -184 386 -184 344 -197 c 128,-1,33
 302 -210 302 -210 247 -210 c 0,34,35
 116 -210 116 -210 35 -134 c 1,36,37
 39 -110 39 -110 51.5 -90 c 128,-1,38
 64 -70 64 -70 74 -62 c 1,39,-1
 85 -55 l 1,40,41
 144 -136 144 -136 247 -136 c 0,42,43
 304 -136 304 -136 330.5 -112.5 c 128,-1,44
 357 -89 357 -89 357 -53 c 128,-1,45
 357 -17 357 -17 325 7.5 c 128,-1,46
 293 32 293 32 247.5 49 c 128,-1,47
 202 66 202 66 157 86.5 c 128,-1,48
 112 107 112 107 80 147 c 128,-1,49
 48 187 48 187 48 246 c 0,0,1
189 168 m 0,50,51
 229 145 229 145 303 117 c 1,52,53
 357 136 357 136 357 193 c 0,54,55
 357 220 357 220 337.5 241 c 128,-1,56
 318 262 318 262 295 272.5 c 128,-1,57
 272 283 272 283 229 300.5 c 128,-1,58
 186 318 186 318 163 329 c 1,59,60
 134 303 134 303 134 251 c 128,-1,61
 134 199 134 199 189 168 c 0,50,51
EndSplineSet
EndChar

StartChar: dieresis
Encoding: 168 168 107
Width: 473
GlyphClass: 2
Flags: W
LayerCount: 2
Fore
SplineSet
213 607 m 0,0,1
 213 552 213 552 155 552 c 0,2,3
 110 552 110 552 110 598 c 0,4,5
 110 654 110 654 168 654 c 0,6,7
 213 654 213 654 213 607 c 0,0,1
363 607 m 0,8,9
 363 552 363 552 305 552 c 0,10,11
 260 552 260 552 260 598 c 0,12,13
 260 654 260 654 318 654 c 0,14,15
 363 654 363 654 363 607 c 0,8,9
EndSplineSet
EndChar

StartChar: copyright
Encoding: 169 169 108
Width: 616
GlyphClass: 2
Flags: W
LayerCount: 2
Fore
SplineSet
407 541 m 1,0,-1
 404 524 l 1,1,2
 393 518 393 518 377 518 c 128,-1,3
 361 518 361 518 349 520 c 1,4,5
 351 528 351 528 351 544.5 c 128,-1,6
 351 561 351 561 338.5 577 c 128,-1,7
 326 593 326 593 305 593 c 0,8,9
 230 593 230 593 230 467.5 c 128,-1,10
 230 342 230 342 305 342 c 0,11,12
 345 342 345 342 378 380 c 1,13,14
 400 361 400 361 405 329 c 1,15,16
 358 294 358 294 305 294 c 0,17,18
 230 294 230 294 204 339.5 c 128,-1,19
 178 385 178 385 178 467 c 0,20,21
 178 632 178 632 305 632 c 0,22,23
 356 632 356 632 381.5 606.5 c 128,-1,24
 407 581 407 581 407 541 c 1,0,-1
331 674 m 0,25,26
 113 674 113 674 113 469 c 0,27,28
 113 350 113 350 154.5 303 c 128,-1,29
 196 256 196 256 285 256 c 0,30,31
 396 256 396 256 449.5 314 c 128,-1,32
 503 372 503 372 503 475.5 c 128,-1,33
 503 579 503 579 461.5 626.5 c 128,-1,34
 420 674 420 674 331 674 c 0,25,26
503.5 658 m 128,-1,36
 556 598 556 598 556 474.5 c 128,-1,37
 556 351 556 351 492 281.5 c 128,-1,38
 428 212 428 212 297 212 c 128,-1,39
 166 212 166 212 113 275 c 128,-1,40
 60 338 60 338 60 461 c 0,41,42
 60 516 60 516 71 558.5 c 128,-1,43
 82 601 82 601 110 639 c 0,44,45
 168 718 168 718 328 718 c 0,46,35
 451 718 451 718 503.5 658 c 128,-1,36
EndSplineSet
EndChar

StartChar: ordfeminine
Encoding: 170 170 109
Width: 327
GlyphClass: 2
Flags: W
LayerCount: 2
Fore
SplineSet
258 590 m 1,0,-1
 255 505 l 1,1,2
 255 461 255 461 267 385 c 1,3,4
 249 378 249 378 231 378 c 128,-1,5
 213 378 213 378 201 381 c 1,6,-1
 199 404 l 1,7,8
 165 373 165 373 126.5 373 c 128,-1,9
 88 373 88 373 69 396.5 c 128,-1,10
 50 420 50 420 50 460 c 0,11,12
 50 546 50 546 148 546 c 0,13,14
 178 546 178 546 203 534 c 1,15,16
 205 556 205 556 205 571 c 0,17,18
 205 634 205 634 159 634 c 0,19,20
 119 634 119 634 119 590 c 0,21,22
 119 583 119 583 120 576 c 1,23,-1
 106 575 l 1,24,25
 74 575 74 575 59 581 c 1,26,27
 58 586 58 586 58 595 c 0,28,29
 58 634 58 634 89.5 653.5 c 128,-1,30
 121 673 121 673 163.5 673 c 128,-1,31
 206 673 206 673 232 652 c 128,-1,32
 258 631 258 631 258 590 c 1,0,-1
148 510 m 0,33,34
 106 510 106 510 106 467.5 c 128,-1,35
 106 425 106 425 142 425 c 128,-1,36
 178 425 178 425 198 449 c 1,37,38
 201 488 201 488 201 493 c 1,39,40
 178 510 178 510 148 510 c 0,33,34
49 262 m 1,41,42
 43 274 43 274 43 289.5 c 128,-1,43
 43 305 43 305 49 326 c 1,44,45
 247 340 247 340 271 345 c 1,46,47
 277 333 277 333 277 317.5 c 128,-1,48
 277 302 277 302 271 281 c 1,49,50
 73 267 73 267 49 262 c 1,41,42
EndSplineSet
EndChar

StartChar: guillemotleft
Encoding: 171 171 110
Width: 495
GlyphClass: 2
Flags: W
LayerCount: 2
Fore
SplineSet
228 426 m 1,0,1
 228 426 228 426 147 280 c 1,2,3
 154 267 154 267 228 134 c 1,4,5
 208 114 208 114 180 108 c 1,6,7
 162 130 162 130 139 158 c 128,-1,8
 116 186 116 186 104 202 c 1,9,10
 74 238 74 238 30 280 c 1,11,12
 74 322 74 322 95 348 c 128,-1,13
 116 374 116 374 139 402 c 128,-1,14
 162 430 162 430 180 452 c 1,15,16
 211 443 211 443 228 426 c 1,0,1
425 426 m 1,17,18
 346 284 346 284 344 280 c 1,19,20
 377 218 377 218 425 134 c 1,21,22
 402 113 402 113 377 108 c 1,23,24
 359 130 359 130 336 158 c 128,-1,25
 313 186 313 186 300 202 c 0,26,27
 271 238 271 238 227 280 c 1,28,29
 271 322 271 322 292 348 c 128,-1,30
 313 374 313 374 336 402 c 128,-1,31
 359 430 359 430 377 452 c 1,32,33
 405 444 405 444 425 426 c 1,17,18
EndSplineSet
EndChar

StartChar: logicalnot
Encoding: 172 172 111
Width: 601
GlyphClass: 2
Flags: W
LayerCount: 2
Fore
SplineSet
446 286 m 1,0,1
 354 295 354 295 298 295 c 128,-1,2
 242 295 242 295 175 290.5 c 128,-1,3
 108 286 108 286 90 281 c 1,4,5
 87 295 87 295 87 321 c 128,-1,6
 87 347 87 347 94 369 c 1,7,8
 163 360 163 360 261 360 c 0,9,10
 461 360 461 360 511 374 c 1,11,12
 507 331 507 331 507 268.5 c 128,-1,13
 507 206 507 206 518 167 c 1,14,15
 504 164 504 164 481.5 164 c 128,-1,16
 459 164 459 164 438 171 c 1,17,18
 446 213 446 213 446 286 c 1,0,1
EndSplineSet
EndChar

StartChar: registered
Encoding: 174 174 112
Width: 616
GlyphClass: 2
Flags: W
LayerCount: 2
Fore
SplineSet
285 474 m 1,0,1
 298 468 298 468 315 468 c 128,-1,2
 332 468 332 468 345 487 c 128,-1,3
 358 506 358 506 358 531 c 0,4,5
 358 593 358 593 299 593 c 0,6,7
 277 593 277 593 259 586 c 1,8,9
 256 549 256 549 256 443.5 c 128,-1,10
 256 338 256 338 266 305 c 1,11,12
 247 298 247 298 231.5 298 c 128,-1,13
 216 298 216 298 200 300 c 1,14,15
 208 369 208 369 208 466.5 c 128,-1,16
 208 564 208 564 198 617 c 1,17,18
 235 632 235 632 297.5 632 c 128,-1,19
 360 632 360 632 386 606 c 128,-1,20
 412 580 412 580 412 538.5 c 128,-1,21
 412 497 412 497 393.5 469.5 c 128,-1,22
 375 442 375 442 342 433 c 1,23,24
 398 348 398 348 428 308 c 1,25,26
 404 296 404 296 361 296 c 1,27,28
 330 361 330 361 286 430 c 1,29,30
 284 430 284 430 274 434 c 1,31,32
 274 463 274 463 285 474 c 1,0,1
503.5 658 m 128,-1,34
 556 598 556 598 556 474.5 c 128,-1,35
 556 351 556 351 492 281.5 c 128,-1,36
 428 212 428 212 297 212 c 128,-1,37
 166 212 166 212 113 275 c 128,-1,38
 60 338 60 338 60 461 c 0,39,40
 60 516 60 516 71 558.5 c 128,-1,41
 82 601 82 601 110 639 c 0,42,43
 168 718 168 718 328 718 c 0,44,33
 451 718 451 718 503.5 658 c 128,-1,34
331 674 m 0,45,46
 113 674 113 674 113 469 c 0,47,48
 113 350 113 350 154.5 303 c 128,-1,49
 196 256 196 256 285 256 c 0,50,51
 396 256 396 256 449.5 314 c 128,-1,52
 503 372 503 372 503 475.5 c 128,-1,53
 503 579 503 579 461.5 626.5 c 128,-1,54
 420 674 420 674 331 674 c 0,45,46
EndSplineSet
EndChar

StartChar: macron
Encoding: 175 175 113
Width: 467
GlyphClass: 2
Flags: W
LayerCount: 2
Fore
SplineSet
352 571 m 1,0,1
 305 575 305 575 224 575 c 128,-1,2
 143 575 143 575 111 567 c 1,3,4
 110 574 110 574 110 597 c 128,-1,5
 110 620 110 620 114 636 c 1,6,7
 154 632 154 632 237.5 632 c 128,-1,8
 321 632 321 632 355 641 c 1,9,10
 357 627 357 627 357 607 c 128,-1,11
 357 587 357 587 352 571 c 1,0,1
EndSplineSet
EndChar

StartChar: degree
Encoding: 176 176 114
Width: 342
GlyphClass: 2
Flags: W
LayerCount: 2
Fore
SplineSet
274.5 651.5 m 128,-1,1
 302 620 302 620 302 555 c 128,-1,2
 302 490 302 490 268 453.5 c 128,-1,3
 234 417 234 417 165 417 c 128,-1,4
 96 417 96 417 68 450 c 128,-1,5
 40 483 40 483 40 546.5 c 128,-1,6
 40 610 40 610 70.5 646.5 c 128,-1,7
 101 683 101 683 174 683 c 128,-1,0
 247 683 247 683 274.5 651.5 c 128,-1,1
180 631 m 0,8,9
 95 631 95 631 95 552 c 0,10,11
 95 506 95 506 111 487.5 c 128,-1,12
 127 469 127 469 166 469 c 128,-1,13
 205 469 205 469 226 491.5 c 128,-1,14
 247 514 247 514 247 554.5 c 128,-1,15
 247 595 247 595 231 613 c 128,-1,16
 215 631 215 631 180 631 c 0,8,9
EndSplineSet
EndChar

StartChar: plusminus
Encoding: 177 177 115
Width: 601
GlyphClass: 2
Flags: W
LayerCount: 2
Fore
SplineSet
259 574 m 1,0,1
 281 581 281 581 307 581 c 128,-1,2
 333 581 333 581 347 578 c 1,3,4
 342 561 342 561 337.5 497.5 c 128,-1,5
 333 434 333 434 333 400 c 1,6,7
 367 400 367 400 430.5 404.5 c 128,-1,8
 494 409 494 409 511 414 c 1,9,10
 514 400 514 400 514 374 c 128,-1,11
 514 348 514 348 507 326 c 1,12,13
 431 333 431 333 333 335 c 1,14,15
 333 227 333 227 342 161 c 1,16,17
 320 154 320 154 294 154 c 128,-1,18
 268 154 268 154 254 157 c 1,19,20
 265 201 265 201 268 335 c 1,21,22
 134 332 134 332 90 321 c 1,23,24
 87 334 87 334 87 360.5 c 128,-1,25
 87 387 87 387 94 409 c 1,26,27
 160 400 160 400 268 400 c 1,28,29
 266 498 266 498 259 574 c 1,0,1
507 -5 m 1,30,31
 415 4 415 4 328.5 4 c 128,-1,32
 242 4 242 4 175 -0.5 c 128,-1,33
 108 -5 108 -5 90 -10 c 1,34,35
 87 3 87 3 87 29.5 c 128,-1,36
 87 56 87 56 94 78 c 1,37,38
 163 69 163 69 261 69 c 0,39,40
 461 69 461 69 511 83 c 1,41,42
 514 70 514 70 514 43.5 c 128,-1,43
 514 17 514 17 507 -5 c 1,30,31
EndSplineSet
EndChar

StartChar: twosuperior
Encoding: 178 178 116
Width: 349
GlyphClass: 2
Flags: W
LayerCount: 2
Fore
SplineSet
171 698 m 128,-1,1
 223 698 223 698 259 670 c 128,-1,2
 295 642 295 642 295 589 c 0,3,4
 295 561 295 561 277.5 529 c 128,-1,5
 260 497 260 497 242.5 477 c 128,-1,6
 225 457 225 457 185.5 416 c 128,-1,7
 146 375 146 375 133 358 c 1,8,-1
 183 358 l 2,9,10
 266 358 266 358 299 369 c 1,11,12
 306 350 306 350 306 332 c 128,-1,13
 306 314 306 314 299 298 c 1,14,15
 250 305 250 305 172 305 c 128,-1,16
 94 305 94 305 41 295 c 1,17,18
 37 315 37 315 37 327 c 1,19,20
 66 374 66 374 116.5 427.5 c 128,-1,21
 167 481 167 481 182 499 c 0,22,23
 227 551 227 551 227 587 c 0,24,25
 227 610 227 610 213.5 628 c 128,-1,26
 200 646 200 646 172.5 646 c 128,-1,27
 145 646 145 646 127.5 631 c 128,-1,28
 110 616 110 616 110 582 c 0,29,30
 110 572 110 572 111 567 c 1,31,32
 99 563 99 563 80.5 563 c 128,-1,33
 62 563 62 563 48 572 c 1,34,35
 45 585 45 585 45 597 c 0,36,37
 45 645 45 645 82 671.5 c 128,-1,0
 119 698 119 698 171 698 c 128,-1,1
EndSplineSet
EndChar

StartChar: threesuperior
Encoding: 179 179 117
Width: 370
GlyphClass: 2
Flags: W
LayerCount: 2
Fore
SplineSet
178 698 m 128,-1,1
 230 698 230 698 266 670 c 128,-1,2
 302 642 302 642 302 586 c 128,-1,3
 302 530 302 530 260 504 c 1,4,5
 316 475 316 475 316 417 c 128,-1,6
 316 359 316 359 280 326.5 c 128,-1,7
 244 294 244 294 166 294 c 128,-1,8
 88 294 88 294 41 338 c 1,9,10
 44 355 44 355 53.5 370 c 128,-1,11
 63 385 63 385 71 392 c 2,12,-1
 79 398 l 1,13,14
 114 347 114 347 169 347 c 0,15,16
 209 347 209 347 228.5 365 c 128,-1,17
 248 383 248 383 248 411 c 0,18,19
 248 457 248 457 208 473 c 1,20,21
 193 472 193 472 168.5 472 c 128,-1,22
 144 472 144 472 125 475 c 1,23,24
 123 487 123 487 123 498.5 c 128,-1,25
 123 510 123 510 131 522 c 1,26,27
 148 516 148 516 176.5 516 c 128,-1,28
 205 516 205 516 220.5 538 c 128,-1,29
 236 560 236 560 236 584.5 c 128,-1,30
 236 609 236 609 221.5 627.5 c 128,-1,31
 207 646 207 646 179.5 646 c 128,-1,32
 152 646 152 646 134.5 631 c 128,-1,33
 117 616 117 616 117 582 c 0,34,35
 117 572 117 572 118 567 c 1,36,37
 106 563 106 563 87.5 563 c 128,-1,38
 69 563 69 563 55 572 c 1,39,40
 52 585 52 585 52 597 c 0,41,42
 52 645 52 645 89 671.5 c 128,-1,0
 126 698 126 698 178 698 c 128,-1,1
EndSplineSet
EndChar

StartChar: acute
Encoding: 180 180 118
Width: 424
GlyphClass: 2
Flags: W
LayerCount: 2
Fore
SplineSet
130 528 m 1,0,1
 115 544 115 544 110 565 c 1,2,3
 129 578 129 578 158 597 c 128,-1,4
 187 616 187 616 200 626 c 0,5,6
 241 654 241 654 274 682 c 1,7,8
 295 664 295 664 304 647.5 c 128,-1,9
 313 631 313 631 314 603 c 1,10,11
 254 579 254 579 130 528 c 1,0,1
EndSplineSet
EndChar

StartChar: mu
Encoding: 181 181 119
Width: 485
GlyphClass: 2
Flags: W
LayerCount: 2
Fore
SplineSet
269 5.5 m 128,-1,1
 244 -5 244 -5 204 -5 c 128,-1,2
 164 -5 164 -5 138 18 c 1,3,4
 143 -99 143 -99 163 -177 c 1,5,6
 133 -188 133 -188 107.5 -188 c 128,-1,7
 82 -188 82 -188 58 -182 c 1,8,9
 78 7 78 7 78 185 c 128,-1,10
 78 363 78 363 60 458 c 1,11,12
 82 467 82 467 110.5 467 c 128,-1,13
 139 467 139 467 166 464 c 1,14,15
 151 327 151 327 151 231 c 128,-1,16
 151 135 151 135 164.5 96 c 128,-1,17
 178 57 178 57 224.5 57 c 128,-1,18
 271 57 271 57 332 118 c 1,19,20
 334 148 334 148 334 207 c 0,21,22
 334 372 334 372 316 458 c 1,23,24
 354 468 354 468 379 468 c 128,-1,25
 404 468 404 468 422 464 c 1,26,27
 407 328 407 328 407 219.5 c 128,-1,28
 407 111 407 111 425 3 c 1,29,30
 395 -6 395 -6 373 -6 c 128,-1,31
 351 -6 351 -6 331 -4 c 1,32,-1
 329 45 l 1,33,0
 294 16 294 16 269 5.5 c 128,-1,1
EndSplineSet
EndChar

StartChar: paragraph
Encoding: 182 182 120
Width: 512
GlyphClass: 2
Flags: W
LayerCount: 2
Fore
SplineSet
408 571 m 1,0,1
 400 501 400 501 400 306 c 128,-1,2
 400 111 400 111 414 -6 c 1,3,4
 397 -8 397 -8 369 -8 c 128,-1,5
 341 -8 341 -8 308 2 c 1,6,7
 321 45 321 45 325 280 c 1,8,9
 305 275 305 275 279 275 c 0,10,11
 177 275 177 275 126 330 c 128,-1,12
 75 385 75 385 75 465 c 0,13,14
 75 655 75 655 293 655 c 0,15,16
 406 655 406 655 484 617 c 1,17,18
 484 590 484 590 477 568.5 c 128,-1,19
 470 547 470 547 463 541 c 1,20,21
 438 559 438 559 408 571 c 1,0,1
315 597 m 1,22,-1
 294 598 l 1,23,24
 162 598 162 598 162 469 c 0,25,26
 162 420 162 420 186 381 c 128,-1,27
 210 342 210 342 265 342 c 0,28,29
 298 342 298 342 325 358 c 1,30,31
 325 496 325 496 315 597 c 1,22,-1
EndSplineSet
EndChar

StartChar: periodcentered
Encoding: 183 183 121
Width: 270
GlyphClass: 2
Flags: W
LayerCount: 2
Fore
SplineSet
220 253 m 0,0,1
 220 223 220 223 202 203 c 128,-1,2
 184 183 184 183 147 183 c 0,3,4
 90 183 90 183 90 241 c 0,5,6
 90 313 90 313 163 313 c 0,7,8
 220 313 220 313 220 253 c 0,0,1
EndSplineSet
EndChar

StartChar: cedilla
Encoding: 184 184 122
Width: 502
GlyphClass: 2
Flags: W
LayerCount: 2
Fore
SplineSet
337 -124 m 0,0,1
 337 -210 337 -210 226 -210 c 0,2,3
 181 -210 181 -210 152 -198 c 1,4,5
 151 -195 151 -195 151 -179.5 c 128,-1,6
 151 -164 151 -164 164 -144 c 1,7,8
 186 -164 186 -164 227.5 -164 c 128,-1,9
 269 -164 269 -164 269 -125 c 0,10,11
 269 -95 269 -95 224 -95 c 0,12,13
 204 -95 204 -95 176 -99 c 1,14,-1
 192 -10 l 1,15,-1
 234 -1 l 1,16,-1
 236 -54 l 1,17,18
 337 -58 337 -58 337 -124 c 0,0,1
EndSplineSet
EndChar

StartChar: onesuperior
Encoding: 185 185 123
Width: 285
GlyphClass: 2
Flags: W
LayerCount: 2
Fore
SplineSet
200 694 m 1,0,1
 191 628 191 628 191 487 c 128,-1,2
 191 346 191 346 203 307 c 1,3,4
 182 298 182 298 162 298 c 128,-1,5
 142 298 142 298 120 300 c 1,6,7
 130 375 130 375 130 478 c 128,-1,8
 130 581 130 581 127 616 c 1,9,10
 76 582 76 582 59 565 c 1,11,12
 29 599 29 599 23 628 c 1,13,14
 70 647 70 647 155 698 c 1,15,16
 192 698 192 698 200 694 c 1,0,1
EndSplineSet
EndChar

StartChar: ordmasculine
Encoding: 186 186 124
Width: 331
GlyphClass: 2
Flags: W
LayerCount: 2
Fore
SplineSet
50 526 m 0,0,1
 50 673 50 673 165.5 673 c 128,-1,2
 281 673 281 673 281 526 c 0,3,4
 281 455 281 455 256 414 c 128,-1,5
 231 373 231 373 165 373 c 128,-1,6
 99 373 99 373 74.5 414 c 128,-1,7
 50 455 50 455 50 526 c 0,0,1
165 425 m 128,-1,9
 222 425 222 425 222 527.5 c 128,-1,10
 222 630 222 630 165 630 c 128,-1,11
 108 630 108 630 108 527.5 c 128,-1,8
 108 425 108 425 165 425 c 128,-1,9
54 262 m 1,12,13
 48 274 48 274 48 289.5 c 128,-1,14
 48 305 48 305 54 326 c 1,15,16
 252 340 252 340 276 345 c 1,17,18
 282 333 282 333 282 317.5 c 128,-1,19
 282 302 282 302 276 281 c 1,20,21
 78 267 78 267 54 262 c 1,12,13
EndSplineSet
EndChar

StartChar: guillemotright
Encoding: 187 187 125
Width: 495
GlyphClass: 2
Flags: W
LayerCount: 2
Fore
SplineSet
348 280 m 1,0,-1
 267 426 l 1,1,2
 284 443 284 443 315 452 c 1,3,4
 333 430 333 430 356 402 c 128,-1,5
 379 374 379 374 392 358 c 0,6,7
 421 322 421 322 465 280 c 1,8,9
 421 238 421 238 400 212 c 128,-1,10
 379 186 379 186 356 158 c 128,-1,11
 333 130 333 130 315 108 c 1,12,13
 288 114 288 114 267 134 c 1,14,15
 341 267 341 267 348 280 c 1,0,-1
70 426 m 1,16,17
 90 444 90 444 118 452 c 1,18,19
 136 430 136 430 159 402 c 128,-1,20
 182 374 182 374 194 358 c 1,21,22
 224 322 224 322 268 280 c 1,23,24
 224 238 224 238 203 212 c 128,-1,25
 182 186 182 186 159 158 c 128,-1,26
 136 130 136 130 118 108 c 1,27,28
 93 113 93 113 70 134 c 1,29,30
 118 218 118 218 151 280 c 1,31,32
 149 284 149 284 70 426 c 1,16,17
EndSplineSet
EndChar

StartChar: onequarter
Encoding: 188 188 126
Width: 889
GlyphClass: 2
Flags: W
LayerCount: 2
Fore
SplineSet
305 -46 m 0,0,1
 271 -46 271 -46 248 -27 c 1,2,3
 372 265 372 265 502 686 c 1,4,5
 518 688 518 688 528 688 c 0,6,7
 556 688 556 688 581 670 c 1,8,9
 460 391 460 391 326 -44 c 1,10,11
 310 -46 310 -46 305 -46 c 0,0,1
758 76 m 1,12,-1
 730 79 l 1,13,14
 733 21 733 21 739 4 c 1,15,16
 718 -5 718 -5 698 -5 c 128,-1,17
 678 -5 678 -5 656 -3 c 1,18,19
 662 50 662 50 663 82 c 1,20,-1
 619 82 l 2,21,22
 538 82 538 82 490 79 c 1,23,24
 485 92 485 92 485 110 c 1,25,-1
 511 153 l 2,26,27
 593 290 593 290 635 383 c 1,28,29
 658 392 658 392 680 392 c 128,-1,30
 702 392 702 392 736 389 c 1,31,32
 727 321 727 321 727 242 c 128,-1,33
 727 163 727 163 728 141 c 1,34,35
 751 144 751 144 759 147 c 1,36,37
 765 129 765 129 765 114 c 128,-1,38
 765 99 765 99 758 76 c 1,12,-1
665 136 m 1,39,40
 666 155 666 155 666 207.5 c 128,-1,41
 666 260 666 260 663 327 c 1,42,43
 619 254 619 254 565 135 c 1,44,45
 649 135 649 135 665 136 c 1,39,40
257 649 m 1,46,47
 248 583 248 583 248 442 c 128,-1,48
 248 301 248 301 260 262 c 1,49,50
 239 253 239 253 219 253 c 128,-1,51
 199 253 199 253 177 255 c 1,52,53
 187 330 187 330 187 433 c 128,-1,54
 187 536 187 536 184 571 c 1,55,56
 133 537 133 537 116 520 c 1,57,58
 86 554 86 554 80 583 c 1,59,60
 127 602 127 602 212 653 c 1,61,62
 249 653 249 653 257 649 c 1,46,47
EndSplineSet
EndChar

StartChar: onehalf
Encoding: 189 189 127
Width: 889
GlyphClass: 2
Flags: W
LayerCount: 2
Fore
SplineSet
294 -46 m 0,0,1
 260 -46 260 -46 237 -27 c 1,2,3
 361 265 361 265 491 686 c 1,4,5
 507 688 507 688 517 688 c 0,6,7
 545 688 545 688 570 670 c 1,8,9
 449 391 449 391 315 -44 c 1,10,11
 299 -46 299 -46 294 -46 c 0,0,1
643 395 m 128,-1,13
 695 395 695 395 731 367 c 128,-1,14
 767 339 767 339 767 286 c 0,15,16
 767 258 767 258 749.5 226 c 128,-1,17
 732 194 732 194 714.5 174 c 128,-1,18
 697 154 697 154 657.5 113 c 128,-1,19
 618 72 618 72 605 55 c 1,20,-1
 655 55 l 2,21,22
 738 55 738 55 771 66 c 1,23,24
 778 47 778 47 778 29 c 128,-1,25
 778 11 778 11 771 -5 c 1,26,27
 722 2 722 2 644 2 c 128,-1,28
 566 2 566 2 513 -8 c 1,29,30
 509 12 509 12 509 24 c 1,31,32
 538 71 538 71 588.5 124.5 c 128,-1,33
 639 178 639 178 654 196 c 0,34,35
 699 248 699 248 699 284 c 0,36,37
 699 307 699 307 685.5 325 c 128,-1,38
 672 343 672 343 644.5 343 c 128,-1,39
 617 343 617 343 599.5 328 c 128,-1,40
 582 313 582 313 582 279 c 0,41,42
 582 269 582 269 583 264 c 1,43,44
 571 260 571 260 552.5 260 c 128,-1,45
 534 260 534 260 520 269 c 1,46,47
 517 283 517 283 517 294 c 0,48,49
 517 342 517 342 554 368.5 c 128,-1,12
 591 395 591 395 643 395 c 128,-1,13
257 649 m 1,50,51
 248 583 248 583 248 442 c 128,-1,52
 248 301 248 301 260 262 c 1,53,54
 239 253 239 253 219 253 c 128,-1,55
 199 253 199 253 177 255 c 1,56,57
 187 330 187 330 187 433 c 128,-1,58
 187 536 187 536 184 571 c 1,59,60
 133 537 133 537 116 520 c 1,61,62
 86 554 86 554 80 583 c 1,63,64
 127 602 127 602 212 653 c 1,65,66
 249 653 249 653 257 649 c 1,50,51
EndSplineSet
EndChar

StartChar: threequarters
Encoding: 190 190 128
Width: 889
GlyphClass: 2
Flags: W
LayerCount: 2
Fore
SplineSet
335 -46 m 0,0,1
 301 -46 301 -46 278 -27 c 1,2,3
 402 265 402 265 532 686 c 1,4,5
 548 688 548 688 558 688 c 0,6,7
 586 688 586 688 611 670 c 1,8,9
 490 391 490 391 356 -44 c 1,10,11
 340 -46 340 -46 335 -46 c 0,0,1
758 76 m 1,12,-1
 730 79 l 1,13,14
 733 21 733 21 739 4 c 1,15,16
 718 -5 718 -5 698 -5 c 128,-1,17
 678 -5 678 -5 656 -3 c 1,18,19
 662 50 662 50 663 82 c 1,20,-1
 619 82 l 2,21,22
 538 82 538 82 490 79 c 1,23,24
 485 92 485 92 485 110 c 1,25,-1
 511 153 l 2,26,27
 593 290 593 290 635 383 c 1,28,29
 658 392 658 392 680 392 c 128,-1,30
 702 392 702 392 736 389 c 1,31,32
 727 321 727 321 727 242 c 128,-1,33
 727 163 727 163 728 141 c 1,34,35
 751 144 751 144 759 147 c 1,36,37
 765 129 765 129 765 114 c 128,-1,38
 765 99 765 99 758 76 c 1,12,-1
665 136 m 1,39,40
 666 155 666 155 666 207.5 c 128,-1,41
 666 260 666 260 663 327 c 1,42,43
 619 254 619 254 565 135 c 1,44,45
 649 135 649 135 665 136 c 1,39,40
210 653 m 128,-1,47
 262 653 262 653 298 625 c 128,-1,48
 334 597 334 597 334 541 c 128,-1,49
 334 485 334 485 292 459 c 1,50,51
 348 430 348 430 348 372 c 128,-1,52
 348 314 348 314 312 281.5 c 128,-1,53
 276 249 276 249 198 249 c 128,-1,54
 120 249 120 249 73 293 c 1,55,56
 76 310 76 310 85.5 325 c 128,-1,57
 95 340 95 340 103 346 c 2,58,-1
 111 353 l 1,59,60
 146 302 146 302 201 302 c 0,61,62
 241 302 241 302 260.5 320 c 128,-1,63
 280 338 280 338 280 366 c 0,64,65
 280 412 280 412 240 428 c 1,66,67
 225 427 225 427 200.5 427 c 128,-1,68
 176 427 176 427 157 430 c 1,69,70
 155 442 155 442 155 453.5 c 128,-1,71
 155 465 155 465 163 477 c 1,72,73
 180 471 180 471 208.5 471 c 128,-1,74
 237 471 237 471 252.5 493 c 128,-1,75
 268 515 268 515 268 539.5 c 128,-1,76
 268 564 268 564 253.5 582.5 c 128,-1,77
 239 601 239 601 211.5 601 c 128,-1,78
 184 601 184 601 166.5 586 c 128,-1,79
 149 571 149 571 149 537 c 0,80,81
 149 527 149 527 150 522 c 1,82,83
 138 518 138 518 119.5 518 c 128,-1,84
 101 518 101 518 87 527 c 1,85,86
 84 540 84 540 84 552 c 0,87,88
 84 600 84 600 121 626.5 c 128,-1,46
 158 653 158 653 210 653 c 128,-1,47
EndSplineSet
EndChar

StartChar: questiondown
Encoding: 191 191 129
Width: 427
GlyphClass: 2
Flags: W
LayerCount: 2
Fore
SplineSet
360 -176 m 1,0,-1
 359 -187 l 1,1,2
 306 -210 306 -210 228 -210 c 128,-1,3
 150 -210 150 -210 95.5 -169.5 c 128,-1,4
 41 -129 41 -129 41 -67 c 0,5,6
 41 -31 41 -31 59 -1 c 128,-1,7
 77 29 77 29 102.5 49.5 c 128,-1,8
 128 70 128 70 154 89 c 0,9,10
 215 135 215 135 215 180 c 128,-1,11
 215 225 215 225 187 257 c 1,12,13
 213 289 213 289 249 292 c 1,14,15
 283 224 283 224 283 174 c 128,-1,16
 283 124 283 124 225 66 c 0,17,18
 217 58 217 58 191.5 34.5 c 128,-1,19
 166 11 166 11 156 0 c 0,20,21
 124 -37 124 -37 124 -72.5 c 128,-1,22
 124 -108 124 -108 152.5 -130 c 128,-1,23
 181 -152 181 -152 233.5 -152 c 128,-1,24
 286 -152 286 -152 340 -112 c 1,25,26
 360 -145 360 -145 360 -176 c 1,0,-1
162 408 m 0,27,28
 162 438 162 438 180 458 c 128,-1,29
 198 478 198 478 235 478 c 0,30,31
 292 478 292 478 292 420 c 0,32,33
 292 348 292 348 219 348 c 0,34,35
 162 348 162 348 162 408 c 0,27,28
EndSplineSet
EndChar

StartChar: Agrave
Encoding: 192 192 130
Width: 562
GlyphClass: 2
Flags: W
LayerCount: 2
Fore
SplineSet
396 178 m 1,0,1
 347 181 347 181 273.5 181 c 128,-1,2
 200 181 200 181 149 177 c 1,3,4
 119 53 119 53 105 -10 c 1,5,6
 87 -12 87 -12 69.5 -12 c 128,-1,7
 52 -12 52 -12 14 -2 c 1,8,9
 177 432 177 432 204 639 c 1,10,11
 233 649 233 649 280 649 c 128,-1,12
 327 649 327 649 356 639 c 1,13,14
 383 432 383 432 546 -2 c 1,15,16
 510 -12 510 -12 482.5 -12 c 128,-1,17
 455 -12 455 -12 440 -10 c 1,18,19
 423 65 423 65 396 178 c 1,0,1
166 247 m 1,20,21
 212 246 212 246 263 246 c 128,-1,22
 314 246 314 246 378 248 c 1,23,24
 333 423 333 423 279 578 c 1,25,-1
 273 578 l 1,26,27
 214 430 214 430 166 247 c 1,20,21
338 704 m 1,28,29
 275 717 275 717 158 759 c 1,30,31
 158 792 158 792 164.5 807.5 c 128,-1,32
 171 823 171 823 191 845 c 1,33,34
 229 813 229 813 256.5 797.5 c 128,-1,35
 284 782 284 782 290.5 778 c 128,-1,36
 297 774 297 774 322 760 c 128,-1,37
 347 746 347 746 354 742 c 1,38,39
 351 721 351 721 338 704 c 1,28,29
EndSplineSet
EndChar

StartChar: Aacute
Encoding: 193 193 131
Width: 562
GlyphClass: 2
Flags: W
LayerCount: 2
Fore
SplineSet
396 178 m 1,0,1
 347 181 347 181 273.5 181 c 128,-1,2
 200 181 200 181 149 177 c 1,3,4
 119 53 119 53 105 -10 c 1,5,6
 87 -12 87 -12 69.5 -12 c 128,-1,7
 52 -12 52 -12 14 -2 c 1,8,9
 177 432 177 432 204 639 c 1,10,11
 233 649 233 649 280 649 c 128,-1,12
 327 649 327 649 356 639 c 1,13,14
 383 432 383 432 546 -2 c 1,15,16
 510 -12 510 -12 482.5 -12 c 128,-1,17
 455 -12 455 -12 440 -10 c 1,18,19
 423 65 423 65 396 178 c 1,0,1
166 247 m 1,20,21
 212 246 212 246 263 246 c 128,-1,22
 314 246 314 246 378 248 c 1,23,24
 333 423 333 423 279 578 c 1,25,-1
 273 578 l 1,26,27
 214 430 214 430 166 247 c 1,20,21
397 768 m 0,28,29
 397 756 397 756 396 750 c 1,30,31
 273 713 273 713 214 704 c 1,32,33
 201 721 201 721 199 743 c 1,34,35
 220 754 220 754 249.5 769 c 128,-1,36
 279 784 279 784 294 792 c 0,37,38
 338 816 338 816 367 838 c 1,39,40
 397 805 397 805 397 768 c 0,28,29
EndSplineSet
EndChar

StartChar: Acircumflex
Encoding: 194 194 132
Width: 562
GlyphClass: 2
Flags: W
LayerCount: 2
Fore
SplineSet
396 178 m 1,0,1
 347 181 347 181 273.5 181 c 128,-1,2
 200 181 200 181 149 177 c 1,3,4
 119 53 119 53 105 -10 c 1,5,6
 87 -12 87 -12 69.5 -12 c 128,-1,7
 52 -12 52 -12 14 -2 c 1,8,9
 177 432 177 432 204 639 c 1,10,11
 233 649 233 649 280 649 c 128,-1,12
 327 649 327 649 356 639 c 1,13,14
 383 432 383 432 546 -2 c 1,15,16
 510 -12 510 -12 482.5 -12 c 128,-1,17
 455 -12 455 -12 440 -10 c 1,18,19
 423 65 423 65 396 178 c 1,0,1
166 247 m 1,20,21
 212 246 212 246 263 246 c 128,-1,22
 314 246 314 246 378 248 c 1,23,24
 333 423 333 423 279 578 c 1,25,-1
 273 578 l 1,26,27
 214 430 214 430 166 247 c 1,20,21
409 704 m 1,28,29
 341 725 341 725 282 756 c 1,30,31
 195 716 195 716 147 704 c 1,32,33
 135 722 135 722 132 743 c 1,34,35
 153 757 153 757 171 766 c 128,-1,36
 189 775 189 775 203.5 784 c 128,-1,37
 218 793 218 793 225 798 c 128,-1,38
 232 803 232 803 244 811 c 0,39,40
 258 821 258 821 282 845 c 1,41,42
 326 803 326 803 425 742 c 1,43,44
 422 721 422 721 409 704 c 1,28,29
EndSplineSet
EndChar

StartChar: Atilde
Encoding: 195 195 133
Width: 562
GlyphClass: 2
Flags: W
LayerCount: 2
Fore
SplineSet
396 178 m 1,0,1
 347 181 347 181 273.5 181 c 128,-1,2
 200 181 200 181 149 177 c 1,3,4
 119 53 119 53 105 -10 c 1,5,6
 87 -12 87 -12 69.5 -12 c 128,-1,7
 52 -12 52 -12 14 -2 c 1,8,9
 177 432 177 432 204 639 c 1,10,11
 233 649 233 649 280 649 c 128,-1,12
 327 649 327 649 356 639 c 1,13,14
 383 432 383 432 546 -2 c 1,15,16
 510 -12 510 -12 482.5 -12 c 128,-1,17
 455 -12 455 -12 440 -10 c 1,18,19
 423 65 423 65 396 178 c 1,0,1
166 247 m 1,20,21
 212 246 212 246 263 246 c 128,-1,22
 314 246 314 246 378 248 c 1,23,24
 333 423 333 423 279 578 c 1,25,-1
 273 578 l 1,26,27
 214 430 214 430 166 247 c 1,20,21
379 724 m 128,-1,29
 349 704 349 704 324 704 c 128,-1,30
 299 704 299 704 267.5 720.5 c 128,-1,31
 236 737 236 737 218 737 c 0,32,33
 182 737 182 737 164 705 c 1,34,35
 137 716 137 716 132 737 c 1,36,37
 147 763 147 763 177 783 c 128,-1,38
 207 803 207 803 233.5 803 c 128,-1,39
 260 803 260 803 291.5 786.5 c 128,-1,40
 323 770 323 770 338 770 c 0,41,42
 374 770 374 770 392 802 c 1,43,44
 419 791 419 791 424 770 c 1,45,28
 409 744 409 744 379 724 c 128,-1,29
EndSplineSet
EndChar

StartChar: Adieresis
Encoding: 196 196 134
Width: 562
GlyphClass: 2
Flags: W
LayerCount: 2
Fore
SplineSet
396 178 m 1,0,1
 347 181 347 181 273.5 181 c 128,-1,2
 200 181 200 181 149 177 c 1,3,4
 119 53 119 53 105 -10 c 1,5,6
 87 -12 87 -12 69.5 -12 c 128,-1,7
 52 -12 52 -12 14 -2 c 1,8,9
 177 432 177 432 204 639 c 1,10,11
 233 649 233 649 280 649 c 128,-1,12
 327 649 327 649 356 639 c 1,13,14
 383 432 383 432 546 -2 c 1,15,16
 510 -12 510 -12 482.5 -12 c 128,-1,17
 455 -12 455 -12 440 -10 c 1,18,19
 423 65 423 65 396 178 c 1,0,1
166 247 m 1,20,21
 212 246 212 246 263 246 c 128,-1,22
 314 246 314 246 378 248 c 1,23,24
 333 423 333 423 279 578 c 1,25,-1
 273 578 l 1,26,27
 214 430 214 430 166 247 c 1,20,21
407 759 m 0,28,29
 407 704 407 704 349 704 c 0,30,31
 304 704 304 704 304 750 c 0,32,33
 304 806 304 806 362 806 c 0,34,35
 407 806 407 806 407 759 c 0,28,29
257 759 m 0,36,37
 257 704 257 704 199 704 c 0,38,39
 154 704 154 704 154 750 c 0,40,41
 154 806 154 806 212 806 c 0,42,43
 257 806 257 806 257 759 c 0,36,37
EndSplineSet
EndChar

StartChar: Aring
Encoding: 197 197 135
Width: 562
GlyphClass: 2
Flags: W
LayerCount: 2
Fore
SplineSet
396 178 m 1,0,1
 347 181 347 181 273.5 181 c 128,-1,2
 200 181 200 181 149 177 c 1,3,4
 119 53 119 53 105 -10 c 1,5,6
 87 -12 87 -12 69.5 -12 c 128,-1,7
 52 -12 52 -12 14 -2 c 1,8,9
 177 432 177 432 204 639 c 1,10,11
 233 649 233 649 280 649 c 128,-1,12
 327 649 327 649 356 639 c 1,13,14
 383 432 383 432 546 -2 c 1,15,16
 510 -12 510 -12 482.5 -12 c 128,-1,17
 455 -12 455 -12 440 -10 c 1,18,19
 423 65 423 65 396 178 c 1,0,1
166 247 m 1,20,21
 212 246 212 246 263 246 c 128,-1,22
 314 246 314 246 378 248 c 1,23,24
 333 423 333 423 279 578 c 1,25,-1
 273 578 l 1,26,27
 214 430 214 430 166 247 c 1,20,21
367 783 m 0,28,29
 367 704 367 704 273 704 c 0,30,31
 230 704 230 704 211.5 723 c 128,-1,32
 193 742 193 742 193 781 c 0,33,34
 193 860 193 860 287 860 c 0,35,36
 331 860 331 860 349 842 c 128,-1,37
 367 824 367 824 367 783 c 0,28,29
285 823 m 0,38,39
 232 823 232 823 232 783 c 0,40,41
 232 760 232 760 242 750.5 c 128,-1,42
 252 741 252 741 275 741 c 0,43,44
 328 741 328 741 328 784 c 0,45,46
 328 805 328 805 318 814 c 128,-1,47
 308 823 308 823 285 823 c 0,38,39
EndSplineSet
EndChar

StartChar: AE
Encoding: 198 198 136
Width: 777
GlyphClass: 2
Flags: W
LayerCount: 2
Fore
SplineSet
476 76 m 1,0,1
 511 73 511 73 584.5 73 c 128,-1,2
 658 73 658 73 711 82 c 1,3,4
 719 56 719 56 719 31.5 c 128,-1,5
 719 7 719 7 715 -11 c 1,6,7
 696 -6 696 -6 635 -1.5 c 128,-1,8
 574 3 574 3 514 3 c 128,-1,9
 454 3 454 3 388 -4 c 1,10,11
 388 77 388 77 380 179 c 1,12,13
 298 181 298 181 255.5 181 c 128,-1,14
 213 181 213 181 168 177 c 1,15,16
 143 110 143 110 106 -6 c 1,17,18
 92 -8 92 -8 69 -8 c 128,-1,19
 46 -8 46 -8 12 2 c 1,20,21
 220 450 220 450 261 646 c 1,22,23
 317 639 317 639 456 639 c 2,24,-1
 517 639 l 2,25,26
 551 639 551 639 611.5 643.5 c 128,-1,27
 672 648 672 648 690 653 c 1,28,29
 694 635 694 635 694 613 c 128,-1,30
 694 591 694 591 686 565 c 1,31,32
 633 574 633 574 542.5 574 c 128,-1,33
 452 574 452 574 423 571 c 1,34,35
 424 508 424 508 438 365 c 1,36,37
 458 364 458 364 537 364 c 128,-1,38
 616 364 616 364 665 375 c 1,39,40
 670 343 670 343 670 322.5 c 128,-1,41
 670 302 670 302 669 289 c 1,42,43
 622 297 622 297 553 297 c 128,-1,44
 484 297 484 297 446 295 c 1,45,46
 461 149 461 149 476 76 c 1,0,1
375 248 m 1,47,-1
 369 310 l 1,48,49
 348 483 348 483 330 578 c 1,50,-1
 323 578 l 1,51,52
 257 419 257 419 193 247 c 1,53,54
 236 246 236 246 293 246 c 128,-1,55
 350 246 350 246 375 248 c 1,47,-1
EndSplineSet
EndChar

StartChar: Ccedilla
Encoding: 199 199 137
Width: 536
GlyphClass: 2
Flags: W
LayerCount: 2
Fore
SplineSet
303 -15 m 1,0,-1
 293 -14 l 1,1,-1
 295 -54 l 1,2,3
 396 -58 396 -58 396 -124 c 0,4,5
 396 -210 396 -210 285 -210 c 0,6,7
 240 -210 240 -210 211 -198 c 1,8,9
 210 -195 210 -195 210 -179.5 c 128,-1,10
 210 -164 210 -164 223 -144 c 1,11,12
 245 -164 245 -164 286.5 -164 c 128,-1,13
 328 -164 328 -164 328 -125 c 0,14,15
 328 -95 328 -95 283 -95 c 0,16,17
 263 -95 263 -95 235 -99 c 1,18,-1
 250 -11 l 1,19,20
 114 8 114 8 76 143 c 0,21,22
 55 215 55 215 55 327 c 0,23,24
 55 655 55 655 303 655 c 0,25,26
 403 655 403 655 452 605.5 c 128,-1,27
 501 556 501 556 501 478 c 0,28,29
 501 465 501 465 498 453 c 1,30,31
 481 444 481 444 456.5 444 c 128,-1,32
 432 444 432 444 408 446 c 1,33,34
 409 454 409 454 409 467 c 0,35,36
 409 526 409 526 381 561 c 128,-1,37
 353 596 353 596 303 596 c 0,38,39
 137 596 137 596 137 327.5 c 128,-1,40
 137 59 137 59 303 59 c 0,41,42
 342 59 342 59 384 78 c 128,-1,43
 426 97 426 97 455 130 c 1,44,45
 486 105 486 105 495 51 c 1,46,47
 406 -15 406 -15 303 -15 c 1,0,-1
EndSplineSet
EndChar

StartChar: Egrave
Encoding: 200 200 138
Width: 519
GlyphClass: 2
Flags: W
LayerCount: 2
Fore
SplineSet
357 704 m 1,0,1
 294 717 294 717 177 759 c 1,2,3
 177 792 177 792 183.5 807.5 c 128,-1,4
 190 823 190 823 210 845 c 1,5,6
 248 813 248 813 275.5 797.5 c 128,-1,7
 303 782 303 782 309.5 778 c 128,-1,8
 316 774 316 774 341 760 c 128,-1,9
 366 746 366 746 373 742 c 1,10,11
 370 721 370 721 357 704 c 1,0,1
195 76 m 1,12,13
 230 73 230 73 316 73 c 128,-1,14
 402 73 402 73 455 82 c 1,15,16
 463 56 463 56 463 31.5 c 128,-1,17
 463 7 463 7 459 -11 c 1,18,19
 440 -6 440 -6 379 -1.5 c 128,-1,20
 318 3 318 3 242 3 c 128,-1,21
 166 3 166 3 99 -4 c 1,22,23
 113 134 113 134 113 331 c 128,-1,24
 113 528 113 528 94 646 c 1,25,26
 161 639 161 639 238 639 c 128,-1,27
 315 639 315 639 375.5 643.5 c 128,-1,28
 436 648 436 648 454 653 c 1,29,30
 458 635 458 635 458 613 c 128,-1,31
 458 591 458 591 450 565 c 1,32,33
 397 574 397 574 313 574 c 128,-1,34
 229 574 229 574 194 571 c 1,35,36
 188 514 188 514 188 365 c 1,37,38
 209 364 209 364 289 364 c 128,-1,39
 369 364 369 364 419 375 c 1,40,41
 424 343 424 343 424 322.5 c 128,-1,42
 424 302 424 302 423 289 c 1,43,44
 376 297 376 297 304 297 c 128,-1,45
 232 297 232 297 188 295 c 1,46,47
 188 164 188 164 195 76 c 1,12,13
EndSplineSet
EndChar

StartChar: Eacute
Encoding: 201 201 139
Width: 519
GlyphClass: 2
Flags: W
LayerCount: 2
Fore
SplineSet
195 76 m 1,0,1
 230 73 230 73 316 73 c 128,-1,2
 402 73 402 73 455 82 c 1,3,4
 463 56 463 56 463 31.5 c 128,-1,5
 463 7 463 7 459 -11 c 1,6,7
 440 -6 440 -6 379 -1.5 c 128,-1,8
 318 3 318 3 242 3 c 128,-1,9
 166 3 166 3 99 -4 c 1,10,11
 113 134 113 134 113 331 c 128,-1,12
 113 528 113 528 94 646 c 1,13,14
 161 639 161 639 238 639 c 128,-1,15
 315 639 315 639 375.5 643.5 c 128,-1,16
 436 648 436 648 454 653 c 1,17,18
 458 635 458 635 458 613 c 128,-1,19
 458 591 458 591 450 565 c 1,20,21
 397 574 397 574 313 574 c 128,-1,22
 229 574 229 574 194 571 c 1,23,24
 188 514 188 514 188 365 c 1,25,26
 209 364 209 364 289 364 c 128,-1,27
 369 364 369 364 419 375 c 1,28,29
 424 343 424 343 424 322.5 c 128,-1,30
 424 302 424 302 423 289 c 1,31,32
 376 297 376 297 293.5 297 c 128,-1,33
 211 297 211 297 188 295 c 1,34,35
 188 164 188 164 195 76 c 1,0,1
406 768 m 0,36,37
 406 756 406 756 405 750 c 1,38,39
 282 713 282 713 223 704 c 1,40,41
 210 721 210 721 208 743 c 1,42,43
 229 754 229 754 258.5 769 c 128,-1,44
 288 784 288 784 303 792 c 0,45,46
 347 816 347 816 376 838 c 1,47,48
 406 805 406 805 406 768 c 0,36,37
EndSplineSet
EndChar

StartChar: Ecircumflex
Encoding: 202 202 140
Width: 519
GlyphClass: 2
Flags: W
LayerCount: 2
Fore
SplineSet
195 76 m 1,0,1
 230 73 230 73 316 73 c 128,-1,2
 402 73 402 73 455 82 c 1,3,4
 463 56 463 56 463 31.5 c 128,-1,5
 463 7 463 7 459 -11 c 1,6,7
 440 -6 440 -6 379 -1.5 c 128,-1,8
 318 3 318 3 242 3 c 128,-1,9
 166 3 166 3 99 -4 c 1,10,11
 113 134 113 134 113 331 c 128,-1,12
 113 528 113 528 94 646 c 1,13,14
 161 639 161 639 238 639 c 128,-1,15
 315 639 315 639 375.5 643.5 c 128,-1,16
 436 648 436 648 454 653 c 1,17,18
 458 635 458 635 458 613 c 128,-1,19
 458 591 458 591 450 565 c 1,20,21
 397 574 397 574 313 574 c 128,-1,22
 229 574 229 574 194 571 c 1,23,24
 188 514 188 514 188 365 c 1,25,26
 209 364 209 364 289 364 c 128,-1,27
 369 364 369 364 419 375 c 1,28,29
 424 343 424 343 424 322.5 c 128,-1,30
 424 302 424 302 423 289 c 1,31,32
 376 297 376 297 304 297 c 128,-1,33
 232 297 232 297 188 295 c 1,34,35
 188 164 188 164 195 76 c 1,0,1
412 704 m 1,36,37
 344 725 344 725 285 756 c 1,38,39
 198 716 198 716 150 704 c 1,40,41
 138 722 138 722 135 743 c 1,42,43
 156 757 156 757 174 766 c 128,-1,44
 192 775 192 775 206.5 784 c 128,-1,45
 221 793 221 793 228 798 c 128,-1,46
 235 803 235 803 246 811 c 0,47,48
 261 821 261 821 285 845 c 1,49,50
 329 803 329 803 428 742 c 1,51,52
 425 721 425 721 412 704 c 1,36,37
EndSplineSet
EndChar

StartChar: Edieresis
Encoding: 203 203 141
Width: 519
GlyphClass: 2
Flags: W
LayerCount: 2
Fore
SplineSet
406 759 m 0,0,1
 406 704 406 704 348 704 c 0,2,3
 303 704 303 704 303 750 c 0,4,5
 303 806 303 806 361 806 c 0,6,7
 406 806 406 806 406 759 c 0,0,1
256 759 m 0,8,9
 256 704 256 704 198 704 c 0,10,11
 153 704 153 704 153 750 c 0,12,13
 153 806 153 806 211 806 c 0,14,15
 256 806 256 806 256 759 c 0,8,9
195 76 m 1,16,17
 230 73 230 73 316 73 c 128,-1,18
 402 73 402 73 455 82 c 1,19,20
 463 56 463 56 463 31.5 c 128,-1,21
 463 7 463 7 459 -11 c 1,22,23
 440 -6 440 -6 379 -1.5 c 128,-1,24
 318 3 318 3 242 3 c 128,-1,25
 166 3 166 3 99 -4 c 1,26,27
 113 134 113 134 113 331 c 128,-1,28
 113 528 113 528 94 646 c 1,29,30
 161 639 161 639 238 639 c 128,-1,31
 315 639 315 639 375.5 643.5 c 128,-1,32
 436 648 436 648 454 653 c 1,33,34
 458 635 458 635 458 613 c 128,-1,35
 458 591 458 591 450 565 c 1,36,37
 397 574 397 574 313 574 c 128,-1,38
 229 574 229 574 194 571 c 1,39,40
 188 514 188 514 188 365 c 1,41,42
 209 364 209 364 289 364 c 128,-1,43
 369 364 369 364 419 375 c 1,44,45
 424 343 424 343 424 322.5 c 128,-1,46
 424 302 424 302 423 289 c 1,47,48
 376 297 376 297 304 297 c 128,-1,49
 232 297 232 297 188 295 c 1,50,51
 188 164 188 164 195 76 c 1,16,17
EndSplineSet
EndChar

StartChar: Igrave
Encoding: 204 204 142
Width: 317
GlyphClass: 2
Flags: W
LayerCount: 2
Fore
SplineSet
106 -6 m 1,0,1
 120 111 120 111 120 327 c 128,-1,2
 120 543 120 543 103 639 c 1,3,4
 129 649 129 649 155 649 c 128,-1,5
 181 649 181 649 209 647 c 1,6,7
 195 536 195 536 195 296 c 128,-1,8
 195 56 195 56 212 2 c 1,9,10
 179 -8 179 -8 151 -8 c 128,-1,11
 123 -8 123 -8 106 -6 c 1,0,1
237 704 m 1,12,13
 174 717 174 717 57 759 c 1,14,15
 57 792 57 792 63.5 807.5 c 128,-1,16
 70 823 70 823 90 845 c 1,17,18
 128 813 128 813 155.5 797.5 c 128,-1,19
 183 782 183 782 189.5 778 c 128,-1,20
 196 774 196 774 221 760 c 128,-1,21
 246 746 246 746 253 742 c 1,22,23
 250 721 250 721 237 704 c 1,12,13
EndSplineSet
EndChar

StartChar: Iacute
Encoding: 205 205 143
Width: 317
GlyphClass: 2
Flags: W
LayerCount: 2
Fore
SplineSet
106 -6 m 1,0,1
 120 111 120 111 120 327 c 128,-1,2
 120 543 120 543 103 639 c 1,3,4
 129 649 129 649 155 649 c 128,-1,5
 181 649 181 649 209 647 c 1,6,7
 195 536 195 536 195 296 c 128,-1,8
 195 56 195 56 212 2 c 1,9,10
 179 -8 179 -8 151 -8 c 128,-1,11
 123 -8 123 -8 106 -6 c 1,0,1
281 768 m 0,12,13
 281 756 281 756 280 750 c 1,14,15
 157 713 157 713 98 704 c 1,16,17
 85 721 85 721 83 743 c 1,18,19
 104 754 104 754 133.5 769 c 128,-1,20
 163 784 163 784 178 792 c 0,21,22
 222 816 222 816 251 838 c 1,23,24
 281 805 281 805 281 768 c 0,12,13
EndSplineSet
EndChar

StartChar: Icircumflex
Encoding: 206 206 144
Width: 317
GlyphClass: 2
Flags: W
LayerCount: 2
Fore
SplineSet
106 -6 m 1,0,1
 120 111 120 111 120 327 c 128,-1,2
 120 543 120 543 103 639 c 1,3,4
 129 649 129 649 155 649 c 128,-1,5
 181 649 181 649 209 647 c 1,6,7
 195 536 195 536 195 296 c 128,-1,8
 195 56 195 56 212 2 c 1,9,10
 179 -8 179 -8 151 -8 c 128,-1,11
 123 -8 123 -8 106 -6 c 1,0,1
285 704 m 1,12,13
 217 725 217 725 158 756 c 1,14,15
 71 716 71 716 23 704 c 1,16,17
 11 722 11 722 8 743 c 1,18,19
 29 757 29 757 47 766 c 128,-1,20
 65 775 65 775 79.5 784 c 128,-1,21
 94 793 94 793 101 798 c 128,-1,22
 108 803 108 803 120 811 c 0,23,24
 134 821 134 821 158 845 c 1,25,26
 202 803 202 803 301 742 c 1,27,28
 298 721 298 721 285 704 c 1,12,13
EndSplineSet
EndChar

StartChar: Idieresis
Encoding: 207 207 145
Width: 317
GlyphClass: 2
Flags: W
LayerCount: 2
Fore
SplineSet
106 -6 m 1,0,1
 120 111 120 111 120 327 c 128,-1,2
 120 543 120 543 103 639 c 1,3,4
 129 649 129 649 155 649 c 128,-1,5
 181 649 181 649 209 647 c 1,6,7
 195 536 195 536 195 296 c 128,-1,8
 195 56 195 56 212 2 c 1,9,10
 179 -8 179 -8 151 -8 c 128,-1,11
 123 -8 123 -8 106 -6 c 1,0,1
131 759 m 0,12,13
 131 704 131 704 73 704 c 0,14,15
 28 704 28 704 28 750 c 0,16,17
 28 806 28 806 86 806 c 0,18,19
 131 806 131 806 131 759 c 0,12,13
281 759 m 0,20,21
 281 704 281 704 223 704 c 0,22,23
 178 704 178 704 178 750 c 0,24,25
 178 806 178 806 236 806 c 0,26,27
 281 806 281 806 281 759 c 0,20,21
EndSplineSet
EndChar

StartChar: Eth
Encoding: 208 208 146
Width: 617
GlyphClass: 2
Flags: W
LayerCount: 2
Fore
SplineSet
298 655 m 0,0,1
 372 655 372 655 425 627.5 c 128,-1,2
 478 600 478 600 506 552 c 0,3,4
 561 459 561 459 561 325 c 0,5,6
 561 139 561 139 486 56 c 0,7,8
 458 25 458 25 410 5 c 128,-1,9
 362 -15 362 -15 298 -15 c 0,10,11
 177 -15 177 -15 102 13 c 1,12,13
 114 118 114 118 116 291 c 1,14,15
 82 288 82 288 48 283 c 1,16,17
 45 296 45 296 45 322.5 c 128,-1,18
 45 349 45 349 52 371 c 1,19,20
 84 367 84 367 116 365 c 1,21,22
 114 535 114 535 99 627 c 1,23,24
 185 655 185 655 298 655 c 0,0,1
298 56 m 0,25,26
 475 56 475 56 475 325 c 0,27,28
 475 402 475 402 459 460 c 128,-1,29
 443 518 443 518 402 557 c 128,-1,30
 361 596 361 596 303.5 596 c 128,-1,31
 246 596 246 596 198 577 c 1,32,33
 191 494 191 494 191 363 c 1,34,35
 266 363 266 363 341 376 c 1,36,37
 344 362 344 362 344 336 c 128,-1,38
 344 310 344 310 337 288 c 1,39,40
 275 295 275 295 208 295 c 2,41,-1
 191 295 l 1,42,43
 191 170 191 170 199 77 c 1,44,45
 246 56 246 56 298 56 c 0,25,26
EndSplineSet
EndChar

StartChar: Ntilde
Encoding: 209 209 147
Width: 650
GlyphClass: 2
Flags: W
LayerCount: 2
Fore
SplineSet
97 -6 m 1,0,1
 111 111 111 111 111 327 c 128,-1,2
 111 543 111 543 94 639 c 1,3,4
 120 649 120 649 138.5 649 c 128,-1,5
 157 649 157 649 185 647 c 1,6,7
 204 575 204 575 294.5 428.5 c 128,-1,8
 385 282 385 282 483 145 c 1,9,10
 486 229 486 229 486 307 c 0,11,12
 486 543 486 543 469 639 c 1,13,14
 495 649 495 649 513.5 649 c 128,-1,15
 532 649 532 649 560 647 c 1,16,17
 546 536 546 536 546 296 c 128,-1,18
 546 56 546 56 563 2 c 1,19,20
 533 -8 533 -8 519.5 -8 c 128,-1,21
 506 -8 506 -8 472 -6 c 1,22,23
 465 25 465 25 413 106.5 c 128,-1,24
 361 188 361 188 283.5 301 c 128,-1,25
 206 414 206 414 172 470 c 1,26,27
 171 427 171 427 171 338 c 0,28,29
 171 56 171 56 188 2 c 1,30,31
 158 -8 158 -8 144.5 -8 c 128,-1,32
 131 -8 131 -8 97 -6 c 1,0,1
424 724 m 128,-1,34
 394 704 394 704 369 704 c 128,-1,35
 344 704 344 704 312.5 720.5 c 128,-1,36
 281 737 281 737 263 737 c 0,37,38
 227 737 227 737 209 705 c 1,39,40
 182 716 182 716 177 737 c 1,41,42
 192 763 192 763 222 783 c 128,-1,43
 252 803 252 803 278.5 803 c 128,-1,44
 305 803 305 803 336.5 786.5 c 128,-1,45
 368 770 368 770 383 770 c 0,46,47
 419 770 419 770 437 802 c 1,48,49
 464 791 464 791 469 770 c 1,50,33
 454 744 454 744 424 724 c 128,-1,34
EndSplineSet
EndChar

StartChar: Ograve
Encoding: 210 210 148
Width: 692
GlyphClass: 2
Flags: W
LayerCount: 2
Fore
SplineSet
103 327 m 0,0,1
 103 655 103 655 348.5 655 c 128,-1,2
 594 655 594 655 594 327 c 0,3,4
 594 267 594 267 589.5 222 c 128,-1,5
 585 177 585 177 569.5 130 c 128,-1,6
 554 83 554 83 528 53 c 128,-1,7
 502 23 502 23 456.5 4 c 128,-1,8
 411 -15 411 -15 348.5 -15 c 128,-1,9
 286 -15 286 -15 240.5 4 c 128,-1,10
 195 23 195 23 169 53 c 128,-1,11
 143 83 143 83 127.5 130 c 128,-1,12
 112 177 112 177 107.5 222 c 128,-1,13
 103 267 103 267 103 327 c 0,0,1
264 81 m 0,14,15
 298 59 298 59 348.5 59 c 128,-1,16
 399 59 399 59 433.5 81 c 128,-1,17
 468 103 468 103 485 144 c 0,18,19
 515 215 515 215 515 326 c 0,20,21
 515 596 515 596 348.5 596 c 128,-1,22
 182 596 182 596 182 326 c 0,23,24
 182 133 182 133 264 81 c 0,14,15
430 704 m 1,25,26
 367 717 367 717 250 759 c 1,27,28
 250 792 250 792 256.5 807.5 c 128,-1,29
 263 823 263 823 283 845 c 1,30,31
 321 813 321 813 348.5 797.5 c 128,-1,32
 376 782 376 782 382.5 778 c 128,-1,33
 389 774 389 774 414 760 c 128,-1,34
 439 746 439 746 446 742 c 1,35,36
 443 721 443 721 430 704 c 1,25,26
EndSplineSet
EndChar

StartChar: Oacute
Encoding: 211 211 149
Width: 601
GlyphClass: 2
Flags: W
LayerCount: 2
Fore
SplineSet
55 327 m 0,0,1
 55 655 55 655 300.5 655 c 128,-1,2
 546 655 546 655 546 327 c 0,3,4
 546 267 546 267 541.5 222 c 128,-1,5
 537 177 537 177 521.5 130 c 128,-1,6
 506 83 506 83 480 53 c 128,-1,7
 454 23 454 23 408.5 4 c 128,-1,8
 363 -15 363 -15 300.5 -15 c 128,-1,9
 238 -15 238 -15 192.5 4 c 128,-1,10
 147 23 147 23 121 53 c 128,-1,11
 95 83 95 83 79.5 130 c 128,-1,12
 64 177 64 177 59.5 222 c 128,-1,13
 55 267 55 267 55 327 c 0,0,1
216 81 m 0,14,15
 250 59 250 59 300.5 59 c 128,-1,16
 351 59 351 59 385.5 81 c 128,-1,17
 420 103 420 103 437 144 c 0,18,19
 467 215 467 215 467 326 c 0,20,21
 467 596 467 596 300.5 596 c 128,-1,22
 134 596 134 596 134 326 c 0,23,24
 134 133 134 133 216 81 c 0,14,15
427 768 m 0,25,26
 427 756 427 756 426 750 c 1,27,28
 303 713 303 713 244 704 c 1,29,30
 231 721 231 721 229 743 c 1,31,32
 250 754 250 754 279.5 769 c 128,-1,33
 309 784 309 784 324 792 c 0,34,35
 368 816 368 816 397 838 c 1,36,37
 427 805 427 805 427 768 c 0,25,26
EndSplineSet
EndChar

StartChar: Ocircumflex
Encoding: 212 212 150
Width: 601
GlyphClass: 2
Flags: W
LayerCount: 2
Fore
SplineSet
55 327 m 0,0,1
 55 655 55 655 300.5 655 c 128,-1,2
 546 655 546 655 546 327 c 0,3,4
 546 267 546 267 541.5 222 c 128,-1,5
 537 177 537 177 521.5 130 c 128,-1,6
 506 83 506 83 480 53 c 128,-1,7
 454 23 454 23 408.5 4 c 128,-1,8
 363 -15 363 -15 300.5 -15 c 128,-1,9
 238 -15 238 -15 192.5 4 c 128,-1,10
 147 23 147 23 121 53 c 128,-1,11
 95 83 95 83 79.5 130 c 128,-1,12
 64 177 64 177 59.5 222 c 128,-1,13
 55 267 55 267 55 327 c 0,0,1
216 81 m 0,14,15
 250 59 250 59 300.5 59 c 128,-1,16
 351 59 351 59 385.5 81 c 128,-1,17
 420 103 420 103 437 144 c 0,18,19
 467 215 467 215 467 326 c 0,20,21
 467 596 467 596 300.5 596 c 128,-1,22
 134 596 134 596 134 326 c 0,23,24
 134 133 134 133 216 81 c 0,14,15
427 704 m 1,25,26
 359 725 359 725 300 756 c 1,27,28
 213 716 213 716 165 704 c 1,29,30
 153 722 153 722 150 743 c 1,31,32
 171 757 171 757 189 766 c 128,-1,33
 207 775 207 775 221.5 784 c 128,-1,34
 236 793 236 793 243 798 c 128,-1,35
 250 803 250 803 262 811 c 0,36,37
 276 821 276 821 300 845 c 1,38,39
 344 803 344 803 443 742 c 1,40,41
 440 721 440 721 427 704 c 1,25,26
EndSplineSet
EndChar

StartChar: Otilde
Encoding: 213 213 151
Width: 601
GlyphClass: 2
Flags: W
LayerCount: 2
Fore
SplineSet
55 327 m 0,0,1
 55 655 55 655 300.5 655 c 128,-1,2
 546 655 546 655 546 327 c 0,3,4
 546 267 546 267 541.5 222 c 128,-1,5
 537 177 537 177 521.5 130 c 128,-1,6
 506 83 506 83 480 53 c 128,-1,7
 454 23 454 23 408.5 4 c 128,-1,8
 363 -15 363 -15 300.5 -15 c 128,-1,9
 238 -15 238 -15 192.5 4 c 128,-1,10
 147 23 147 23 121 53 c 128,-1,11
 95 83 95 83 79.5 130 c 128,-1,12
 64 177 64 177 59.5 222 c 128,-1,13
 55 267 55 267 55 327 c 0,0,1
216 81 m 0,14,15
 250 59 250 59 300.5 59 c 128,-1,16
 351 59 351 59 385.5 81 c 128,-1,17
 420 103 420 103 437 144 c 0,18,19
 467 215 467 215 467 326 c 0,20,21
 467 596 467 596 300.5 596 c 128,-1,22
 134 596 134 596 134 326 c 0,23,24
 134 133 134 133 216 81 c 0,14,15
401 724 m 128,-1,26
 371 704 371 704 346 704 c 128,-1,27
 321 704 321 704 289.5 720.5 c 128,-1,28
 258 737 258 737 240 737 c 0,29,30
 204 737 204 737 186 705 c 1,31,32
 159 716 159 716 154 737 c 1,33,34
 169 763 169 763 199 783 c 128,-1,35
 229 803 229 803 255.5 803 c 128,-1,36
 282 803 282 803 313.5 786.5 c 128,-1,37
 345 770 345 770 360 770 c 0,38,39
 396 770 396 770 414 802 c 1,40,41
 441 791 441 791 446 770 c 1,42,25
 431 744 431 744 401 724 c 128,-1,26
EndSplineSet
EndChar

StartChar: Odieresis
Encoding: 214 214 152
Width: 601
GlyphClass: 2
Flags: W
LayerCount: 2
Fore
SplineSet
55 327 m 0,0,1
 55 655 55 655 300.5 655 c 128,-1,2
 546 655 546 655 546 327 c 0,3,4
 546 267 546 267 541.5 222 c 128,-1,5
 537 177 537 177 521.5 130 c 128,-1,6
 506 83 506 83 480 53 c 128,-1,7
 454 23 454 23 408.5 4 c 128,-1,8
 363 -15 363 -15 300.5 -15 c 128,-1,9
 238 -15 238 -15 192.5 4 c 128,-1,10
 147 23 147 23 121 53 c 128,-1,11
 95 83 95 83 79.5 130 c 128,-1,12
 64 177 64 177 59.5 222 c 128,-1,13
 55 267 55 267 55 327 c 0,0,1
216 81 m 0,14,15
 250 59 250 59 300.5 59 c 128,-1,16
 351 59 351 59 385.5 81 c 128,-1,17
 420 103 420 103 437 144 c 0,18,19
 467 215 467 215 467 326 c 0,20,21
 467 596 467 596 300.5 596 c 128,-1,22
 134 596 134 596 134 326 c 0,23,24
 134 133 134 133 216 81 c 0,14,15
279 759 m 0,25,26
 279 704 279 704 221 704 c 0,27,28
 176 704 176 704 176 750 c 0,29,30
 176 806 176 806 234 806 c 0,31,32
 279 806 279 806 279 759 c 0,25,26
429 759 m 0,33,34
 429 704 429 704 371 704 c 0,35,36
 326 704 326 704 326 750 c 0,37,38
 326 806 326 806 384 806 c 0,39,40
 429 806 429 806 429 759 c 0,33,34
EndSplineSet
EndChar

StartChar: multiply
Encoding: 215 215 153
Width: 601
GlyphClass: 2
Flags: W
LayerCount: 2
Fore
SplineSet
104 465 m 1,0,1
 124 503 124 503 163 530 c 1,2,3
 172 515 172 515 222 458.5 c 128,-1,4
 272 402 272 402 300 373 c 1,5,6
 325 398 325 398 376.5 456.5 c 128,-1,7
 428 515 428 515 438 530 c 1,8,9
 477 503 477 503 497 465 c 1,10,11
 435 414 435 414 346 327 c 1,12,13
 447 228 447 228 497 190 c 1,14,15
 484 166 484 166 469.5 152 c 128,-1,16
 455 138 455 138 438 125 c 1,17,18
 428 140 428 140 376.5 198 c 128,-1,19
 325 256 325 256 300 281 c 1,20,21
 271 251 271 251 221.5 195.5 c 128,-1,22
 172 140 172 140 163 125 c 1,23,24
 124 153 124 153 104 190 c 1,25,26
 150 225 150 225 254 327 c 1,27,28
 177 404 177 404 104 465 c 1,0,1
EndSplineSet
EndChar

StartChar: Oslash
Encoding: 216 216 154
Width: 601
GlyphClass: 2
Flags: W
LayerCount: 2
Fore
SplineSet
195 -84 m 0,0,1
 163 -84 163 -84 141 -63 c 1,2,-1
 168 15 l 1,3,4
 101 53 101 53 78 131.5 c 128,-1,5
 55 210 55 210 55 327 c 0,6,7
 55 655 55 655 300 655 c 0,8,9
 337 655 337 655 364 648 c 1,10,-1
 384 722 l 1,11,12
 400 724 400 724 409 724 c 0,13,14
 434 724 434 724 460 704 c 1,15,-1
 430 623 l 1,16,17
 546 552 546 552 546 327 c 0,18,19
 546 267 546 267 541.5 222 c 128,-1,20
 537 177 537 177 521.5 130 c 128,-1,21
 506 83 506 83 480 53 c 128,-1,22
 454 23 454 23 408.5 4 c 128,-1,23
 363 -15 363 -15 313.5 -15 c 128,-1,24
 264 -15 264 -15 234 -9 c 1,25,-1
 215 -81 l 1,26,27
 204 -84 204 -84 195 -84 c 0,0,1
134 326 m 0,28,29
 134 157 134 157 197 96 c 1,30,31
 275 327 275 327 348 589 c 1,32,33
 322 596 322 596 300 596 c 0,34,35
 134 596 134 596 134 326 c 0,28,29
300 59 m 0,36,37
 402 59 402 59 437 144 c 0,38,39
 467 215 467 215 467 326 c 0,40,41
 467 487 467 487 405 553 c 1,42,43
 326 322 326 322 255 64 c 1,44,45
 277 59 277 59 300 59 c 0,36,37
EndSplineSet
EndChar

StartChar: Ugrave
Encoding: 217 217 155
Width: 644
GlyphClass: 2
Flags: W
LayerCount: 2
Fore
SplineSet
546 277 m 0,0,1
 546 217 546 217 542 176.5 c 128,-1,2
 538 136 538 136 524.5 97 c 128,-1,3
 511 58 511 58 487 35 c 0,4,5
 435 -15 435 -15 325 -15 c 0,6,7
 184 -15 184 -15 140 64 c 1,8,9
 118 106 118 106 110.5 154 c 128,-1,10
 103 202 103 202 103 277 c 0,11,12
 103 543 103 543 86 639 c 1,13,14
 112 649 112 649 138 649 c 128,-1,15
 164 649 164 649 192 647 c 1,16,17
 178 536 178 536 178 276 c 0,18,19
 178 164 178 164 209 111.5 c 128,-1,20
 240 59 240 59 332 59 c 128,-1,21
 424 59 424 59 453.5 111.5 c 128,-1,22
 483 164 483 164 483 276 c 0,23,24
 483 543 483 543 466 639 c 1,25,26
 492 649 492 649 512 649 c 128,-1,27
 532 649 532 649 560 647 c 1,28,29
 546 536 546 536 546 277 c 0,0,1
375 704 m 1,30,31
 312 717 312 717 195 759 c 1,32,33
 195 792 195 792 201.5 807.5 c 128,-1,34
 208 823 208 823 228 845 c 1,35,36
 266 813 266 813 293.5 797.5 c 128,-1,37
 321 782 321 782 327.5 778 c 128,-1,38
 334 774 334 774 359 760 c 128,-1,39
 384 746 384 746 391 742 c 1,40,41
 388 721 388 721 375 704 c 1,30,31
EndSplineSet
EndChar

StartChar: Uacute
Encoding: 218 218 156
Width: 644
GlyphClass: 2
Flags: W
LayerCount: 2
Fore
SplineSet
546 277 m 0,0,1
 546 217 546 217 542 176.5 c 128,-1,2
 538 136 538 136 524.5 97 c 128,-1,3
 511 58 511 58 487 35 c 0,4,5
 435 -15 435 -15 325 -15 c 0,6,7
 184 -15 184 -15 140 64 c 1,8,9
 118 106 118 106 110.5 154 c 128,-1,10
 103 202 103 202 103 277 c 0,11,12
 103 543 103 543 86 639 c 1,13,14
 112 649 112 649 138 649 c 128,-1,15
 164 649 164 649 192 647 c 1,16,17
 178 536 178 536 178 276 c 0,18,19
 178 164 178 164 209 111.5 c 128,-1,20
 240 59 240 59 332 59 c 128,-1,21
 424 59 424 59 453.5 111.5 c 128,-1,22
 483 164 483 164 483 276 c 0,23,24
 483 543 483 543 466 639 c 1,25,26
 492 649 492 649 512 649 c 128,-1,27
 532 649 532 649 560 647 c 1,28,29
 546 536 546 536 546 277 c 0,0,1
443 768 m 0,30,31
 443 756 443 756 442 750 c 1,32,33
 319 713 319 713 260 704 c 1,34,35
 247 721 247 721 245 743 c 1,36,37
 266 754 266 754 295.5 769 c 128,-1,38
 325 784 325 784 340 792 c 0,39,40
 384 816 384 816 413 838 c 1,41,42
 443 805 443 805 443 768 c 0,30,31
EndSplineSet
EndChar

StartChar: Ucircumflex
Encoding: 219 219 157
Width: 644
GlyphClass: 2
Flags: W
LayerCount: 2
Fore
SplineSet
546 277 m 0,0,1
 546 217 546 217 542 176.5 c 128,-1,2
 538 136 538 136 524.5 97 c 128,-1,3
 511 58 511 58 487 35 c 0,4,5
 435 -15 435 -15 325 -15 c 0,6,7
 184 -15 184 -15 140 64 c 1,8,9
 118 106 118 106 110.5 154 c 128,-1,10
 103 202 103 202 103 277 c 0,11,12
 103 543 103 543 86 639 c 1,13,14
 112 649 112 649 138 649 c 128,-1,15
 164 649 164 649 192 647 c 1,16,17
 178 536 178 536 178 276 c 0,18,19
 178 164 178 164 209 111.5 c 128,-1,20
 240 59 240 59 332 59 c 128,-1,21
 424 59 424 59 453.5 111.5 c 128,-1,22
 483 164 483 164 483 276 c 0,23,24
 483 543 483 543 466 639 c 1,25,26
 492 649 492 649 512 649 c 128,-1,27
 532 649 532 649 560 647 c 1,28,29
 546 536 546 536 546 277 c 0,0,1
455 704 m 1,30,31
 387 725 387 725 328 756 c 1,32,33
 241 716 241 716 193 704 c 1,34,35
 181 722 181 722 178 743 c 1,36,37
 199 757 199 757 217 766 c 128,-1,38
 235 775 235 775 249.5 784 c 128,-1,39
 264 793 264 793 271 798 c 128,-1,40
 278 803 278 803 290 811 c 0,41,42
 304 821 304 821 328 845 c 1,43,44
 372 803 372 803 471 742 c 1,45,46
 468 721 468 721 455 704 c 1,30,31
EndSplineSet
EndChar

StartChar: Udieresis
Encoding: 220 220 158
Width: 644
GlyphClass: 2
Flags: W
LayerCount: 2
Fore
SplineSet
546 277 m 0,0,1
 546 217 546 217 542 176.5 c 128,-1,2
 538 136 538 136 524.5 97 c 128,-1,3
 511 58 511 58 487 35 c 0,4,5
 435 -15 435 -15 325 -15 c 0,6,7
 184 -15 184 -15 140 64 c 1,8,9
 118 106 118 106 110.5 154 c 128,-1,10
 103 202 103 202 103 277 c 0,11,12
 103 543 103 543 86 639 c 1,13,14
 112 649 112 649 138 649 c 128,-1,15
 164 649 164 649 192 647 c 1,16,17
 178 536 178 536 178 276 c 0,18,19
 178 164 178 164 209 111.5 c 128,-1,20
 240 59 240 59 332 59 c 128,-1,21
 424 59 424 59 453.5 111.5 c 128,-1,22
 483 164 483 164 483 276 c 0,23,24
 483 543 483 543 466 639 c 1,25,26
 492 649 492 649 512 649 c 128,-1,27
 532 649 532 649 560 647 c 1,28,29
 546 536 546 536 546 277 c 0,0,1
303 759 m 0,30,31
 303 704 303 704 245 704 c 0,32,33
 200 704 200 704 200 750 c 0,34,35
 200 806 200 806 258 806 c 0,36,37
 303 806 303 806 303 759 c 0,30,31
453 759 m 0,38,39
 453 704 453 704 395 704 c 0,40,41
 350 704 350 704 350 750 c 0,42,43
 350 806 350 806 408 806 c 0,44,45
 453 806 453 806 453 759 c 0,38,39
EndSplineSet
EndChar

StartChar: Yacute
Encoding: 221 221 159
Width: 494
GlyphClass: 2
Flags: W
LayerCount: 2
Fore
SplineSet
14 634 m 1,0,1
 54 651 54 651 86.5 651 c 128,-1,2
 119 651 119 651 130 650 c 1,3,4
 136 575 136 575 178 478 c 0,5,6
 193 442 193 442 219.5 383 c 128,-1,7
 246 324 246 324 259 293 c 1,8,-1
 263 293 l 1,9,10
 298 360 298 360 333.5 469.5 c 128,-1,11
 369 579 369 579 373 649 c 1,12,13
 391 651 391 651 400 651 c 0,14,15
 447 651 447 651 478 634 c 1,16,17
 477 631 477 631 444.5 560.5 c 128,-1,18
 412 490 412 490 387 434 c 0,19,20
 312 266 312 266 294 194 c 1,21,22
 299 31 299 31 310 2 c 1,23,24
 277 -8 277 -8 249 -8 c 128,-1,25
 221 -8 221 -8 204 -6 c 1,26,27
 214 76 214 76 217 197 c 1,28,29
 194 270 194 270 149.5 362.5 c 128,-1,30
 105 455 105 455 65.5 532.5 c 128,-1,31
 26 610 26 610 14 634 c 1,0,1
394 768 m 0,32,33
 394 756 394 756 393 750 c 1,34,35
 270 713 270 713 211 704 c 1,36,37
 198 721 198 721 196 743 c 1,38,39
 217 754 217 754 246.5 769 c 128,-1,40
 276 784 276 784 291 792 c 0,41,42
 335 816 335 816 364 838 c 1,43,44
 394 805 394 805 394 768 c 0,32,33
EndSplineSet
EndChar

StartChar: Thorn
Encoding: 222 222 160
Width: 518
GlyphClass: 2
Flags: W
LayerCount: 2
Fore
SplineSet
93 -6 m 1,0,1
 107 111 107 111 107 327 c 128,-1,2
 107 543 107 543 90 639 c 1,3,4
 116 649 116 649 142 649 c 128,-1,5
 168 649 168 649 196 647 c 1,6,7
 189 602 189 602 186 549 c 1,8,9
 230 555 230 555 284 555 c 0,10,11
 402 555 402 555 452 501.5 c 128,-1,12
 502 448 502 448 502 351.5 c 128,-1,13
 502 255 502 255 451.5 195 c 128,-1,14
 401 135 401 135 298 135 c 0,15,16
 258 135 258 135 219 150 c 1,17,18
 219 177 219 177 226 200 c 128,-1,19
 233 223 233 223 240 231 c 1,20,21
 269 202 269 202 309.5 202 c 128,-1,22
 350 202 350 202 374 227 c 0,23,24
 415 268 415 268 415 349 c 0,25,26
 415 498 415 498 283 498 c 0,27,28
 240 498 240 498 183 474 c 1,29,30
 182 429 182 429 182 338 c 0,31,32
 182 56 182 56 199 2 c 1,33,34
 166 -8 166 -8 138 -8 c 128,-1,35
 110 -8 110 -8 93 -6 c 1,0,1
EndSplineSet
EndChar

StartChar: germandbls
Encoding: 223 223 161
Width: 538
GlyphClass: 2
Flags: W
LayerCount: 2
Fore
SplineSet
89 408 m 1,0,-1
 32 407 l 1,1,2
 26 419 26 419 26 436.5 c 128,-1,3
 26 454 26 454 28 462 c 1,4,-1
 89 462 l 1,5,6
 92 522 92 522 108 567.5 c 128,-1,7
 124 613 124 613 164 644 c 128,-1,8
 204 675 204 675 273 675 c 128,-1,9
 342 675 342 675 392 633.5 c 128,-1,10
 442 592 442 592 442 523 c 128,-1,11
 442 454 442 454 410.5 414 c 128,-1,12
 379 374 379 374 332 359 c 1,13,14
 512 321 512 321 512 173 c 0,15,16
 512 35 512 35 404 -3 c 0,17,18
 369 -15 369 -15 324 -15 c 0,19,20
 249 -15 249 -15 195 34 c 1,21,22
 201 68 201 68 223 98 c 2,23,-1
 230 108 l 1,24,25
 265 49 265 49 326 49 c 0,26,27
 425 49 425 49 425 173 c 0,28,29
 425 267 425 267 354 299 c 0,30,31
 325 312 325 312 293.5 316 c 128,-1,32
 262 320 262 320 259 321 c 1,33,34
 253 333 253 333 253 350.5 c 128,-1,35
 253 368 253 368 255 376 c 1,36,37
 359 397 359 397 359 507 c 0,38,39
 359 554 359 554 335.5 584.5 c 128,-1,40
 312 615 312 615 273 615 c 128,-1,41
 234 615 234 615 212.5 601.5 c 128,-1,42
 191 588 191 588 182 562 c 0,43,44
 165 518 165 518 165 452 c 2,45,-1
 165 237 l 2,46,47
 165 98 165 98 183 6 c 1,48,49
 149 -4 149 -4 122 -4 c 128,-1,50
 95 -4 95 -4 77 0 c 1,51,52
 92 155 92 155 92 208 c 2,53,-1
 89 408 l 1,0,-1
EndSplineSet
EndChar

StartChar: agrave
Encoding: 224 224 162
Width: 473
GlyphClass: 2
Flags: W
LayerCount: 2
Fore
SplineSet
209 219 m 0,0,1
 173 219 173 219 150.5 199.5 c 128,-1,2
 128 180 128 180 128 139 c 0,3,4
 128 57 128 57 199 57 c 0,5,6
 227 57 227 57 256 71 c 128,-1,7
 285 85 285 85 301 104 c 1,8,9
 306 167 306 167 306 184 c 1,10,11
 265 219 265 219 209 219 c 0,0,1
388 345 m 1,12,-1
 384 201 l 1,13,14
 384 118 384 118 401 3 c 1,15,16
 371 -6 371 -6 349 -6 c 128,-1,17
 327 -6 327 -6 307 -4 c 1,18,-1
 304 44 l 1,19,20
 228 -15 228 -15 169.5 -15 c 128,-1,21
 111 -15 111 -15 80.5 22.5 c 128,-1,22
 50 60 50 60 50 129.5 c 128,-1,23
 50 199 50 199 95.5 235 c 128,-1,24
 141 271 141 271 203 271 c 128,-1,25
 265 271 265 271 310 247 c 1,26,27
 311 267 311 267 311 291 c 128,-1,28
 311 315 311 315 309.5 333 c 128,-1,29
 308 351 308 351 300 375 c 0,30,31
 286 422 286 422 227 422 c 0,32,33
 153 422 153 422 153 341 c 1,34,-1
 154 324 l 1,35,36
 132 322 132 322 113 322 c 128,-1,37
 94 322 94 322 68 330 c 1,38,39
 66 346 66 346 66 353 c 0,40,41
 66 416 66 416 112 447 c 128,-1,42
 158 478 158 478 231.5 478 c 128,-1,43
 305 478 305 478 346.5 444.5 c 128,-1,44
 388 411 388 411 388 345 c 1,12,-1
277 528 m 1,45,46
 153 579 153 579 93 603 c 1,47,48
 94 631 94 631 103 647.5 c 128,-1,49
 112 664 112 664 133 682 c 1,50,51
 179 643 179 643 228.5 610.5 c 128,-1,52
 278 578 278 578 297 565 c 1,53,54
 292 544 292 544 277 528 c 1,45,46
EndSplineSet
EndChar

StartChar: aacute
Encoding: 225 225 163
Width: 473
GlyphClass: 2
Flags: W
LayerCount: 2
Fore
SplineSet
209 219 m 0,0,1
 173 219 173 219 150.5 199.5 c 128,-1,2
 128 180 128 180 128 139 c 0,3,4
 128 57 128 57 199 57 c 0,5,6
 227 57 227 57 256 71 c 128,-1,7
 285 85 285 85 301 104 c 1,8,9
 306 167 306 167 306 184 c 1,10,11
 265 219 265 219 209 219 c 0,0,1
388 345 m 1,12,-1
 384 201 l 1,13,14
 384 118 384 118 401 3 c 1,15,16
 371 -6 371 -6 349 -6 c 128,-1,17
 327 -6 327 -6 307 -4 c 1,18,-1
 304 44 l 1,19,20
 228 -15 228 -15 169.5 -15 c 128,-1,21
 111 -15 111 -15 80.5 22.5 c 128,-1,22
 50 60 50 60 50 129.5 c 128,-1,23
 50 199 50 199 95.5 235 c 128,-1,24
 141 271 141 271 203 271 c 128,-1,25
 265 271 265 271 310 247 c 1,26,27
 311 267 311 267 311 291 c 128,-1,28
 311 315 311 315 309.5 333 c 128,-1,29
 308 351 308 351 300 375 c 0,30,31
 286 422 286 422 227 422 c 0,32,33
 153 422 153 422 153 341 c 1,34,-1
 154 324 l 1,35,36
 132 322 132 322 113 322 c 128,-1,37
 94 322 94 322 68 330 c 1,38,39
 66 346 66 346 66 353 c 0,40,41
 66 416 66 416 112 447 c 128,-1,42
 158 478 158 478 231.5 478 c 128,-1,43
 305 478 305 478 346.5 444.5 c 128,-1,44
 388 411 388 411 388 345 c 1,12,-1
172 528 m 1,45,46
 157 544 157 544 152 565 c 1,47,48
 171 578 171 578 200 597 c 128,-1,49
 229 616 229 616 242 626 c 0,50,51
 283 654 283 654 316 682 c 1,52,53
 337 664 337 664 346 647.5 c 128,-1,54
 355 631 355 631 356 603 c 1,55,56
 296 579 296 579 172 528 c 1,45,46
EndSplineSet
EndChar

StartChar: acircumflex
Encoding: 226 226 164
Width: 473
GlyphClass: 2
Flags: W
LayerCount: 2
Fore
SplineSet
209 219 m 0,0,1
 173 219 173 219 150.5 199.5 c 128,-1,2
 128 180 128 180 128 139 c 0,3,4
 128 57 128 57 199 57 c 0,5,6
 227 57 227 57 256 71 c 128,-1,7
 285 85 285 85 301 104 c 1,8,9
 306 167 306 167 306 184 c 1,10,11
 265 219 265 219 209 219 c 0,0,1
388 345 m 1,12,-1
 384 201 l 1,13,14
 384 118 384 118 401 3 c 1,15,16
 371 -6 371 -6 349 -6 c 128,-1,17
 327 -6 327 -6 307 -4 c 1,18,-1
 304 44 l 1,19,20
 228 -15 228 -15 169.5 -15 c 128,-1,21
 111 -15 111 -15 80.5 22.5 c 128,-1,22
 50 60 50 60 50 129.5 c 128,-1,23
 50 199 50 199 95.5 235 c 128,-1,24
 141 271 141 271 203 271 c 128,-1,25
 265 271 265 271 310 247 c 1,26,27
 311 267 311 267 311 291 c 128,-1,28
 311 315 311 315 309.5 333 c 128,-1,29
 308 351 308 351 300 375 c 0,30,31
 286 422 286 422 227 422 c 0,32,33
 153 422 153 422 153 341 c 1,34,-1
 154 324 l 1,35,36
 132 322 132 322 113 322 c 128,-1,37
 94 322 94 322 68 330 c 1,38,39
 66 346 66 346 66 353 c 0,40,41
 66 416 66 416 112 447 c 128,-1,42
 158 478 158 478 231.5 478 c 128,-1,43
 305 478 305 478 346.5 444.5 c 128,-1,44
 388 411 388 411 388 345 c 1,12,-1
339 528 m 1,45,-1
 225 591 l 1,46,47
 192 573 192 573 111 528 c 1,48,49
 95 546 95 546 91 565 c 1,50,51
 109 580 109 580 138 604 c 0,52,53
 199 655 199 655 225 682 c 1,54,55
 251 655 251 655 296 617.5 c 128,-1,56
 341 580 341 580 359 565 c 1,57,58
 354 544 354 544 339 528 c 1,45,-1
EndSplineSet
EndChar

StartChar: atilde
Encoding: 227 227 165
Width: 473
GlyphClass: 2
Flags: W
LayerCount: 2
Fore
SplineSet
209 219 m 0,0,1
 173 219 173 219 150.5 199.5 c 128,-1,2
 128 180 128 180 128 139 c 0,3,4
 128 57 128 57 199 57 c 0,5,6
 227 57 227 57 256 71 c 128,-1,7
 285 85 285 85 301 104 c 1,8,9
 306 167 306 167 306 184 c 1,10,11
 265 219 265 219 209 219 c 0,0,1
388 345 m 1,12,-1
 384 201 l 1,13,14
 384 118 384 118 401 3 c 1,15,16
 371 -6 371 -6 349 -6 c 128,-1,17
 327 -6 327 -6 307 -4 c 1,18,-1
 304 44 l 1,19,20
 228 -15 228 -15 169.5 -15 c 128,-1,21
 111 -15 111 -15 80.5 22.5 c 128,-1,22
 50 60 50 60 50 129.5 c 128,-1,23
 50 199 50 199 95.5 235 c 128,-1,24
 141 271 141 271 203 271 c 128,-1,25
 265 271 265 271 310 247 c 1,26,27
 311 267 311 267 311 291 c 128,-1,28
 311 315 311 315 309.5 333 c 128,-1,29
 308 351 308 351 300 375 c 0,30,31
 286 422 286 422 227 422 c 0,32,33
 153 422 153 422 153 341 c 1,34,-1
 154 324 l 1,35,36
 132 322 132 322 113 322 c 128,-1,37
 94 322 94 322 68 330 c 1,38,39
 66 346 66 346 66 353 c 0,40,41
 66 416 66 416 112 447 c 128,-1,42
 158 478 158 478 231.5 478 c 128,-1,43
 305 478 305 478 346.5 444.5 c 128,-1,44
 388 411 388 411 388 345 c 1,12,-1
125 620.5 m 128,-1,46
 154 643 154 643 180 643 c 128,-1,47
 206 643 206 643 237.5 626.5 c 128,-1,48
 269 610 269 610 286 610 c 0,49,50
 311 610 311 610 336 650 c 1,51,52
 363 638 363 638 370 617 c 1,53,54
 356 590 356 590 327 567 c 128,-1,55
 298 544 298 544 271.5 544 c 128,-1,56
 245 544 245 544 213.5 560.5 c 128,-1,57
 182 577 182 577 160.5 577 c 128,-1,58
 139 577 139 577 114 537 c 1,59,60
 89 549 89 549 82 570 c 1,61,45
 96 598 96 598 125 620.5 c 128,-1,46
EndSplineSet
EndChar

StartChar: adieresis
Encoding: 228 228 166
Width: 473
GlyphClass: 2
Flags: W
LayerCount: 2
Fore
SplineSet
209 219 m 0,0,1
 173 219 173 219 150.5 199.5 c 128,-1,2
 128 180 128 180 128 139 c 0,3,4
 128 57 128 57 199 57 c 0,5,6
 227 57 227 57 256 71 c 128,-1,7
 285 85 285 85 301 104 c 1,8,9
 306 167 306 167 306 184 c 1,10,11
 265 219 265 219 209 219 c 0,0,1
388 345 m 1,12,-1
 384 201 l 1,13,14
 384 118 384 118 401 3 c 1,15,16
 371 -6 371 -6 349 -6 c 128,-1,17
 327 -6 327 -6 307 -4 c 1,18,-1
 304 44 l 1,19,20
 228 -15 228 -15 169.5 -15 c 128,-1,21
 111 -15 111 -15 80.5 22.5 c 128,-1,22
 50 60 50 60 50 129.5 c 128,-1,23
 50 199 50 199 95.5 235 c 128,-1,24
 141 271 141 271 203 271 c 128,-1,25
 265 271 265 271 310 247 c 1,26,27
 311 267 311 267 311 291 c 128,-1,28
 311 315 311 315 309.5 333 c 128,-1,29
 308 351 308 351 300 375 c 0,30,31
 286 422 286 422 227 422 c 0,32,33
 153 422 153 422 153 341 c 1,34,-1
 154 324 l 1,35,36
 132 322 132 322 113 322 c 128,-1,37
 94 322 94 322 68 330 c 1,38,39
 66 346 66 346 66 353 c 0,40,41
 66 416 66 416 112 447 c 128,-1,42
 158 478 158 478 231.5 478 c 128,-1,43
 305 478 305 478 346.5 444.5 c 128,-1,44
 388 411 388 411 388 345 c 1,12,-1
202 599 m 0,45,46
 202 544 202 544 144 544 c 0,47,48
 99 544 99 544 99 590 c 0,49,50
 99 646 99 646 157 646 c 0,51,52
 202 646 202 646 202 599 c 0,45,46
352 599 m 0,53,54
 352 544 352 544 294 544 c 0,55,56
 249 544 249 544 249 590 c 0,57,58
 249 646 249 646 307 646 c 0,59,60
 352 646 352 646 352 599 c 0,53,54
EndSplineSet
EndChar

StartChar: aring
Encoding: 229 229 167
Width: 473
GlyphClass: 2
Flags: W
LayerCount: 2
Fore
SplineSet
209 219 m 0,0,1
 173 219 173 219 150.5 199.5 c 128,-1,2
 128 180 128 180 128 139 c 0,3,4
 128 57 128 57 199 57 c 0,5,6
 227 57 227 57 256 71 c 128,-1,7
 285 85 285 85 301 104 c 1,8,9
 306 167 306 167 306 184 c 1,10,11
 265 219 265 219 209 219 c 0,0,1
388 345 m 1,12,-1
 384 201 l 1,13,14
 384 118 384 118 401 3 c 1,15,16
 371 -6 371 -6 349 -6 c 128,-1,17
 327 -6 327 -6 307 -4 c 1,18,-1
 304 44 l 1,19,20
 228 -15 228 -15 169.5 -15 c 128,-1,21
 111 -15 111 -15 80.5 22.5 c 128,-1,22
 50 60 50 60 50 129.5 c 128,-1,23
 50 199 50 199 95.5 235 c 128,-1,24
 141 271 141 271 203 271 c 128,-1,25
 265 271 265 271 310 247 c 1,26,27
 311 267 311 267 311 291 c 128,-1,28
 311 315 311 315 309.5 333 c 128,-1,29
 308 351 308 351 300 375 c 0,30,31
 286 422 286 422 227 422 c 0,32,33
 153 422 153 422 153 341 c 1,34,-1
 154 324 l 1,35,36
 132 322 132 322 113 322 c 128,-1,37
 94 322 94 322 68 330 c 1,38,39
 66 346 66 346 66 353 c 0,40,41
 66 416 66 416 112 447 c 128,-1,42
 158 478 158 478 231.5 478 c 128,-1,43
 305 478 305 478 346.5 444.5 c 128,-1,44
 388 411 388 411 388 345 c 1,12,-1
297 673.5 m 128,-1,46
 314 654 314 654 314 613.5 c 128,-1,47
 314 573 314 573 292.5 550 c 128,-1,48
 271 527 271 527 225 527 c 0,49,50
 150 527 150 527 150 610 c 128,-1,51
 150 693 150 693 239 693 c 0,52,45
 280 693 280 693 297 673.5 c 128,-1,46
237 656 m 0,53,54
 189 656 189 656 189 611 c 0,55,56
 189 585 189 585 198 574.5 c 128,-1,57
 207 564 207 564 227 564 c 0,58,59
 275 564 275 564 275 612 c 0,60,61
 275 656 275 656 237 656 c 0,53,54
EndSplineSet
EndChar

StartChar: ae
Encoding: 230 230 168
Width: 716
GlyphClass: 2
Flags: W
LayerCount: 2
Fore
SplineSet
153 341 m 1,0,-1
 154 324 l 1,1,2
 132 322 132 322 113 322 c 128,-1,3
 94 322 94 322 68 330 c 1,4,5
 66 346 66 346 66 353 c 0,6,7
 66 416 66 416 112 447 c 128,-1,8
 158 478 158 478 241.5 478 c 128,-1,9
 325 478 325 478 364 410 c 1,10,11
 418 478 418 478 497 478 c 128,-1,12
 576 478 576 478 620 434.5 c 128,-1,13
 664 391 664 391 664 331.5 c 128,-1,14
 664 272 664 272 653 246 c 1,15,16
 578 222 578 222 504 222 c 128,-1,17
 430 222 430 222 392 227 c 1,18,19
 392 107 392 107 444 73 c 0,20,21
 468 57 468 57 505 57 c 0,22,23
 565 57 565 57 629 119 c 1,24,25
 658 89 658 89 666 40 c 1,26,27
 586 -16 586 -16 497 -16 c 0,28,29
 387 -16 387 -16 344 66 c 1,30,31
 299 22 299 22 260.5 3.5 c 128,-1,32
 222 -15 222 -15 166.5 -15 c 128,-1,33
 111 -15 111 -15 80.5 22.5 c 128,-1,34
 50 60 50 60 50 129.5 c 128,-1,35
 50 199 50 199 95.5 235 c 128,-1,36
 141 271 141 271 203 271 c 128,-1,37
 265 271 265 271 310 247 c 1,38,39
 311 267 311 267 311 291 c 128,-1,40
 311 315 311 315 309.5 333 c 128,-1,41
 308 351 308 351 300 375 c 0,42,43
 286 422 286 422 227 422 c 0,44,45
 153 422 153 422 153 341 c 1,0,-1
199 57 m 0,46,47
 267 57 267 57 322 126 c 1,48,49
 318 143 318 143 314 177 c 1,50,51
 267 219 267 219 209 219 c 0,52,53
 173 219 173 219 150.5 199.5 c 128,-1,54
 128 180 128 180 128 139 c 0,55,56
 128 57 128 57 199 57 c 0,46,47
497 422 m 0,57,58
 403 422 403 422 393 285 c 1,59,60
 435 280 435 280 490 280 c 128,-1,61
 545 280 545 280 576 290 c 1,62,63
 580 326 580 326 580 327 c 0,64,65
 580 366 580 366 560 394 c 128,-1,66
 540 422 540 422 497 422 c 0,57,58
EndSplineSet
EndChar

StartChar: ccedilla
Encoding: 231 231 169
Width: 430
GlyphClass: 2
Flags: W
LayerCount: 2
Fore
SplineSet
229 478 m 0,0,1
 293 478 293 478 338.5 446 c 128,-1,2
 384 414 384 414 384 353 c 0,3,4
 384 346 384 346 382 330 c 1,5,6
 356 322 356 322 337 322 c 128,-1,7
 318 322 318 322 296 324 c 1,8,9
 297 331 297 331 297 343 c 0,10,11
 297 376 297 376 277.5 399 c 128,-1,12
 258 422 258 422 222 422 c 0,13,14
 127 422 127 422 127 239.5 c 128,-1,15
 127 57 127 57 231 57 c 0,16,17
 281 57 281 57 353 119 c 1,18,19
 382 89 382 89 390 40 c 1,20,21
 309 -13 309 -13 229 -15 c 1,22,-1
 231 -54 l 1,23,24
 332 -58 332 -58 332 -124 c 0,25,26
 332 -210 332 -210 221 -210 c 0,27,28
 176 -210 176 -210 147 -198 c 1,29,30
 146 -195 146 -195 146 -179.5 c 128,-1,31
 146 -164 146 -164 159 -144 c 1,32,33
 181 -164 181 -164 222.5 -164 c 128,-1,34
 264 -164 264 -164 264 -125 c 0,35,36
 264 -95 264 -95 219 -95 c 0,37,38
 199 -95 199 -95 171 -99 c 1,39,-1
 186 -12 l 1,40,41
 107 1 107 1 76 67.5 c 128,-1,42
 45 134 45 134 45 240.5 c 128,-1,43
 45 347 45 347 88 412.5 c 128,-1,44
 131 478 131 478 229 478 c 0,0,1
EndSplineSet
EndChar

StartChar: egrave
Encoding: 232 232 170
Width: 451
GlyphClass: 2
Flags: W
LayerCount: 2
Fore
SplineSet
388 246 m 1,0,1
 313 222 313 222 238.5 222 c 128,-1,2
 164 222 164 222 127 227 c 1,3,4
 127 137 127 137 156 96 c 0,5,6
 183 57 183 57 240 57 c 128,-1,7
 297 57 297 57 364 119 c 1,8,9
 393 89 393 89 401 40 c 1,10,11
 320 -15 320 -15 232 -15 c 0,12,13
 127 -15 127 -15 86 53.5 c 128,-1,14
 45 122 45 122 45 235 c 128,-1,15
 45 348 45 348 90.5 413 c 128,-1,16
 136 478 136 478 239 478 c 0,17,18
 311 478 311 478 354.5 434.5 c 128,-1,19
 398 391 398 391 398.5 331.5 c 128,-1,20
 399 272 399 272 388 246 c 1,0,1
232 422 m 0,21,22
 140 422 140 422 128 285 c 1,23,24
 171 280 171 280 225.5 280 c 128,-1,25
 280 280 280 280 311 290 c 1,26,27
 315 326 315 326 315 327 c 0,28,29
 315 366 315 366 295 394 c 128,-1,30
 275 422 275 422 232 422 c 0,21,22
272 528 m 1,31,32
 148 579 148 579 88 603 c 1,33,34
 89 631 89 631 98 647.5 c 128,-1,35
 107 664 107 664 128 682 c 1,36,37
 174 643 174 643 223.5 610.5 c 128,-1,38
 273 578 273 578 292 565 c 1,39,40
 287 544 287 544 272 528 c 1,31,32
EndSplineSet
EndChar

StartChar: eacute
Encoding: 233 233 171
Width: 451
GlyphClass: 2
Flags: W
LayerCount: 2
Fore
SplineSet
388 246 m 1,0,1
 313 222 313 222 238.5 222 c 128,-1,2
 164 222 164 222 127 227 c 1,3,4
 127 137 127 137 156 96 c 0,5,6
 183 57 183 57 240 57 c 128,-1,7
 297 57 297 57 364 119 c 1,8,9
 393 89 393 89 401 40 c 1,10,11
 320 -15 320 -15 232 -15 c 0,12,13
 127 -15 127 -15 86 53.5 c 128,-1,14
 45 122 45 122 45 235 c 128,-1,15
 45 348 45 348 90.5 413 c 128,-1,16
 136 478 136 478 239 478 c 0,17,18
 311 478 311 478 354.5 434.5 c 128,-1,19
 398 391 398 391 398.5 331.5 c 128,-1,20
 399 272 399 272 388 246 c 1,0,1
232 422 m 0,21,22
 140 422 140 422 128 285 c 1,23,24
 171 280 171 280 225.5 280 c 128,-1,25
 280 280 280 280 311 290 c 1,26,27
 315 326 315 326 315 327 c 0,28,29
 315 366 315 366 295 394 c 128,-1,30
 275 422 275 422 232 422 c 0,21,22
169 528 m 1,31,32
 154 544 154 544 149 565 c 1,33,34
 168 578 168 578 197 597 c 128,-1,35
 226 616 226 616 240 626 c 0,36,37
 280 654 280 654 313 682 c 1,38,39
 334 664 334 664 343 647.5 c 128,-1,40
 352 631 352 631 353 603 c 1,41,42
 293 579 293 579 169 528 c 1,31,32
EndSplineSet
EndChar

StartChar: ecircumflex
Encoding: 234 234 172
Width: 451
GlyphClass: 2
Flags: W
LayerCount: 2
Fore
SplineSet
388 246 m 1,0,1
 313 222 313 222 238.5 222 c 128,-1,2
 164 222 164 222 127 227 c 1,3,4
 127 137 127 137 156 96 c 0,5,6
 183 57 183 57 240 57 c 128,-1,7
 297 57 297 57 364 119 c 1,8,9
 393 89 393 89 401 40 c 1,10,11
 320 -15 320 -15 232 -15 c 0,12,13
 127 -15 127 -15 86 53.5 c 128,-1,14
 45 122 45 122 45 235 c 128,-1,15
 45 348 45 348 90.5 413 c 128,-1,16
 136 478 136 478 239 478 c 0,17,18
 311 478 311 478 354.5 434.5 c 128,-1,19
 398 391 398 391 398.5 331.5 c 128,-1,20
 399 272 399 272 388 246 c 1,0,1
232 422 m 0,21,22
 140 422 140 422 128 285 c 1,23,24
 171 280 171 280 225.5 280 c 128,-1,25
 280 280 280 280 311 290 c 1,26,27
 315 326 315 326 315 327 c 0,28,29
 315 366 315 366 295 394 c 128,-1,30
 275 422 275 422 232 422 c 0,21,22
350 528 m 1,31,-1
 236 591 l 1,32,33
 203 573 203 573 122 528 c 1,34,35
 106 546 106 546 102 565 c 1,36,37
 120 580 120 580 150 604 c 1,38,39
 210 655 210 655 236 682 c 1,40,41
 262 655 262 655 307 617.5 c 128,-1,42
 352 580 352 580 370 565 c 1,43,44
 365 544 365 544 350 528 c 1,31,-1
EndSplineSet
EndChar

StartChar: edieresis
Encoding: 235 235 173
Width: 451
GlyphClass: 2
Flags: W
LayerCount: 2
Fore
SplineSet
388 246 m 1,0,1
 313 222 313 222 238.5 222 c 128,-1,2
 164 222 164 222 127 227 c 1,3,4
 127 137 127 137 156 96 c 0,5,6
 183 57 183 57 240 57 c 128,-1,7
 297 57 297 57 364 119 c 1,8,9
 393 89 393 89 401 40 c 1,10,11
 320 -15 320 -15 232 -15 c 0,12,13
 127 -15 127 -15 86 53.5 c 128,-1,14
 45 122 45 122 45 235 c 128,-1,15
 45 348 45 348 90.5 413 c 128,-1,16
 136 478 136 478 239 478 c 0,17,18
 311 478 311 478 354.5 434.5 c 128,-1,19
 398 391 398 391 398.5 331.5 c 128,-1,20
 399 272 399 272 388 246 c 1,0,1
232 422 m 0,21,22
 140 422 140 422 128 285 c 1,23,24
 171 280 171 280 225.5 280 c 128,-1,25
 280 280 280 280 311 290 c 1,26,27
 315 326 315 326 315 327 c 0,28,29
 315 366 315 366 295 394 c 128,-1,30
 275 422 275 422 232 422 c 0,21,22
367 607 m 0,31,32
 367 552 367 552 309 552 c 0,33,34
 264 552 264 552 264 598 c 0,35,36
 264 654 264 654 322 654 c 0,37,38
 367 654 367 654 367 607 c 0,31,32
217 607 m 0,39,40
 217 552 217 552 159 552 c 0,41,42
 114 552 114 552 114 598 c 0,43,44
 114 654 114 654 172 654 c 0,45,46
 217 654 217 654 217 607 c 0,39,40
EndSplineSet
EndChar

StartChar: igrave
Encoding: 236 236 174
Width: 263
GlyphClass: 2
Flags: W
LayerCount: 2
Fore
SplineSet
173 256 m 0,0,1
 173 92 173 92 191 6 c 1,2,3
 155 -4 155 -4 126 -4 c 128,-1,4
 97 -4 97 -4 85 -2 c 1,5,6
 100 134 100 134 100 247.5 c 128,-1,7
 100 361 100 361 82 458 c 1,8,9
 116 468 116 468 143 468 c 128,-1,10
 170 468 170 468 188 464 c 1,11,12
 173 309 173 309 173 256 c 0,0,1
198 528 m 1,13,14
 74 579 74 579 14 603 c 1,15,16
 15 631 15 631 24 647.5 c 128,-1,17
 33 664 33 664 54 682 c 1,18,19
 100 643 100 643 149.5 610.5 c 128,-1,20
 199 578 199 578 218 565 c 1,21,22
 213 544 213 544 198 528 c 1,13,14
EndSplineSet
EndChar

StartChar: iacute
Encoding: 237 237 175
Width: 263
GlyphClass: 2
Flags: W
LayerCount: 2
Fore
SplineSet
84 528 m 1,0,1
 69 544 69 544 64 565 c 1,2,3
 83 578 83 578 112 597 c 128,-1,4
 141 616 141 616 154 626 c 0,5,6
 195 654 195 654 228 682 c 1,7,8
 249 664 249 664 258 647.5 c 128,-1,9
 267 631 267 631 268 603 c 1,10,11
 208 579 208 579 84 528 c 1,0,1
173 256 m 0,12,13
 173 92 173 92 191 6 c 1,14,15
 155 -4 155 -4 126 -4 c 128,-1,16
 97 -4 97 -4 85 -2 c 1,17,18
 100 134 100 134 100 247.5 c 128,-1,19
 100 361 100 361 82 458 c 1,20,21
 116 468 116 468 143 468 c 128,-1,22
 170 468 170 468 188 464 c 1,23,24
 173 309 173 309 173 256 c 0,12,13
EndSplineSet
EndChar

StartChar: icircumflex
Encoding: 238 238 176
Width: 263
GlyphClass: 2
Flags: W
LayerCount: 2
Fore
SplineSet
173 256 m 0,0,1
 173 92 173 92 191 6 c 1,2,3
 155 -4 155 -4 126 -4 c 128,-1,4
 97 -4 97 -4 85 -2 c 1,5,6
 100 134 100 134 100 247.5 c 128,-1,7
 100 361 100 361 82 458 c 1,8,9
 116 468 116 468 143 468 c 128,-1,10
 170 468 170 468 188 464 c 1,11,12
 173 309 173 309 173 256 c 0,0,1
250 528 m 1,13,-1
 136 591 l 1,14,15
 103 573 103 573 22 528 c 1,16,17
 6 546 6 546 2 565 c 1,18,19
 20 580 20 580 50 604 c 1,20,21
 110 655 110 655 136 682 c 1,22,23
 162 655 162 655 207 617.5 c 128,-1,24
 252 580 252 580 270 565 c 1,25,26
 265 544 265 544 250 528 c 1,13,-1
EndSplineSet
EndChar

StartChar: idieresis
Encoding: 239 239 177
Width: 263
GlyphClass: 2
Flags: W
LayerCount: 2
Fore
SplineSet
173 256 m 0,0,1
 173 92 173 92 191 6 c 1,2,3
 155 -4 155 -4 126 -4 c 128,-1,4
 97 -4 97 -4 85 -2 c 1,5,6
 100 134 100 134 100 247.5 c 128,-1,7
 100 361 100 361 82 458 c 1,8,9
 116 468 116 468 143 468 c 128,-1,10
 170 468 170 468 188 464 c 1,11,12
 173 309 173 309 173 256 c 0,0,1
112 607 m 0,13,14
 112 552 112 552 54 552 c 0,15,16
 9 552 9 552 9 598 c 0,17,18
 9 654 9 654 67 654 c 0,19,20
 112 654 112 654 112 607 c 0,13,14
262 607 m 0,21,22
 262 552 262 552 204 552 c 0,23,24
 159 552 159 552 159 598 c 0,25,26
 159 654 159 654 217 654 c 0,27,28
 262 654 262 654 262 607 c 0,21,22
EndSplineSet
EndChar

StartChar: eth
Encoding: 240 240 178
Width: 486
GlyphClass: 2
Flags: W
LayerCount: 2
Fore
SplineSet
431 246 m 0,0,1
 431 99 431 99 382 40 c 0,2,3
 362 16 362 16 326.5 0.5 c 128,-1,4
 291 -15 291 -15 238.5 -15 c 128,-1,5
 186 -15 186 -15 147.5 4.5 c 128,-1,6
 109 24 109 24 90 61 c 0,7,8
 55 126 55 126 55 236.5 c 128,-1,9
 55 347 55 347 97.5 412.5 c 128,-1,10
 140 478 140 478 234 478 c 0,11,12
 288 478 288 478 334 435 c 1,13,14
 302 522 302 522 249 569 c 1,15,16
 188 534 188 534 166 518 c 1,17,18
 145 531 145 531 145 561 c 1,19,20
 174 576 174 576 210 597 c 1,21,22
 175 618 175 618 123 637 c 1,23,24
 123 671 123 671 136 687 c 1,25,26
 209 665 209 665 263 627 c 1,27,28
 327 663 327 663 351 681 c 1,29,30
 371 669 371 669 373 636 c 1,31,32
 339 619 339 619 299 597 c 1,33,34
 431 476 431 476 431 246 c 0,0,1
243 57 m 128,-1,36
 349 57 349 57 349 239.5 c 128,-1,37
 349 422 349 422 243 422 c 128,-1,38
 137 422 137 422 137 239.5 c 128,-1,35
 137 57 137 57 243 57 c 128,-1,36
EndSplineSet
EndChar

StartChar: ntilde
Encoding: 241 241 179
Width: 533
GlyphClass: 2
Flags: W
LayerCount: 2
Fore
SplineSet
443 334 m 2,0,-1
 442 253 l 1,1,2
 442 124 442 124 462 9 c 1,3,4
 429 -4 429 -4 397.5 -4 c 128,-1,5
 366 -4 366 -4 354 -2 c 1,6,7
 366 131 366 131 366 232.5 c 128,-1,8
 366 334 366 334 351.5 374 c 128,-1,9
 337 414 337 414 288 414 c 128,-1,10
 239 414 239 414 175 350 c 1,11,12
 173 319 173 319 173 256 c 0,13,14
 173 92 173 92 191 6 c 1,15,16
 155 -4 155 -4 126 -4 c 128,-1,17
 97 -4 97 -4 85 -2 c 1,18,19
 100 134 100 134 100 236 c 128,-1,20
 100 338 100 338 80 458 c 1,21,22
 120 468 120 468 143 468 c 128,-1,23
 166 468 166 468 179 464 c 1,24,-1
 179 413 l 1,25,26
 248 478 248 478 317 478 c 128,-1,27
 386 478 386 478 414.5 442.5 c 128,-1,28
 443 407 443 407 443 334 c 2,0,-1
165 620.5 m 128,-1,30
 194 643 194 643 220 643 c 128,-1,31
 246 643 246 643 277.5 626.5 c 128,-1,32
 309 610 309 610 326 610 c 0,33,34
 351 610 351 610 376 650 c 1,35,36
 403 638 403 638 410 617 c 1,37,38
 396 590 396 590 367 567 c 128,-1,39
 338 544 338 544 311.5 544 c 128,-1,40
 285 544 285 544 253.5 560.5 c 128,-1,41
 222 577 222 577 200.5 577 c 128,-1,42
 179 577 179 577 154 537 c 1,43,44
 129 549 129 549 122 570 c 1,45,29
 136 598 136 598 165 620.5 c 128,-1,30
EndSplineSet
EndChar

StartChar: ograve
Encoding: 242 242 180
Width: 466
GlyphClass: 2
Flags: W
LayerCount: 2
Fore
SplineSet
233 478 m 128,-1,1
 421 478 421 478 421 237 c 0,2,3
 421 126 421 126 386 61 c 0,4,5
 346 -15 346 -15 233 -15 c 128,-1,6
 120 -15 120 -15 80 61 c 0,7,8
 45 126 45 126 45 237 c 0,9,0
 45 478 45 478 233 478 c 128,-1,1
233 57 m 128,-1,11
 339 57 339 57 339 239.5 c 128,-1,12
 339 422 339 422 233 422 c 128,-1,13
 127 422 127 422 127 239.5 c 128,-1,10
 127 57 127 57 233 57 c 128,-1,11
285 528 m 1,14,15
 161 579 161 579 101 603 c 1,16,17
 102 631 102 631 111 647.5 c 128,-1,18
 120 664 120 664 141 682 c 1,19,20
 187 643 187 643 236.5 610.5 c 128,-1,21
 286 578 286 578 305 565 c 1,22,23
 300 544 300 544 285 528 c 1,14,15
EndSplineSet
EndChar

StartChar: oacute
Encoding: 243 243 181
Width: 466
GlyphClass: 2
Flags: W
LayerCount: 2
Fore
SplineSet
233 478 m 128,-1,1
 421 478 421 478 421 237 c 0,2,3
 421 126 421 126 386 61 c 0,4,5
 346 -15 346 -15 233 -15 c 128,-1,6
 120 -15 120 -15 80 61 c 0,7,8
 45 126 45 126 45 237 c 0,9,0
 45 478 45 478 233 478 c 128,-1,1
233 57 m 128,-1,11
 339 57 339 57 339 239.5 c 128,-1,12
 339 422 339 422 233 422 c 128,-1,13
 127 422 127 422 127 239.5 c 128,-1,10
 127 57 127 57 233 57 c 128,-1,11
181 528 m 1,14,15
 166 544 166 544 161 565 c 1,16,17
 180 578 180 578 209 597 c 128,-1,18
 238 616 238 616 252 626 c 0,19,20
 292 654 292 654 325 682 c 1,21,22
 346 664 346 664 355 647.5 c 128,-1,23
 364 631 364 631 365 603 c 1,24,25
 305 579 305 579 181 528 c 1,14,15
EndSplineSet
EndChar

StartChar: ocircumflex
Encoding: 244 244 182
Width: 466
GlyphClass: 2
Flags: W
LayerCount: 2
Fore
SplineSet
233 478 m 128,-1,1
 421 478 421 478 421 237 c 0,2,3
 421 126 421 126 386 61 c 0,4,5
 346 -15 346 -15 233 -15 c 128,-1,6
 120 -15 120 -15 80 61 c 0,7,8
 45 126 45 126 45 237 c 0,9,0
 45 478 45 478 233 478 c 128,-1,1
233 57 m 128,-1,11
 339 57 339 57 339 239.5 c 128,-1,12
 339 422 339 422 233 422 c 128,-1,13
 127 422 127 422 127 239.5 c 128,-1,10
 127 57 127 57 233 57 c 128,-1,11
347 528 m 1,14,-1
 233 591 l 1,15,16
 200 573 200 573 119 528 c 1,17,18
 103 546 103 546 99 565 c 1,19,20
 117 580 117 580 146 604 c 0,21,22
 207 655 207 655 233 682 c 1,23,24
 259 655 259 655 304 617.5 c 128,-1,25
 349 580 349 580 367 565 c 1,26,27
 362 544 362 544 347 528 c 1,14,-1
EndSplineSet
EndChar

StartChar: otilde
Encoding: 245 245 183
Width: 466
GlyphClass: 2
Flags: W
LayerCount: 2
Fore
SplineSet
233 478 m 128,-1,1
 421 478 421 478 421 237 c 0,2,3
 421 126 421 126 386 61 c 0,4,5
 346 -15 346 -15 233 -15 c 128,-1,6
 120 -15 120 -15 80 61 c 0,7,8
 45 126 45 126 45 237 c 0,9,0
 45 478 45 478 233 478 c 128,-1,1
233 57 m 128,-1,11
 339 57 339 57 339 239.5 c 128,-1,12
 339 422 339 422 233 422 c 128,-1,13
 127 422 127 422 127 239.5 c 128,-1,10
 127 57 127 57 233 57 c 128,-1,11
132 620.5 m 128,-1,15
 161 643 161 643 187 643 c 128,-1,16
 213 643 213 643 244.5 626.5 c 128,-1,17
 276 610 276 610 293 610 c 0,18,19
 318 610 318 610 343 650 c 1,20,21
 370 638 370 638 377 617 c 1,22,23
 363 590 363 590 334 567 c 128,-1,24
 305 544 305 544 278.5 544 c 128,-1,25
 252 544 252 544 220.5 560.5 c 128,-1,26
 189 577 189 577 167.5 577 c 128,-1,27
 146 577 146 577 121 537 c 1,28,29
 96 549 96 549 89 570 c 1,30,14
 103 598 103 598 132 620.5 c 128,-1,15
EndSplineSet
EndChar

StartChar: odieresis
Encoding: 246 246 184
Width: 466
GlyphClass: 2
Flags: W
LayerCount: 2
Fore
SplineSet
233 478 m 128,-1,1
 421 478 421 478 421 237 c 0,2,3
 421 126 421 126 386 61 c 0,4,5
 346 -15 346 -15 233 -15 c 128,-1,6
 120 -15 120 -15 80 61 c 0,7,8
 45 126 45 126 45 237 c 0,9,0
 45 478 45 478 233 478 c 128,-1,1
233 57 m 128,-1,11
 339 57 339 57 339 239.5 c 128,-1,12
 339 422 339 422 233 422 c 128,-1,13
 127 422 127 422 127 239.5 c 128,-1,10
 127 57 127 57 233 57 c 128,-1,11
209 607 m 0,14,15
 209 552 209 552 151 552 c 0,16,17
 106 552 106 552 106 598 c 0,18,19
 106 654 106 654 164 654 c 0,20,21
 209 654 209 654 209 607 c 0,14,15
359 607 m 0,22,23
 359 552 359 552 301 552 c 0,24,25
 256 552 256 552 256 598 c 0,26,27
 256 654 256 654 314 654 c 0,28,29
 359 654 359 654 359 607 c 0,22,23
EndSplineSet
EndChar

StartChar: divide
Encoding: 247 247 185
Width: 601
GlyphClass: 2
Flags: W
LayerCount: 2
Fore
SplineSet
507 286 m 1,0,1
 415 295 415 295 328.5 295 c 128,-1,2
 242 295 242 295 175 290.5 c 128,-1,3
 108 286 108 286 90 281 c 1,4,5
 87 295 87 295 87 321 c 128,-1,6
 87 347 87 347 94 369 c 1,7,8
 163 360 163 360 261 360 c 0,9,10
 461 360 461 360 511 374 c 1,11,12
 514 360 514 360 514 334 c 128,-1,13
 514 308 514 308 507 286 c 1,0,1
365 500 m 0,14,15
 365 470 365 470 347 450 c 128,-1,16
 329 430 329 430 292 430 c 0,17,18
 235 430 235 430 235 488 c 0,19,20
 235 560 235 560 308 560 c 0,21,22
 365 560 365 560 365 500 c 0,14,15
365 165 m 0,23,24
 365 135 365 135 347 115 c 128,-1,25
 329 95 329 95 292 95 c 0,26,27
 235 95 235 95 235 153 c 0,28,29
 235 225 235 225 308 225 c 0,30,31
 365 225 365 225 365 165 c 0,23,24
EndSplineSet
EndChar

StartChar: oslash
Encoding: 248 248 186
Width: 466
GlyphClass: 2
Flags: W
LayerCount: 2
Fore
SplineSet
379 527 m 1,0,1
 358 482 358 482 344 447 c 1,2,3
 421 392 421 392 421 237 c 0,4,5
 421 126 421 126 386 61 c 0,6,7
 346 -15 346 -15 233 -15 c 0,8,9
 202 -15 202 -15 177 -9 c 1,10,-1
 155 -79 l 1,11,12
 141 -81 141 -81 136 -81 c 0,13,14
 107 -81 107 -81 87 -65 c 1,15,-1
 121 15 l 1,16,17
 45 68 45 68 45 237 c 0,18,19
 45 478 45 478 233 478 c 0,20,21
 262 478 262 478 288 472 c 1,22,-1
 310 541 l 1,23,24
 322 543 322 543 340 543 c 128,-1,25
 358 543 358 543 379 527 c 1,0,1
127 237 m 0,26,27
 127 143 127 143 154 98 c 1,28,29
 212 249 212 249 269 415 c 1,30,31
 250 422 250 422 233 422 c 0,32,33
 127 422 127 422 127 237 c 0,26,27
233 57 m 0,34,35
 339 57 339 57 339 237 c 0,36,37
 339 324 339 324 314 373 c 1,38,39
 257 229 257 229 201 61 c 1,40,41
 213 57 213 57 233 57 c 0,34,35
EndSplineSet
EndChar

StartChar: ugrave
Encoding: 249 249 187
Width: 502
GlyphClass: 2
Flags: W
LayerCount: 2
Fore
SplineSet
82 129 m 2,0,-1
 83 210 l 1,1,2
 83 363 83 363 65 458 c 1,3,4
 88 467 88 467 116 467 c 128,-1,5
 144 467 144 467 171 464 c 1,6,7
 156 327 156 327 156 231 c 128,-1,8
 156 135 156 135 169.5 96 c 128,-1,9
 183 57 183 57 229.5 57 c 128,-1,10
 276 57 276 57 337 118 c 1,11,12
 339 148 339 148 339 207 c 0,13,14
 339 372 339 372 321 458 c 1,15,16
 359 468 359 468 384 468 c 128,-1,17
 409 468 409 468 427 464 c 1,18,19
 412 328 412 328 412 219.5 c 128,-1,20
 412 111 412 111 430 3 c 1,21,22
 400 -6 400 -6 378 -6 c 128,-1,23
 356 -6 356 -6 336 -4 c 1,24,-1
 334 45 l 1,25,26
 260 -15 260 -15 197.5 -15 c 128,-1,27
 135 -15 135 -15 108.5 20.5 c 128,-1,28
 82 56 82 56 82 129 c 2,0,-1
299 528 m 1,29,30
 175 579 175 579 115 603 c 1,31,32
 116 631 116 631 125 647.5 c 128,-1,33
 134 664 134 664 155 682 c 1,34,35
 201 643 201 643 250.5 610.5 c 128,-1,36
 300 578 300 578 319 565 c 1,37,38
 314 544 314 544 299 528 c 1,29,30
EndSplineSet
EndChar

StartChar: uacute
Encoding: 250 250 188
Width: 502
GlyphClass: 2
Flags: W
LayerCount: 2
Fore
SplineSet
82 129 m 2,0,-1
 83 210 l 1,1,2
 83 363 83 363 65 458 c 1,3,4
 88 467 88 467 116 467 c 128,-1,5
 144 467 144 467 171 464 c 1,6,7
 156 327 156 327 156 231 c 128,-1,8
 156 135 156 135 169.5 96 c 128,-1,9
 183 57 183 57 229.5 57 c 128,-1,10
 276 57 276 57 337 118 c 1,11,12
 339 148 339 148 339 207 c 0,13,14
 339 372 339 372 321 458 c 1,15,16
 359 468 359 468 384 468 c 128,-1,17
 409 468 409 468 427 464 c 1,18,19
 412 328 412 328 412 219.5 c 128,-1,20
 412 111 412 111 430 3 c 1,21,22
 400 -6 400 -6 378 -6 c 128,-1,23
 356 -6 356 -6 336 -4 c 1,24,-1
 334 45 l 1,25,26
 260 -15 260 -15 197.5 -15 c 128,-1,27
 135 -15 135 -15 108.5 20.5 c 128,-1,28
 82 56 82 56 82 129 c 2,0,-1
196 528 m 1,29,30
 181 544 181 544 176 565 c 1,31,32
 195 578 195 578 224 597 c 128,-1,33
 253 616 253 616 266 626 c 0,34,35
 307 654 307 654 340 682 c 1,36,37
 361 664 361 664 370 647.5 c 128,-1,38
 379 631 379 631 380 603 c 1,39,40
 320 579 320 579 196 528 c 1,29,30
EndSplineSet
EndChar

StartChar: ucircumflex
Encoding: 251 251 189
Width: 502
GlyphClass: 2
Flags: W
LayerCount: 2
Fore
SplineSet
82 129 m 2,0,-1
 83 210 l 1,1,2
 83 363 83 363 65 458 c 1,3,4
 88 467 88 467 116 467 c 128,-1,5
 144 467 144 467 171 464 c 1,6,7
 156 327 156 327 156 231 c 128,-1,8
 156 135 156 135 169.5 96 c 128,-1,9
 183 57 183 57 229.5 57 c 128,-1,10
 276 57 276 57 337 118 c 1,11,12
 339 148 339 148 339 207 c 0,13,14
 339 372 339 372 321 458 c 1,15,16
 359 468 359 468 384 468 c 128,-1,17
 409 468 409 468 427 464 c 1,18,19
 412 328 412 328 412 219.5 c 128,-1,20
 412 111 412 111 430 3 c 1,21,22
 400 -6 400 -6 378 -6 c 128,-1,23
 356 -6 356 -6 336 -4 c 1,24,-1
 334 45 l 1,25,26
 260 -15 260 -15 197.5 -15 c 128,-1,27
 135 -15 135 -15 108.5 20.5 c 128,-1,28
 82 56 82 56 82 129 c 2,0,-1
362 528 m 1,29,-1
 248 591 l 1,30,31
 215 573 215 573 134 528 c 1,32,33
 118 546 118 546 114 565 c 1,34,35
 132 580 132 580 162 604 c 1,36,37
 222 655 222 655 248 682 c 1,38,39
 274 655 274 655 319 617.5 c 128,-1,40
 364 580 364 580 382 565 c 1,41,42
 377 544 377 544 362 528 c 1,29,-1
EndSplineSet
EndChar

StartChar: udieresis
Encoding: 252 252 190
Width: 502
GlyphClass: 2
Flags: W
LayerCount: 2
Fore
SplineSet
82 129 m 2,0,-1
 83 210 l 1,1,2
 83 363 83 363 65 458 c 1,3,4
 88 467 88 467 116 467 c 128,-1,5
 144 467 144 467 171 464 c 1,6,7
 156 327 156 327 156 231 c 128,-1,8
 156 135 156 135 169.5 96 c 128,-1,9
 183 57 183 57 229.5 57 c 128,-1,10
 276 57 276 57 337 118 c 1,11,12
 339 148 339 148 339 207 c 0,13,14
 339 372 339 372 321 458 c 1,15,16
 359 468 359 468 384 468 c 128,-1,17
 409 468 409 468 427 464 c 1,18,19
 412 328 412 328 412 219.5 c 128,-1,20
 412 111 412 111 430 3 c 1,21,22
 400 -6 400 -6 378 -6 c 128,-1,23
 356 -6 356 -6 336 -4 c 1,24,-1
 334 45 l 1,25,26
 260 -15 260 -15 197.5 -15 c 128,-1,27
 135 -15 135 -15 108.5 20.5 c 128,-1,28
 82 56 82 56 82 129 c 2,0,-1
374 607 m 0,29,30
 374 552 374 552 316 552 c 0,31,32
 271 552 271 552 271 598 c 0,33,34
 271 654 271 654 329 654 c 0,35,36
 374 654 374 654 374 607 c 0,29,30
224 607 m 0,37,38
 224 552 224 552 166 552 c 0,39,40
 121 552 121 552 121 598 c 0,41,42
 121 654 121 654 179 654 c 0,43,44
 224 654 224 654 224 607 c 0,37,38
EndSplineSet
EndChar

StartChar: yacute
Encoding: 253 253 191
Width: 443
GlyphClass: 2
Flags: W
LayerCount: 2
Fore
SplineSet
180 -160.5 m 128,-1,1
 140 -210 140 -210 85 -210 c 128,-1,2
 30 -210 30 -210 -18 -178 c 1,3,4
 -14 -120 -14 -120 15 -95 c 1,5,6
 45 -136 45 -136 88 -136 c 0,7,8
 111 -136 111 -136 140 -97 c 128,-1,9
 169 -58 169 -58 187 -6 c 1,10,11
 161 86 161 86 109.5 221.5 c 128,-1,12
 58 357 58 357 11 452 c 1,13,14
 51 469 51 469 83.5 469 c 128,-1,15
 116 469 116 469 127 468 c 1,16,17
 137 325 137 325 226 111 c 1,18,-1
 230 111 l 1,19,20
 263 174 263 174 294.5 284 c 128,-1,21
 326 394 326 394 330 467 c 1,22,23
 348 469 348 469 357 469 c 0,24,25
 404 469 404 469 435 452 c 1,26,27
 410 396 410 396 346 235.5 c 128,-1,28
 282 75 282 75 251 -18 c 128,-1,0
 220 -111 220 -111 180 -160.5 c 128,-1,1
185 528 m 1,29,30
 170 544 170 544 165 565 c 1,31,32
 184 578 184 578 213 597 c 128,-1,33
 242 616 242 616 256 626 c 0,34,35
 296 654 296 654 329 682 c 1,36,37
 350 664 350 664 359 647.5 c 128,-1,38
 368 631 368 631 369 603 c 1,39,40
 309 579 309 579 185 528 c 1,29,30
EndSplineSet
EndChar

StartChar: thorn
Encoding: 254 254 192
Width: 494
GlyphClass: 2
Flags: W
LayerCount: 2
Fore
SplineSet
60 -208 m 1,0,1
 80 -21 80 -21 80 232 c 128,-1,2
 80 485 80 485 77 543 c 128,-1,3
 74 601 74 601 62 672 c 1,4,5
 88 682 88 682 114 682 c 128,-1,6
 140 682 140 682 168 680 c 1,7,8
 153 561 153 561 153 410 c 1,9,10
 230 478 230 478 298 478 c 0,11,12
 439 478 439 478 439 238 c 0,13,14
 439 146 439 146 402 71 c 0,15,16
 383 31 383 31 343 8 c 128,-1,17
 303 -15 303 -15 253.5 -15 c 128,-1,18
 204 -15 204 -15 152 9 c 1,19,20
 156 -138 156 -138 169 -200 c 1,21,22
 147 -210 147 -210 112.5 -210 c 128,-1,23
 78 -210 78 -210 60 -208 c 1,0,1
245 57 m 0,24,25
 354 57 354 57 354 251 c 0,26,27
 354 369 354 369 316 400 c 1,28,29
 297 414 297 414 268 414 c 128,-1,30
 239 414 239 414 207 395 c 128,-1,31
 175 376 175 376 153 349 c 1,32,33
 151 266 151 266 151 80 c 1,34,35
 209 57 209 57 245 57 c 0,24,25
EndSplineSet
EndChar

StartChar: ydieresis
Encoding: 255 255 193
Width: 441
GlyphClass: 2
Flags: W
LayerCount: 2
Fore
SplineSet
181 -160.5 m 128,-1,1
 141 -210 141 -210 86 -210 c 128,-1,2
 31 -210 31 -210 -17 -178 c 1,3,4
 -13 -120 -13 -120 16 -95 c 1,5,6
 46 -136 46 -136 89 -136 c 0,7,8
 112 -136 112 -136 141 -97 c 128,-1,9
 170 -58 170 -58 188 -6 c 1,10,11
 162 86 162 86 110.5 221.5 c 128,-1,12
 59 357 59 357 12 452 c 1,13,14
 52 469 52 469 84.5 469 c 128,-1,15
 117 469 117 469 128 468 c 1,16,17
 138 325 138 325 227 111 c 1,18,-1
 231 111 l 1,19,20
 264 174 264 174 295.5 284 c 128,-1,21
 327 394 327 394 331 467 c 1,22,23
 349 469 349 469 358 469 c 0,24,25
 405 469 405 469 436 452 c 1,26,27
 411 396 411 396 347 235.5 c 128,-1,28
 283 75 283 75 252 -18 c 128,-1,0
 221 -111 221 -111 181 -160.5 c 128,-1,1
215 607 m 0,29,30
 215 552 215 552 157 552 c 0,31,32
 112 552 112 552 112 598 c 0,33,34
 112 654 112 654 170 654 c 0,35,36
 215 654 215 654 215 607 c 0,29,30
365 607 m 0,37,38
 365 552 365 552 307 552 c 0,39,40
 262 552 262 552 262 598 c 0,41,42
 262 654 262 654 320 654 c 0,43,44
 365 654 365 654 365 607 c 0,37,38
EndSplineSet
EndChar

StartChar: dotlessi
Encoding: 305 305 194
Width: 263
GlyphClass: 2
Flags: W
LayerCount: 2
Fore
SplineSet
173 256 m 0,0,1
 173 92 173 92 191 6 c 1,2,3
 155 -4 155 -4 126 -4 c 128,-1,4
 97 -4 97 -4 85 -2 c 1,5,6
 100 134 100 134 100 247.5 c 128,-1,7
 100 361 100 361 82 458 c 1,8,9
 116 468 116 468 143 468 c 128,-1,10
 170 468 170 468 188 464 c 1,11,12
 173 309 173 309 173 256 c 0,0,1
EndSplineSet
EndChar

StartChar: Lslash
Encoding: 321 321 195
Width: 443
GlyphClass: 2
Flags: W
LayerCount: 2
Fore
SplineSet
33 222 m 1,0,1
 27 234 27 234 27 251 c 128,-1,2
 27 268 27 268 33 294 c 1,3,-1
 111 320 l 1,4,5
 111 540 111 540 94 639 c 1,6,7
 120 649 120 649 146 649 c 128,-1,8
 172 649 172 649 200 647 c 1,9,10
 186 539 186 539 186 346 c 1,11,12
 283 381 283 381 315 399 c 1,13,14
 321 387 321 387 321 369.5 c 128,-1,15
 321 352 321 352 315 327 c 1,16,-1
 186 282 l 1,17,18
 186 160 186 160 193 76 c 1,19,20
 228 73 228 73 299 73 c 128,-1,21
 370 73 370 73 423 82 c 1,22,23
 431 56 431 56 431 31.5 c 128,-1,24
 431 7 431 7 427 -11 c 1,25,26
 408 -6 408 -6 347 -1.5 c 128,-1,27
 286 3 286 3 225 3 c 128,-1,28
 164 3 164 3 97 -4 c 1,29,30
 107 105 107 105 111 255 c 1,31,32
 51 232 51 232 33 222 c 1,0,1
EndSplineSet
EndChar

StartChar: lslash
Encoding: 322 322 196
Width: 252
GlyphClass: 2
Flags: W
LayerCount: 2
Fore
SplineSet
20 226 m 1,0,1
 14 238 14 238 14 255 c 128,-1,2
 14 272 14 272 20 298 c 1,3,-1
 92 322 l 1,4,5
 92 486 92 486 89 543.5 c 128,-1,6
 86 601 86 601 74 672 c 1,7,8
 100 682 100 682 126 682 c 128,-1,9
 152 682 152 682 180 680 c 1,10,11
 165 557 165 557 165 362 c 2,12,-1
 165 348 l 1,13,14
 213 366 213 366 242 382 c 1,15,16
 248 370 248 370 248 353 c 128,-1,17
 248 336 248 336 242 310 c 1,18,-1
 165 284 l 1,19,20
 168 52 168 52 183 6 c 1,21,22
 150 -4 150 -4 122 -4 c 128,-1,23
 94 -4 94 -4 77 -2 c 1,24,25
 91 122 91 122 92 258 c 1,26,27
 45 240 45 240 20 226 c 1,0,1
EndSplineSet
EndChar

StartChar: OE
Encoding: 338 338 197
Width: 806
GlyphClass: 2
Flags: W
LayerCount: 2
Fore
SplineSet
482 76 m 1,0,1
 517 73 517 73 603 73 c 128,-1,2
 689 73 689 73 742 82 c 1,3,4
 750 56 750 56 750 31.5 c 128,-1,5
 750 7 750 7 746 -11 c 1,6,7
 727 -6 727 -6 665.5 -1.5 c 128,-1,8
 604 3 604 3 527 3 c 128,-1,9
 450 3 450 3 397 0 c 1,10,11
 356 -15 356 -15 297 -15 c 128,-1,12
 238 -15 238 -15 192.5 4 c 128,-1,13
 147 23 147 23 121 53 c 128,-1,14
 95 83 95 83 79.5 130 c 128,-1,15
 64 177 64 177 59.5 222 c 128,-1,16
 55 267 55 267 55 327 c 0,17,18
 55 655 55 655 300 655 c 0,19,20
 341 655 341 655 379 644 c 1,21,22
 436 639 436 639 519 639 c 0,23,24
 691 639 691 639 741 653 c 1,25,26
 745 635 745 635 745 613 c 128,-1,27
 745 591 745 591 737 565 c 1,28,29
 684 574 684 574 600 574 c 128,-1,30
 516 574 516 574 481 571 c 1,31,32
 475 514 475 514 475 365 c 1,33,34
 496 364 496 364 576 364 c 128,-1,35
 656 364 656 364 706 375 c 1,36,37
 711 343 711 343 711 322.5 c 128,-1,38
 711 302 711 302 710 289 c 1,39,40
 663 297 663 297 580.5 297 c 128,-1,41
 498 297 498 297 475 295 c 1,42,43
 475 164 475 164 482 76 c 1,0,1
216 81 m 0,44,45
 250 59 250 59 304 59 c 128,-1,46
 358 59 358 59 396 89 c 1,47,48
 400 205 400 205 400 314 c 128,-1,49
 400 423 400 423 387 568 c 1,50,51
 350 596 350 596 300 596 c 0,52,53
 214 596 214 596 174 523 c 128,-1,54
 134 450 134 450 134 326 c 0,55,56
 134 133 134 133 216 81 c 0,44,45
EndSplineSet
EndChar

StartChar: oe
Encoding: 339 339 198
Width: 744
GlyphClass: 2
Flags: W
LayerCount: 2
Fore
SplineSet
233 478 m 0,0,1
 339 478 339 478 384 397 c 1,2,3
 435 478 435 478 532 478 c 0,4,5
 604 478 604 478 647.5 434.5 c 128,-1,6
 691 391 691 391 691.5 331.5 c 128,-1,7
 692 272 692 272 681 246 c 1,8,9
 606 222 606 222 532 222 c 128,-1,10
 458 222 458 222 421 227 c 1,11,12
 421 212 421 212 420 205 c 1,13,14
 427 57 427 57 533 57 c 0,15,16
 590 57 590 57 657 119 c 1,17,18
 686 89 686 89 694 40 c 1,19,20
 611 -16 611 -16 525 -16 c 0,21,22
 423 -16 423 -16 379 64 c 1,23,24
 335 -15 335 -15 233 -15 c 0,25,26
 120 -15 120 -15 80 61 c 0,27,28
 45 126 45 126 45 237 c 0,29,30
 45 478 45 478 233 478 c 0,0,1
233 57 m 128,-1,32
 339 57 339 57 339 239.5 c 128,-1,33
 339 422 339 422 233 422 c 128,-1,34
 127 422 127 422 127 239.5 c 128,-1,31
 127 57 127 57 233 57 c 128,-1,32
525 422 m 0,35,36
 432 422 432 422 421 285 c 1,37,38
 464 280 464 280 518.5 280 c 128,-1,39
 573 280 573 280 604 290 c 1,40,41
 608 326 608 326 608 327 c 0,42,43
 608 366 608 366 588 394 c 128,-1,44
 568 422 568 422 525 422 c 0,35,36
EndSplineSet
EndChar

StartChar: Scaron
Encoding: 352 352 199
Width: 483
GlyphClass: 2
Flags: W
LayerCount: 2
Fore
SplineSet
169.5 73.5 m 128,-1,1
 213 49 213 49 264 49 c 128,-1,2
 315 49 315 49 341.5 77 c 128,-1,3
 368 105 368 105 368 145 c 128,-1,4
 368 185 368 185 336 217 c 128,-1,5
 304 249 304 249 258.5 272 c 128,-1,6
 213 295 213 295 168 320.5 c 128,-1,7
 123 346 123 346 91 389 c 128,-1,8
 59 432 59 432 59 497 c 128,-1,9
 59 562 59 562 105.5 608.5 c 128,-1,10
 152 655 152 655 251 655 c 128,-1,11
 350 655 350 655 396.5 606 c 128,-1,12
 443 557 443 557 443 478 c 0,13,14
 443 466 443 466 440 453 c 1,15,16
 414 444 414 444 388 444 c 128,-1,17
 362 444 362 444 350 446 c 1,18,19
 351 454 351 454 351 467 c 0,20,21
 351 525 351 525 320.5 560.5 c 128,-1,22
 290 596 290 596 244 596 c 128,-1,23
 198 596 198 596 171.5 571.5 c 128,-1,24
 145 547 145 547 145 502.5 c 128,-1,25
 145 458 145 458 176.5 425.5 c 128,-1,26
 208 393 208 393 253.5 369 c 128,-1,27
 299 345 299 345 344.5 318.5 c 128,-1,28
 390 292 390 292 421.5 247.5 c 128,-1,29
 453 203 453 203 453 137.5 c 128,-1,30
 453 72 453 72 399.5 28.5 c 128,-1,31
 346 -15 346 -15 268 -15 c 0,32,33
 127 -15 127 -15 46 61 c 1,34,35
 50 85 50 85 62.5 105 c 128,-1,36
 75 125 75 125 86 132 c 1,37,-1
 96 140 l 1,38,0
 126 98 126 98 169.5 73.5 c 128,-1,1
122 835 m 1,39,40
 190 814 190 814 249 783 c 1,41,42
 336 823 336 823 384 835 c 1,43,44
 396 817 396 817 399 796 c 1,45,46
 378 782 378 782 360 773 c 128,-1,47
 342 764 342 764 327.5 755 c 128,-1,48
 313 746 313 746 306 741 c 128,-1,49
 299 736 299 736 288 728 c 0,50,51
 273 718 273 718 249 694 c 1,52,53
 205 736 205 736 106 797 c 1,54,55
 109 818 109 818 122 835 c 1,39,40
EndSplineSet
EndChar

StartChar: scaron
Encoding: 353 353 200
Width: 403
GlyphClass: 2
Flags: W
LayerCount: 2
Fore
SplineSet
361 126 m 0,0,1
 361 55 361 55 315 20 c 128,-1,2
 269 -15 269 -15 200 -15 c 0,3,4
 104 -15 104 -15 32 40 c 1,5,6
 36 62 36 62 47.5 83.5 c 128,-1,7
 59 105 59 105 68 116 c 1,8,-1
 78 126 l 1,9,10
 130 52 130 52 202 52 c 0,11,12
 237 52 237 52 259.5 67 c 128,-1,13
 282 82 282 82 282 108.5 c 128,-1,14
 282 135 282 135 257.5 156 c 128,-1,15
 233 177 233 177 198 191.5 c 128,-1,16
 163 206 163 206 128 222.5 c 128,-1,17
 93 239 93 239 68.5 270 c 128,-1,18
 44 301 44 301 44 344 c 0,19,20
 44 406 44 406 84 442 c 128,-1,21
 124 478 124 478 204.5 478 c 128,-1,22
 285 478 285 478 320.5 443 c 128,-1,23
 356 408 356 408 356 333 c 1,24,25
 334 325 334 325 315 325 c 128,-1,26
 296 325 296 325 268 331 c 1,27,28
 270 345 270 345 270 353 c 0,29,30
 270 384 270 384 252 404.5 c 128,-1,31
 234 425 234 425 200.5 425 c 128,-1,32
 167 425 167 425 145 409.5 c 128,-1,33
 123 394 123 394 123 362.5 c 128,-1,34
 123 331 123 331 147.5 308 c 128,-1,35
 172 285 172 285 207 270.5 c 128,-1,36
 242 256 242 256 277 240.5 c 128,-1,37
 312 225 312 225 336.5 196.5 c 128,-1,38
 361 168 361 168 361 126 c 0,0,1
86 672 m 1,39,-1
 200 609 l 1,40,41
 233 627 233 627 314 672 c 1,42,43
 330 654 330 654 334 635 c 1,44,45
 316 620 316 620 286 596 c 1,46,47
 226 545 226 545 200 518 c 1,48,49
 174 545 174 545 129 582.5 c 128,-1,50
 84 620 84 620 66 635 c 1,51,52
 71 656 71 656 86 672 c 1,39,-1
EndSplineSet
EndChar

StartChar: Ydieresis
Encoding: 376 376 201
Width: 466
GlyphClass: 2
Flags: W
LayerCount: 2
Fore
SplineSet
1 634 m 1,0,1
 41 651 41 651 73.5 651 c 128,-1,2
 106 651 106 651 117 650 c 1,3,4
 123 575 123 575 164 478 c 0,5,6
 180 442 180 442 206.5 383 c 128,-1,7
 233 324 233 324 246 293 c 1,8,-1
 250 293 l 1,9,10
 285 360 285 360 320.5 469.5 c 128,-1,11
 356 579 356 579 360 649 c 1,12,13
 378 651 378 651 387 651 c 0,14,15
 434 651 434 651 465 634 c 1,16,17
 464 631 464 631 431.5 560.5 c 128,-1,18
 399 490 399 490 374 434 c 0,19,20
 299 266 299 266 281 194 c 1,21,22
 286 31 286 31 297 2 c 1,23,24
 264 -8 264 -8 236 -8 c 128,-1,25
 208 -8 208 -8 191 -6 c 1,26,27
 201 76 201 76 204 197 c 1,28,29
 181 270 181 270 136.5 362.5 c 128,-1,30
 92 455 92 455 52.5 532.5 c 128,-1,31
 13 610 13 610 1 634 c 1,0,1
368 759 m 0,32,33
 368 704 368 704 310 704 c 0,34,35
 265 704 265 704 265 750 c 0,36,37
 265 806 265 806 323 806 c 0,38,39
 368 806 368 806 368 759 c 0,32,33
218 759 m 0,40,41
 218 704 218 704 160 704 c 0,42,43
 115 704 115 704 115 750 c 0,44,45
 115 806 115 806 173 806 c 0,46,47
 218 806 218 806 218 759 c 0,40,41
EndSplineSet
EndChar

StartChar: Zcaron
Encoding: 381 381 202
Width: 486
GlyphClass: 2
Flags: W
LayerCount: 2
Fore
SplineSet
270 573 m 2,0,1
 129 573 129 573 54 553 c 1,2,3
 45 583 45 583 45 601 c 128,-1,4
 45 619 45 619 51 646 c 1,5,6
 103 639 103 639 250 639 c 128,-1,7
 397 639 397 639 451 645 c 1,8,9
 456 635 456 635 456 607 c 1,10,11
 413 526 413 526 296 320 c 128,-1,12
 179 114 179 114 158 76 c 1,13,14
 204 73 204 73 298 73 c 128,-1,15
 392 73 392 73 445 82 c 1,16,17
 453 56 453 56 453 31.5 c 128,-1,18
 453 7 453 7 449 -11 c 1,19,20
 431 -6 431 -6 350 -1.5 c 128,-1,21
 269 3 269 3 186.5 3 c 128,-1,22
 104 3 104 3 37 -4 c 1,23,24
 31 11 31 11 30 32 c 1,25,26
 72 98 72 98 187.5 297.5 c 128,-1,27
 303 497 303 497 350 573 c 1,28,-1
 270 573 l 2,0,1
111 835 m 1,29,30
 179 814 179 814 238 783 c 1,31,32
 325 823 325 823 373 835 c 1,33,34
 385 817 385 817 388 796 c 1,35,36
 355 777 355 777 330 763 c 0,37,38
 276 732 276 732 238 694 c 1,39,40
 194 736 194 736 95 797 c 1,41,42
 98 818 98 818 111 835 c 1,29,30
EndSplineSet
EndChar

StartChar: zcaron
Encoding: 382 382 203
Width: 400
GlyphClass: 2
Flags: W
LayerCount: 2
Fore
SplineSet
199 397 m 2,0,1
 110 397 110 397 39 378 c 1,2,3
 30 408 30 408 30 426 c 128,-1,4
 30 444 30 444 36 471 c 1,5,6
 88 464 88 464 197 464 c 128,-1,7
 306 464 306 464 360 470 c 1,8,9
 365 460 365 460 365 432 c 1,10,11
 324 355 324 355 248 240.5 c 128,-1,12
 172 126 172 126 142 74 c 1,13,-1
 186 74 l 2,14,15
 287 74 287 74 352 93 c 1,16,17
 362 62 362 62 362 39 c 128,-1,18
 362 16 362 16 357 -7 c 1,19,20
 271 2 271 2 187 2 c 128,-1,21
 103 2 103 2 22 -4 c 1,22,23
 16 11 16 11 15 32 c 1,24,25
 58 99 58 99 144.5 221.5 c 128,-1,26
 231 344 231 344 267 397 c 1,27,-1
 199 397 l 2,0,1
80 672 m 1,28,-1
 194 609 l 1,29,30
 227 627 227 627 308 672 c 1,31,32
 324 654 324 654 328 635 c 1,33,34
 310 620 310 620 280 596 c 1,35,36
 220 545 220 545 194 518 c 1,37,38
 168 545 168 545 123 582.5 c 128,-1,39
 78 620 78 620 60 635 c 1,40,41
 65 656 65 656 80 672 c 1,28,-1
EndSplineSet
EndChar

StartChar: florin
Encoding: 402 402 204
Width: 436
GlyphClass: 2
Flags: W
LayerCount: 2
Fore
SplineSet
214 274 m 1,0,1
 227 -64 227 -64 227 -69 c 0,2,3
 227 -142 227 -142 190 -176 c 128,-1,4
 153 -210 153 -210 91 -210 c 128,-1,5
 29 -210 29 -210 -32 -188 c 1,6,-1
 -33 -175 l 1,7,8
 -33 -136 -33 -136 -15 -102 c 1,9,10
 49 -137 49 -137 86.5 -137 c 128,-1,11
 124 -137 124 -137 134.5 -104 c 128,-1,12
 145 -71 145 -71 145 8 c 128,-1,13
 145 87 145 87 133 275 c 1,14,-1
 43 275 l 1,15,16
 35 291 35 291 35 305 c 128,-1,17
 35 319 35 319 38 331 c 1,18,-1
 130 331 l 1,19,20
 126 433 126 433 126 474 c 0,21,22
 126 574 126 574 164.5 620 c 128,-1,23
 203 666 203 666 285.5 666 c 128,-1,24
 368 666 368 666 402 623 c 128,-1,25
 436 580 436 580 436 519 c 0,26,27
 436 506 436 506 433 494 c 1,28,29
 416 485 416 485 387 485 c 128,-1,30
 358 485 358 485 343 489 c 1,31,32
 344 497 344 497 344 508 c 0,33,34
 344 607 344 607 282 607 c 0,35,36
 237 607 237 607 223.5 569.5 c 128,-1,37
 210 532 210 532 210 453.5 c 128,-1,38
 210 375 210 375 212 332 c 1,39,40
 300 334 300 334 371 339 c 1,41,42
 378 325 378 325 378 304.5 c 128,-1,43
 378 284 378 284 374 269 c 1,44,45
 322 272 322 272 214 274 c 1,0,1
EndSplineSet
EndChar

StartChar: circumflex
Encoding: 710 710 205
Width: 488
GlyphClass: 2
Flags: W
LayerCount: 2
Fore
SplineSet
358 528 m 1,0,1
 358 528 358 528 244 591 c 1,2,3
 211 573 211 573 130 528 c 1,4,5
 114 546 114 546 110 565 c 1,6,7
 128 580 128 580 158 604 c 1,8,9
 218 655 218 655 244 682 c 1,10,11
 270 655 270 655 315 617.5 c 128,-1,12
 360 580 360 580 378 565 c 1,13,14
 373 544 373 544 358 528 c 1,0,1
EndSplineSet
EndChar

StartChar: caron
Encoding: 711 711 206
Width: 488
GlyphClass: 2
Flags: W
LayerCount: 2
Fore
SplineSet
130 672 m 1,0,1
 130 672 130 672 244 609 c 1,2,3
 277 627 277 627 358 672 c 1,4,5
 374 654 374 654 378 635 c 1,6,7
 360 620 360 620 330 596 c 1,8,9
 270 545 270 545 244 518 c 1,10,11
 218 545 218 545 173 582.5 c 128,-1,12
 128 620 128 620 110 635 c 1,13,14
 115 656 115 656 130 672 c 1,0,1
EndSplineSet
EndChar

StartChar: breve
Encoding: 728 728 207
Width: 474
GlyphClass: 2
Flags: W
LayerCount: 2
Fore
SplineSet
237 599 m 128,-1,1
 275 599 275 599 297 617.5 c 128,-1,2
 319 636 319 636 336 672 c 1,3,4
 359 660 359 660 364 635 c 1,5,6
 348 591 348 591 314.5 559.5 c 128,-1,7
 281 528 281 528 237 528 c 128,-1,8
 193 528 193 528 159.5 559.5 c 128,-1,9
 126 591 126 591 110 635 c 1,10,11
 115 660 115 660 138 672 c 1,12,13
 156 636 156 636 177.5 617.5 c 128,-1,0
 199 599 199 599 237 599 c 128,-1,1
EndSplineSet
EndChar

StartChar: dotaccent
Encoding: 729 729 208
Width: 235
GlyphClass: 2
Flags: W
LayerCount: 2
Fore
SplineSet
174 623 m 0,0,1
 174 561 174 561 110 561 c 0,2,3
 60 561 60 561 60 612 c 0,4,5
 60 675 60 675 124 675 c 0,6,7
 174 675 174 675 174 623 c 0,0,1
EndSplineSet
EndChar

StartChar: ring
Encoding: 730 730 209
Width: 386
GlyphClass: 2
Flags: W
LayerCount: 2
Fore
SplineSet
257 673.5 m 128,-1,1
 274 654 274 654 274 613.5 c 128,-1,2
 274 573 274 573 252.5 550 c 128,-1,3
 231 527 231 527 185 527 c 0,4,5
 110 527 110 527 110 610 c 128,-1,6
 110 693 110 693 199 693 c 0,7,0
 240 693 240 693 257 673.5 c 128,-1,1
197 656 m 0,8,9
 149 656 149 656 149 611 c 0,10,11
 149 585 149 585 158 574.5 c 128,-1,12
 167 564 167 564 187 564 c 0,13,14
 235 564 235 564 235 612 c 0,15,16
 235 656 235 656 197 656 c 0,8,9
EndSplineSet
EndChar

StartChar: ogonek
Encoding: 731 731 210
Width: 320
GlyphClass: 2
Flags: W
LayerCount: 2
Fore
SplineSet
121 -115 m 0,0,1
 121 -156 121 -156 163 -156 c 0,2,3
 217 -156 217 -156 254 -105 c 1,4,5
 270 -131 270 -131 270 -167 c 1,6,7
 226 -210 226 -210 156 -210 c 0,8,9
 106 -210 106 -210 78 -184.5 c 128,-1,10
 50 -159 50 -159 50 -117.5 c 128,-1,11
 50 -76 50 -76 87 -36.5 c 128,-1,12
 124 3 124 3 189 21 c 1,13,-1
 228 3 l 1,14,15
 179 -13 179 -13 150 -48 c 128,-1,16
 121 -83 121 -83 121 -115 c 0,0,1
EndSplineSet
EndChar

StartChar: tilde
Encoding: 732 732 211
Width: 508
GlyphClass: 2
Flags: W
LayerCount: 2
Fore
SplineSet
153 620.5 m 128,-1,1
 182 643 182 643 208 643 c 128,-1,2
 234 643 234 643 265.5 626.5 c 128,-1,3
 297 610 297 610 314 610 c 0,4,5
 339 610 339 610 364 650 c 1,6,7
 391 638 391 638 398 617 c 1,8,9
 384 590 384 590 355 567 c 128,-1,10
 326 544 326 544 299.5 544 c 128,-1,11
 273 544 273 544 241.5 560.5 c 128,-1,12
 210 577 210 577 188.5 577 c 128,-1,13
 167 577 167 577 142 537 c 1,14,15
 117 549 117 549 110 570 c 1,16,0
 124 598 124 598 153 620.5 c 128,-1,1
EndSplineSet
EndChar

StartChar: hungarumlaut
Encoding: 733 733 212
Width: 848
GlyphClass: 2
Flags: W
LayerCount: 2
Fore
SplineSet
146 528 m 1,0,1
 130 540 130 540 118 565 c 1,2,3
 134 578 134 578 158.5 597 c 128,-1,4
 183 616 183 616 194 626 c 0,5,6
 223 649 223 649 254 682 c 1,7,8
 281 664 281 664 294.5 648 c 128,-1,9
 308 632 308 632 314 603 c 1,10,11
 228 567 228 567 146 528 c 1,0,1
336 528 m 1,12,13
 320 540 320 540 308 565 c 1,14,15
 324 578 324 578 348.5 597 c 128,-1,16
 373 616 373 616 384 626 c 0,17,18
 413 649 413 649 444 682 c 1,19,20
 471 664 471 664 484.5 648 c 128,-1,21
 498 632 498 632 504 603 c 1,22,23
 386 553 386 553 336 528 c 1,12,13
EndSplineSet
EndChar

StartChar: pi
Encoding: 960 960 213
Width: 621
GlyphClass: 2
Flags: W
LayerCount: 2
Fore
SplineSet
486 256 m 0,0,1
 486 92 486 92 504 6 c 1,2,3
 468 -4 468 -4 444 -4 c 128,-1,4
 420 -4 420 -4 398 -2 c 1,5,6
 413 134 413 134 413 226.5 c 128,-1,7
 413 319 413 319 403 402 c 1,8,9
 364 403 364 403 305 403 c 128,-1,10
 246 403 246 403 224 402 c 1,11,12
 216 308 216 308 216 256 c 0,13,14
 216 92 216 92 234 6 c 1,15,16
 198 -4 198 -4 174 -4 c 128,-1,17
 150 -4 150 -4 128 -2 c 1,18,19
 143 134 143 134 143 221.5 c 128,-1,20
 143 309 143 309 134 397 c 1,21,22
 63 391 63 391 55 389 c 1,23,24
 50 404 50 404 50 428.5 c 128,-1,25
 50 453 50 453 59 477 c 1,26,27
 144 468 144 468 263 468 c 0,28,29
 507 468 507 468 566 482 c 1,30,31
 571 467 571 467 571 442.5 c 128,-1,32
 571 418 571 418 562 394 c 1,33,34
 538 396 538 396 494 398 c 1,35,36
 486 306 486 306 486 256 c 0,0,1
EndSplineSet
EndChar

StartChar: endash
Encoding: 8211 8211 214
Width: 502
GlyphClass: 2
Flags: W
LayerCount: 2
Fore
SplineSet
474 215 m 1,0,1
 376 224 376 224 276.5 224 c 128,-1,2
 177 224 177 224 110 219 c 128,-1,3
 43 214 43 214 24 210 c 1,4,5
 20 224 20 224 20 248 c 128,-1,6
 20 272 20 272 28 298 c 1,7,8
 102 289 102 289 203 289 c 128,-1,9
 304 289 304 289 382 293.5 c 128,-1,10
 460 298 460 298 478 303 c 1,11,12
 482 285 482 285 482 263 c 128,-1,13
 482 241 482 241 474 215 c 1,0,1
EndSplineSet
EndChar

StartChar: emdash
Encoding: 8212 8212 215
Width: 731
GlyphClass: 2
Flags: W
LayerCount: 2
Fore
SplineSet
697 215 m 1,0,1
 533 224 533 224 399 224 c 128,-1,2
 265 224 265 224 162 219 c 128,-1,3
 59 214 59 214 26 210 c 1,4,5
 20 224 20 224 20 248.5 c 128,-1,6
 20 273 20 273 34 298 c 1,7,8
 157 289 157 289 314 289 c 0,9,10
 618 289 618 289 705 303 c 1,11,12
 711 285 711 285 711 262.5 c 128,-1,13
 711 240 711 240 697 215 c 1,0,1
EndSplineSet
EndChar

StartChar: quoteleft
Encoding: 8216 8216 216
Width: 261
GlyphClass: 2
Flags: W
LayerCount: 2
Fore
SplineSet
196 682 m 1,0,1
 201 667 201 667 201 657.5 c 128,-1,2
 201 648 201 648 198 633 c 1,3,4
 131 633 131 633 131 564 c 0,5,6
 131 539 131 539 157 536 c 0,7,8
 195 533 195 533 195 487 c 0,9,10
 195 452 195 452 178.5 433.5 c 128,-1,11
 162 415 162 415 119 415 c 0,12,13
 60 415 60 415 60 495 c 128,-1,14
 60 575 60 575 92 628.5 c 128,-1,15
 124 682 124 682 196 682 c 1,0,1
EndSplineSet
EndChar

StartChar: quoteright
Encoding: 8217 8217 217
Width: 261
GlyphClass: 2
Flags: W
LayerCount: 2
Fore
SplineSet
65 415 m 1,0,1
 60 430 60 430 60 439.5 c 128,-1,2
 60 449 60 449 63 464 c 1,3,4
 130 464 130 464 130 533 c 0,5,6
 130 558 130 558 104 561 c 0,7,8
 66 564 66 564 66 610 c 0,9,10
 66 645 66 645 82.5 663.5 c 128,-1,11
 99 682 99 682 142 682 c 0,12,13
 201 682 201 682 201 602 c 128,-1,14
 201 522 201 522 169 468.5 c 128,-1,15
 137 415 137 415 65 415 c 1,0,1
EndSplineSet
EndChar

StartChar: quotesinglbase
Encoding: 8218 8218 218
Width: 281
GlyphClass: 2
Flags: W
LayerCount: 2
Fore
SplineSet
85 -152 m 1,0,1
 80 -137 80 -137 80 -127.5 c 128,-1,2
 80 -118 80 -118 83 -103 c 1,3,4
 150 -103 150 -103 150 -34 c 0,5,6
 150 -9 150 -9 124 -6 c 0,7,8
 86 -3 86 -3 86 43 c 0,9,10
 86 78 86 78 102.5 96.5 c 128,-1,11
 119 115 119 115 162 115 c 0,12,13
 221 115 221 115 221 35 c 128,-1,14
 221 -45 221 -45 189 -98.5 c 128,-1,15
 157 -152 157 -152 85 -152 c 1,0,1
EndSplineSet
EndChar

StartChar: quotedblleft
Encoding: 8220 8220 219
Width: 442
GlyphClass: 2
Flags: W
LayerCount: 2
Fore
SplineSet
196 682 m 1,0,1
 201 667 201 667 201 657.5 c 128,-1,2
 201 648 201 648 198 633 c 1,3,4
 131 633 131 633 131 564 c 0,5,6
 131 539 131 539 157 536 c 0,7,8
 195 533 195 533 195 487 c 0,9,10
 195 452 195 452 178.5 433.5 c 128,-1,11
 162 415 162 415 119 415 c 0,12,13
 60 415 60 415 60 495 c 128,-1,14
 60 575 60 575 92 628.5 c 128,-1,15
 124 682 124 682 196 682 c 1,0,1
377 682 m 1,16,17
 382 667 382 667 382 657.5 c 128,-1,18
 382 648 382 648 379 633 c 1,19,20
 312 633 312 633 312 564 c 0,21,22
 312 539 312 539 338 536 c 0,23,24
 376 533 376 533 376 487 c 0,25,26
 376 452 376 452 359.5 433.5 c 128,-1,27
 343 415 343 415 300 415 c 0,28,29
 241 415 241 415 241 495 c 128,-1,30
 241 575 241 575 273 628.5 c 128,-1,31
 305 682 305 682 377 682 c 1,16,17
EndSplineSet
EndChar

StartChar: quotedblright
Encoding: 8221 8221 220
Width: 442
GlyphClass: 2
Flags: W
LayerCount: 2
Fore
SplineSet
65 415 m 1,0,1
 60 430 60 430 60 439.5 c 128,-1,2
 60 449 60 449 63 464 c 1,3,4
 130 464 130 464 130 533 c 0,5,6
 130 558 130 558 104 561 c 0,7,8
 66 564 66 564 66 610 c 0,9,10
 66 645 66 645 82.5 663.5 c 128,-1,11
 99 682 99 682 142 682 c 0,12,13
 201 682 201 682 201 602 c 128,-1,14
 201 522 201 522 169 468.5 c 128,-1,15
 137 415 137 415 65 415 c 1,0,1
246 415 m 1,16,17
 241 430 241 430 241 439.5 c 128,-1,18
 241 449 241 449 244 464 c 1,19,20
 311 464 311 464 311 533 c 0,21,22
 311 558 311 558 285 561 c 0,23,24
 247 564 247 564 247 610 c 0,25,26
 247 645 247 645 263.5 663.5 c 128,-1,27
 280 682 280 682 323 682 c 0,28,29
 382 682 382 682 382 602 c 128,-1,30
 382 522 382 522 350 468.5 c 128,-1,31
 318 415 318 415 246 415 c 1,16,17
EndSplineSet
EndChar

StartChar: quotedblbase
Encoding: 8222 8222 221
Width: 462
GlyphClass: 2
Flags: W
LayerCount: 2
Fore
SplineSet
85 -152 m 1,0,1
 80 -137 80 -137 80 -127.5 c 128,-1,2
 80 -118 80 -118 83 -103 c 1,3,4
 150 -103 150 -103 150 -34 c 0,5,6
 150 -9 150 -9 124 -6 c 0,7,8
 86 -3 86 -3 86 43 c 0,9,10
 86 78 86 78 102.5 96.5 c 128,-1,11
 119 115 119 115 162 115 c 0,12,13
 221 115 221 115 221 35 c 128,-1,14
 221 -45 221 -45 189 -98.5 c 128,-1,15
 157 -152 157 -152 85 -152 c 1,0,1
266 -152 m 1,16,17
 261 -137 261 -137 261 -127.5 c 128,-1,18
 261 -118 261 -118 264 -103 c 1,19,20
 331 -103 331 -103 331 -34 c 0,21,22
 331 -9 331 -9 305 -6 c 0,23,24
 267 -3 267 -3 267 43 c 0,25,26
 267 78 267 78 283.5 96.5 c 128,-1,27
 300 115 300 115 343 115 c 0,28,29
 402 115 402 115 402 35 c 128,-1,30
 402 -45 402 -45 370 -98.5 c 128,-1,31
 338 -152 338 -152 266 -152 c 1,16,17
EndSplineSet
EndChar

StartChar: dagger
Encoding: 8224 8224 222
Width: 427
GlyphClass: 2
Flags: W
LayerCount: 2
Fore
SplineSet
249 338 m 2,0,1
 249 52 249 52 266 -2 c 1,2,3
 233 -12 233 -12 205 -12 c 128,-1,4
 177 -12 177 -12 160 -10 c 1,5,6
 174 107 174 107 174 258 c 128,-1,7
 174 409 174 409 173 452 c 1,8,9
 43 446 43 446 13 438 c 1,10,11
 10 452 10 452 10 478 c 128,-1,12
 10 504 10 504 17 526 c 1,13,14
 84 517 84 517 171 517 c 1,15,16
 166 593 166 593 157 645 c 1,17,18
 183 655 183 655 209 655 c 128,-1,19
 235 655 235 655 263 653 c 1,20,21
 256 597 256 597 252 517 c 1,22,23
 378 520 378 520 414 531 c 1,24,25
 417 518 417 518 417 491.5 c 128,-1,26
 417 465 417 465 410 443 c 1,27,28
 339 450 339 450 249 452 c 1,29,-1
 249 338 l 2,0,1
EndSplineSet
EndChar

StartChar: daggerdbl
Encoding: 8225 8225 223
Width: 427
GlyphClass: 2
Flags: W
LayerCount: 2
Fore
SplineSet
249 338 m 2,0,1
 249 240 249 240 251 191 c 1,2,3
 376 194 376 194 412 205 c 1,4,5
 415 191 415 191 415 165 c 128,-1,6
 415 139 415 139 408 117 c 1,7,8
 353 124 353 124 254 126 c 1,9,10
 259 17 259 17 266 -2 c 1,11,12
 233 -12 233 -12 205 -12 c 128,-1,13
 177 -12 177 -12 160 -10 c 1,14,15
 167 43 167 43 170 126 c 1,16,17
 41 120 41 120 11 112 c 1,18,19
 8 125 8 125 8 151.5 c 128,-1,20
 8 178 8 178 15 200 c 1,21,22
 99 191 99 191 172 191 c 1,23,24
 174 271 174 271 174 340 c 128,-1,25
 174 409 174 409 173 452 c 1,26,27
 43 446 43 446 13 438 c 1,28,29
 10 452 10 452 10 478 c 128,-1,30
 10 504 10 504 17 526 c 1,31,32
 84 517 84 517 171 517 c 1,33,34
 166 593 166 593 157 645 c 1,35,36
 183 655 183 655 209 655 c 128,-1,37
 235 655 235 655 263 653 c 1,38,39
 256 597 256 597 252 517 c 1,40,41
 378 520 378 520 414 531 c 1,42,43
 417 518 417 518 417 491.5 c 128,-1,44
 417 465 417 465 410 443 c 1,45,46
 339 450 339 450 249 452 c 1,47,-1
 249 338 l 2,0,1
EndSplineSet
EndChar

